<svg width="21" height="35" viewBox="0 0 21 35" fill="none" xmlns="http://www.w3.org/2000/svg">
<path fill-rule="evenodd" clip-rule="evenodd" d="M4.3473 1.33133C3.96558 0.949607 3.3498 0.939759 2.95606 1.30908L1.34862 2.81684C0.937468 3.2025 0.926178 3.85161 1.32367 4.25133L14.6441 17.6465L1.3061 30.8149C0.914325 31.2017 0.908881 31.8324 1.29392 32.2259L2.95543 33.9239C3.34466 34.3217 3.98376 34.3252 4.37729 33.9317L20.6625 17.6465L4.3473 1.33133Z" fill="black" fill-opacity="0.7"/>
<mask id="mask0_458_153" style="mask-type:alpha" maskUnits="userSpaceOnUse" x="1" y="1" width="20" height="34">
<path fill-rule="evenodd" clip-rule="evenodd" d="M4.3473 1.33133C3.96558 0.949607 3.3498 0.939759 2.95606 1.30908L1.34862 2.81684C0.937468 3.2025 0.926178 3.85161 1.32367 4.25133L14.6441 17.6465L1.3061 30.8149C0.914325 31.2017 0.908881 31.8324 1.29392 32.2259L2.95543 33.9239C3.34466 34.3217 3.98376 34.3252 4.37729 33.9317L20.6625 17.6465L4.3473 1.33133Z" fill="white"/>
</mask>
<g mask="url(#mask0_458_153)">
<rect x="-24" y="-16.3535" width="68" height="68" fill="#0379B6"/>
</g>
</svg>
