<svg width="1438" height="719" viewBox="0 0 1438 719" fill="none" xmlns="http://www.w3.org/2000/svg">
<path d="M0 0H1436V714H0V0Z" fill="#252D5A"/>
<path d="M0 0H1436V714H0V0Z" fill="url(#paint0_linear_101_3201)"/>
<g opacity="0.108096">
<g opacity="0.802699">
<path fill-rule="evenodd" clip-rule="evenodd" d="M659.98 766.417L655.142 781.305C653.897 785.139 656.001 789.327 659.79 790.558L678.973 796.791C682.763 798.023 686.882 795.893 688.128 792.06L694.433 772.656C695.678 768.822 693.597 764.678 689.807 763.447L675.625 758.839C667.642 756.096 667.74 753.951 670.052 746.836L674.796 732.235C676.042 728.402 673.96 724.258 670.171 723.026L650.988 716.794C647.199 715.562 643.078 717.691 641.833 721.525L635.528 740.929C634.283 744.762 636.364 748.906 640.154 750.138L652.531 754.159C660.131 756.629 662.695 758.06 659.98 766.417Z" fill="#3A3080"/>
</g>
<g opacity="0.44821">
<path fill-rule="evenodd" clip-rule="evenodd" d="M739.597 766.045L733.733 780.559C732.223 784.296 734.029 788.621 737.724 790.114L756.425 797.67C760.119 799.162 764.378 797.326 765.888 793.588L773.531 774.671C775.041 770.934 773.253 766.655 769.559 765.163L755.733 759.576C747.96 756.284 748.208 754.15 751.011 747.213L756.761 732.98C758.271 729.242 756.484 724.963 752.79 723.47L734.089 715.915C730.394 714.422 726.136 716.259 724.626 719.996L716.983 738.913C715.473 742.65 717.26 746.929 720.955 748.422L733.021 753.297C740.43 756.29 742.888 757.898 739.597 766.045Z" fill="#3A3080"/>
</g>
<g opacity="0.0943502">
<path fill-rule="evenodd" clip-rule="evenodd" d="M819.244 765.628L812.382 779.697C810.615 783.32 812.115 787.761 815.696 789.508L833.825 798.35C837.407 800.096 841.783 798.561 843.55 794.938L852.493 776.601C854.26 772.978 852.776 768.584 849.194 766.838L835.792 760.301C828.268 756.474 828.664 754.363 831.944 747.638L838.673 733.841C840.44 730.218 838.956 725.824 835.375 724.077L817.246 715.236C813.665 713.489 809.289 715.024 807.522 718.647L798.578 736.985C796.811 740.607 798.296 745.001 801.877 746.748L813.574 752.452C820.756 755.955 823.096 757.73 819.244 765.628Z" fill="#3A3080"/>
</g>
<g opacity="0.27226">
<path fill-rule="evenodd" clip-rule="evenodd" d="M898.924 765.167L891.097 778.724C889.082 782.215 890.269 786.749 893.719 788.741L911.187 798.826C914.638 800.819 919.11 799.592 921.126 796.102L931.327 778.432C933.342 774.942 932.168 770.456 928.717 768.463L915.803 761.007C908.565 756.665 909.107 754.587 912.848 748.107L920.524 734.813C922.539 731.322 921.365 726.836 917.914 724.843L900.446 714.758C896.996 712.766 892.523 713.992 890.507 717.483L880.306 735.152C878.291 738.643 879.465 743.129 882.916 745.121L894.187 751.628C901.107 755.624 903.318 757.557 898.924 765.167Z" fill="#3A3080"/>
</g>
<g opacity="0.76344">
<path fill-rule="evenodd" clip-rule="evenodd" d="M978.636 764.666L969.882 777.643C967.628 780.985 968.496 785.591 971.799 787.82L988.521 799.098C991.824 801.327 996.371 800.415 998.625 797.074L1010.03 780.159C1012.29 776.817 1011.43 772.26 1008.13 770.032L995.764 761.694C988.846 756.857 989.532 754.821 993.715 748.619L1002.3 735.892C1004.55 732.55 1003.7 727.993 1000.39 725.765L983.671 714.486C980.367 712.258 975.82 713.169 973.566 716.511L962.157 733.425C959.903 736.767 960.762 741.324 964.065 743.552L974.854 750.829C981.479 755.298 983.549 757.381 978.636 764.666Z" fill="#3A3080"/>
</g>
<g opacity="0.811874">
<path fill-rule="evenodd" clip-rule="evenodd" d="M1058.39 764.126L1048.75 776.462C1046.27 779.638 1046.81 784.294 1049.95 786.747L1065.84 799.165C1068.98 801.618 1073.58 801.026 1076.07 797.85L1088.63 781.772C1091.11 778.596 1090.57 773.99 1087.43 771.537L1075.68 762.356C1069.12 757.049 1069.94 755.066 1074.55 749.171L1084 737.073C1086.48 733.897 1085.94 729.291 1082.8 726.838L1066.91 714.42C1063.77 711.967 1059.17 712.558 1056.69 715.735L1044.13 731.812C1041.64 734.989 1042.18 739.595 1045.32 742.048L1055.58 750.06C1061.88 754.979 1063.8 757.202 1058.39 764.126Z" fill="#3A3080"/>
</g>
<g opacity="0.202792">
<path fill-rule="evenodd" clip-rule="evenodd" d="M1138.17 763.551L1127.7 775.184C1125 778.18 1125.22 782.862 1128.18 785.528L1143.17 799.024C1146.13 801.691 1150.76 801.421 1153.46 798.426L1167.11 783.264C1169.81 780.268 1169.59 775.636 1166.63 772.97L1155.55 762.992C1149.37 757.239 1150.33 755.319 1155.34 749.759L1165.61 738.351C1168.31 735.355 1168.09 730.723 1165.13 728.056L1150.14 714.56C1147.18 711.894 1142.55 712.163 1139.85 715.159L1126.2 730.321C1123.5 733.316 1123.72 737.949 1126.68 740.615L1136.35 749.323C1142.29 754.67 1144.05 757.021 1138.17 763.551Z" fill="#3A3080"/>
</g>
<g opacity="0.237314">
<path fill-rule="evenodd" clip-rule="evenodd" d="M1218 762.943L1206.74 773.817C1203.84 776.617 1203.73 781.303 1206.5 784.169L1220.51 798.678C1223.28 801.545 1227.91 801.599 1230.81 798.799L1245.49 784.626C1248.39 781.826 1248.5 777.19 1245.73 774.324L1235.37 763.597C1229.61 757.427 1230.7 755.579 1236.09 750.382L1247.13 739.718C1250.03 736.918 1250.14 732.282 1247.37 729.415L1233.36 714.907C1230.59 712.04 1225.95 711.986 1223.05 714.786L1208.38 728.959C1205.48 731.759 1205.37 736.395 1208.14 739.261L1217.18 748.623C1222.73 754.371 1224.32 756.839 1218 762.943Z" fill="#3A3080"/>
</g>
<g opacity="0.682097">
<path fill-rule="evenodd" clip-rule="evenodd" d="M1297.87 762.305L1285.88 772.367C1282.79 774.958 1282.36 779.625 1284.92 782.677L1297.88 798.128C1300.45 801.181 1305.07 801.558 1308.16 798.967L1323.78 785.853C1326.87 783.262 1327.3 778.645 1324.74 775.592L1315.16 764.169C1309.84 757.613 1311.06 755.845 1316.79 751.036L1328.55 741.169C1331.64 738.578 1332.07 733.96 1329.51 730.908L1316.54 715.457C1313.98 712.404 1309.36 712.027 1306.27 714.618L1290.64 727.732C1287.56 730.323 1287.12 734.941 1289.69 737.993L1298.05 747.962C1303.19 754.083 1304.6 756.657 1297.87 762.305Z" fill="#3A3080"/>
</g>
<g opacity="0.386928">
<path fill-rule="evenodd" clip-rule="evenodd" d="M1377.79 761.64L1365.13 770.841C1361.87 773.21 1361.11 777.835 1363.45 781.059L1375.3 797.377C1377.65 800.6 1382.23 801.299 1385.49 798.93L1402 786.938C1405.26 784.568 1406.01 779.993 1403.67 776.769L1394.9 764.705C1390.06 757.794 1391.4 756.116 1397.45 751.718L1409.87 742.695C1413.13 740.326 1413.88 735.749 1411.54 732.526L1399.68 716.208C1397.34 712.984 1392.76 712.285 1389.5 714.655L1372.99 726.647C1369.73 729.016 1368.98 733.592 1371.32 736.816L1378.97 747.344C1383.67 753.809 1384.9 756.475 1377.79 761.64Z" fill="#3A3080"/>
</g>
<g opacity="0.208882">
<path fill-rule="evenodd" clip-rule="evenodd" d="M1457.76 760.951L1444.48 769.246C1441.06 771.382 1439.98 775.943 1442.09 779.322L1452.78 796.427C1454.89 799.807 1459.42 800.824 1462.84 798.688L1480.14 787.876C1483.56 785.74 1484.63 781.228 1482.51 777.848L1474.61 765.202C1470.26 757.97 1471.71 756.39 1478.06 752.425L1491.08 744.29C1494.5 742.154 1495.57 737.642 1493.45 734.262L1482.77 717.158C1480.65 713.778 1476.13 712.761 1472.71 714.897L1455.41 725.709C1451.99 727.845 1450.92 732.357 1453.03 735.737L1459.93 746.773C1464.16 753.549 1465.21 756.295 1457.76 760.951Z" fill="#3A3080"/>
</g>
<g opacity="0.0410342">
<path fill-rule="evenodd" clip-rule="evenodd" d="M654.632 673.264L639.131 671.085C635.139 670.524 631.38 673.324 630.825 677.269L628.018 697.243C627.463 701.189 630.276 704.876 634.267 705.437L654.471 708.277C658.463 708.838 662.182 706.068 662.737 702.122L664.812 687.356C666.127 679.018 668.257 678.742 675.666 679.783L690.868 681.92C694.859 682.481 698.579 679.711 699.134 675.765L701.941 655.792C702.495 651.846 699.683 648.158 695.692 647.597L675.488 644.758C671.496 644.197 667.776 646.967 667.222 650.912L665.411 663.8C664.299 671.713 663.334 674.487 654.632 673.264Z" fill="#3A3080"/>
<path fill-rule="evenodd" clip-rule="evenodd" d="M640.823 639.886L653.777 641.706C656.336 642.066 658.135 644.454 657.776 647.013L655.955 659.966C655.596 662.525 653.208 664.324 650.649 663.965L637.695 662.144C635.136 661.785 633.336 659.397 633.696 656.838L635.516 643.885C635.876 641.326 638.264 639.526 640.823 639.886Z" fill="#748288"/>
<path fill-rule="evenodd" clip-rule="evenodd" d="M689.301 693.716L678.198 692.156C676.004 691.848 673.957 693.39 673.649 695.584L672.089 706.686C671.78 708.879 673.323 710.926 675.517 711.234L686.62 712.795C688.813 713.103 690.86 711.561 691.168 709.367L692.729 698.265C693.037 696.071 691.495 694.025 689.301 693.716Z" fill="#748288"/>
</g>
<g opacity="0.172964">
<path fill-rule="evenodd" clip-rule="evenodd" d="M735.164 672.55L719.852 669.296C715.909 668.457 711.963 670.988 711.135 674.885L706.941 694.614C706.113 698.512 708.661 702.387 712.604 703.225L732.561 707.466C736.503 708.305 740.407 705.801 741.235 701.904L744.336 687.318C746.229 679.092 748.373 678.965 755.691 680.521L770.707 683.712C774.65 684.551 778.554 682.047 779.382 678.15L783.576 658.421C784.404 654.523 781.856 650.648 777.913 649.81L757.956 645.568C754.014 644.73 750.11 647.234 749.282 651.131L746.576 663.861C744.915 671.677 743.759 674.377 735.164 672.55Z" fill="#3A3080"/>
<path fill-rule="evenodd" clip-rule="evenodd" d="M723.718 638.29L736.514 641.01C739.041 641.547 740.67 644.055 740.132 646.583L737.413 659.377C736.876 661.905 734.368 663.533 731.84 662.996L719.045 660.276C716.517 659.739 714.889 657.231 715.426 654.704L718.145 641.909C718.683 639.382 721.19 637.753 723.718 638.29Z" fill="#748288"/>
<path fill-rule="evenodd" clip-rule="evenodd" d="M768.323 695.371L757.355 693.04C755.188 692.579 753.039 693.975 752.578 696.142L750.247 707.108C749.787 709.275 751.183 711.424 753.35 711.885L764.317 714.216C766.484 714.677 768.633 713.281 769.093 711.114L771.424 700.148C771.885 697.981 770.489 695.832 768.323 695.371Z" fill="#748288"/>
</g>
<g opacity="0.981983">
<path fill-rule="evenodd" clip-rule="evenodd" d="M815.743 671.856L800.695 667.541C796.821 666.43 792.708 668.679 791.61 672.509L786.05 691.897C784.952 695.728 787.224 699.771 791.098 700.882L810.71 706.505C814.585 707.616 818.654 705.392 819.752 701.561L823.862 687.227C826.325 679.153 828.473 679.177 835.664 681.239L850.421 685.47C854.296 686.581 858.365 684.357 859.463 680.526L865.022 661.138C866.121 657.308 863.849 653.264 859.974 652.153L840.362 646.529C836.488 645.418 832.419 647.644 831.32 651.474L827.733 663.984C825.531 671.665 824.189 674.278 815.743 671.856Z" fill="#3A3080"/>
<path fill-rule="evenodd" clip-rule="evenodd" d="M806.714 636.881L819.288 640.487C821.772 641.199 823.222 643.814 822.51 646.298L818.904 658.872C818.192 661.356 815.577 662.805 813.093 662.093L800.518 658.487C798.034 657.775 796.584 655.16 797.297 652.676L800.902 640.103C801.614 637.619 804.23 636.169 806.714 636.881Z" fill="#748288"/>
<path fill-rule="evenodd" clip-rule="evenodd" d="M847.226 696.934L836.449 693.844C834.319 693.233 832.078 694.476 831.467 696.605L828.377 707.382C827.766 709.511 829.009 711.753 831.138 712.364L841.916 715.454C844.045 716.065 846.287 714.822 846.897 712.693L849.988 701.916C850.598 699.786 849.356 697.545 847.226 696.934Z" fill="#748288"/>
</g>
<g opacity="0.312859">
<path fill-rule="evenodd" clip-rule="evenodd" d="M896.372 671.183L881.663 665.83C877.875 664.451 873.615 666.407 872.253 670.152L865.354 689.105C863.991 692.849 865.976 697.041 869.763 698.42L888.935 705.398C892.723 706.776 896.937 704.841 898.3 701.096L903.4 687.084C906.42 679.201 908.561 679.375 915.591 681.933L930.017 687.184C933.804 688.562 938.019 686.627 939.381 682.883L946.28 663.929C947.643 660.185 945.659 655.993 941.871 654.614L922.699 647.636C918.911 646.258 914.697 648.194 913.334 651.938L908.883 664.167C906.15 671.676 904.63 674.189 896.372 671.183Z" fill="#3A3080"/>
<path fill-rule="evenodd" clip-rule="evenodd" d="M889.804 635.664L902.097 640.138C904.525 641.022 905.789 643.732 904.905 646.16L900.431 658.452C899.547 660.88 896.837 662.144 894.409 661.26L882.117 656.786C879.688 655.902 878.425 653.192 879.308 650.764L883.782 638.472C884.666 636.044 887.376 634.78 889.804 635.664Z" fill="#748288"/>
<path fill-rule="evenodd" clip-rule="evenodd" d="M926.032 698.397L915.496 694.562C913.414 693.804 911.092 694.887 910.334 696.969L906.499 707.504C905.742 709.586 906.825 711.909 908.907 712.666L919.443 716.501C921.524 717.259 923.847 716.175 924.604 714.094L928.439 703.559C929.197 701.477 928.114 699.155 926.032 698.397Z" fill="#748288"/>
</g>
<g opacity="0.278342">
<path fill-rule="evenodd" clip-rule="evenodd" d="M977.046 670.538L962.746 664.171C959.064 662.531 954.678 664.186 953.057 667.826L944.854 686.252C943.233 689.892 944.92 694.212 948.602 695.852L967.241 704.15C970.923 705.79 975.262 704.153 976.883 700.512L982.948 686.89C986.51 679.237 988.634 679.559 995.468 682.602L1009.49 688.846C1013.17 690.486 1017.51 688.849 1019.13 685.209L1027.34 666.783C1028.96 663.143 1027.27 658.823 1023.59 657.183L1004.95 648.885C1001.27 647.245 996.93 648.882 995.309 652.523L990.016 664.411C986.766 671.711 985.074 674.112 977.046 670.538Z" fill="#3A3080"/>
<path fill-rule="evenodd" clip-rule="evenodd" d="M972.972 634.647L984.923 639.967C987.283 641.018 988.355 643.81 987.304 646.171L981.984 658.12C980.933 660.481 978.141 661.552 975.78 660.501L963.83 655.181C961.469 654.129 960.398 651.338 961.449 648.977L966.769 637.028C967.82 634.667 970.611 633.596 972.972 634.647Z" fill="#748288"/>
<path fill-rule="evenodd" clip-rule="evenodd" d="M1004.74 699.754L994.492 695.194C992.468 694.293 990.076 695.211 989.175 697.235L984.615 707.477C983.714 709.5 984.632 711.893 986.656 712.794L996.899 717.354C998.922 718.255 1001.32 717.337 1002.22 715.313L1006.78 705.071C1007.68 703.047 1006.76 700.655 1004.74 699.754Z" fill="#748288"/>
</g>
<g opacity="0.395503">
<path fill-rule="evenodd" clip-rule="evenodd" d="M1057.76 669.921L1043.94 662.572C1040.38 660.68 1035.89 662.024 1034.02 665.542L1024.55 683.351C1022.68 686.87 1024.07 691.297 1027.62 693.189L1045.64 702.767C1049.2 704.66 1053.64 703.329 1055.51 699.811L1062.51 686.645C1066.6 679.259 1068.69 679.729 1075.3 683.241L1088.85 690.448C1092.41 692.34 1096.86 691.01 1098.73 687.492L1108.2 669.683C1110.07 666.165 1108.69 661.738 1105.13 659.845L1087.11 650.267C1083.55 648.375 1079.11 649.705 1077.24 653.224L1071.13 664.714C1067.38 671.769 1065.52 674.046 1057.76 669.921Z" fill="#3A3080"/>
<path fill-rule="evenodd" clip-rule="evenodd" d="M1056.2 633.833L1067.75 639.974C1070.04 641.188 1070.91 644.047 1069.7 646.329L1063.56 657.878C1062.34 660.16 1059.48 661.034 1057.2 659.82L1045.65 653.679C1043.37 652.466 1042.5 649.607 1043.71 647.325L1049.85 635.776C1051.06 633.494 1053.92 632.62 1056.2 633.833Z" fill="#748288"/>
<path fill-rule="evenodd" clip-rule="evenodd" d="M1083.35 700.998L1073.45 695.734C1071.49 694.694 1069.04 695.443 1068 697.399L1062.74 707.298C1061.7 709.254 1062.45 711.705 1064.4 712.745L1074.3 718.008C1076.26 719.048 1078.71 718.299 1079.75 716.343L1085.01 706.444C1086.05 704.488 1085.3 702.037 1083.35 700.998Z" fill="#748288"/>
</g>
<g opacity="0.863501">
<path fill-rule="evenodd" clip-rule="evenodd" d="M1138.52 669.337L1125.25 661.041C1121.83 658.905 1117.26 659.934 1115.15 663.313L1104.46 680.418C1102.34 683.797 1103.41 688.309 1106.83 690.445L1124.14 701.257C1127.55 703.393 1132.08 702.376 1134.19 698.997L1142.09 686.351C1146.68 679.268 1148.74 679.883 1155.09 683.847L1168.11 691.982C1171.52 694.118 1176.05 693.101 1178.16 689.722L1188.85 672.617C1190.96 669.238 1189.89 664.725 1186.47 662.589L1169.17 651.778C1165.75 649.642 1161.23 650.659 1159.12 654.038L1152.22 665.075C1147.98 671.851 1145.98 673.993 1138.52 669.337Z" fill="#3A3080"/>
<path fill-rule="evenodd" clip-rule="evenodd" d="M1139.48 633.228L1150.58 640.16C1152.77 641.53 1153.44 644.443 1152.07 646.635L1145.14 657.727C1143.77 659.919 1140.86 660.591 1138.67 659.222L1127.57 652.29C1125.38 650.92 1124.71 648.007 1126.08 645.816L1133.01 634.723C1134.38 632.531 1137.29 631.859 1139.48 633.228Z" fill="#748288"/>
<path fill-rule="evenodd" clip-rule="evenodd" d="M1161.88 702.122L1152.37 696.181C1150.49 695.007 1147.99 695.583 1146.82 697.462L1140.88 706.97C1139.7 708.848 1140.28 711.345 1142.16 712.519L1151.67 718.461C1153.55 719.635 1156.04 719.058 1157.22 717.18L1163.16 707.672C1164.33 705.793 1163.76 703.296 1161.88 702.122Z" fill="#748288"/>
</g>
<g opacity="0.831416">
<path fill-rule="evenodd" clip-rule="evenodd" d="M1219.33 668.787L1206.66 659.586C1203.4 657.217 1198.77 657.924 1196.43 661.147L1184.57 677.465C1182.23 680.689 1182.98 685.265 1186.24 687.634L1202.75 699.626C1206.01 701.995 1210.59 701.296 1212.93 698.073L1221.7 686.009C1226.77 679.264 1228.78 680.021 1234.84 684.418L1247.26 693.441C1250.52 695.811 1255.1 695.112 1257.44 691.888L1269.3 675.571C1271.64 672.347 1270.89 667.77 1267.63 665.401L1251.12 653.409C1247.86 651.04 1243.28 651.739 1240.94 654.963L1233.29 665.491C1228.59 671.956 1226.44 673.952 1219.33 668.787Z" fill="#3A3080"/>
<path fill-rule="evenodd" clip-rule="evenodd" d="M1222.8 632.834L1233.39 640.522C1235.48 642.041 1235.94 644.995 1234.43 647.085L1226.74 657.668C1225.22 659.758 1222.27 660.226 1220.17 658.707L1209.59 651.018C1207.5 649.499 1207.03 646.546 1208.55 644.455L1216.24 633.873C1217.76 631.783 1220.71 631.315 1222.8 632.834Z" fill="#748288"/>
<path fill-rule="evenodd" clip-rule="evenodd" d="M1240.34 703.122L1231.26 696.532C1229.47 695.23 1226.94 695.63 1225.64 697.423L1219.05 706.493C1217.75 708.285 1218.15 710.816 1219.94 712.118L1229.01 718.709C1230.8 720.011 1233.33 719.61 1234.64 717.818L1241.23 708.747C1242.53 706.955 1242.13 704.424 1240.34 703.122Z" fill="#748288"/>
</g>
<g opacity="0.719711">
<path fill-rule="evenodd" clip-rule="evenodd" d="M1300.16 668.275L1288.17 658.213C1285.08 655.622 1280.41 656.004 1277.85 659.056L1264.89 674.507C1262.32 677.559 1262.76 682.177 1265.84 684.768L1281.47 697.882C1284.56 700.473 1289.18 700.096 1291.74 697.043L1301.33 685.62C1306.86 679.246 1308.82 680.141 1314.55 684.95L1326.31 694.817C1329.39 697.408 1334.02 697.031 1336.58 693.978L1349.54 678.528C1352.1 675.475 1351.67 670.858 1348.58 668.267L1332.96 655.152C1329.87 652.561 1325.25 652.939 1322.68 655.991L1314.32 665.961C1309.18 672.082 1306.89 673.923 1300.16 668.275Z" fill="#3A3080"/>
<path fill-rule="evenodd" clip-rule="evenodd" d="M1306.14 632.652L1316.16 641.06C1318.14 642.721 1318.4 645.7 1316.74 647.679L1308.33 657.699C1306.67 659.679 1303.69 659.939 1301.71 658.278L1291.69 649.87C1289.71 648.209 1289.45 645.23 1291.11 643.251L1299.52 633.231C1301.18 631.251 1304.16 630.99 1306.14 632.652Z" fill="#748288"/>
<path fill-rule="evenodd" clip-rule="evenodd" d="M1318.73 703.991L1310.14 696.784C1308.44 695.36 1305.89 695.584 1304.46 697.281L1297.26 705.869C1295.83 707.566 1296.06 710.119 1297.75 711.543L1306.34 718.75C1308.04 720.174 1310.59 719.95 1312.02 718.254L1319.22 709.665C1320.65 707.968 1320.42 705.415 1318.73 703.991Z" fill="#748288"/>
</g>
<g opacity="0.328145">
<path fill-rule="evenodd" clip-rule="evenodd" d="M1381.03 667.803L1369.77 656.929C1366.87 654.129 1362.19 654.184 1359.42 657.05L1345.41 671.559C1342.64 674.426 1342.75 679.062 1345.65 681.862L1360.32 696.035C1363.22 698.835 1367.86 698.78 1370.63 695.914L1380.99 685.187C1386.95 679.215 1388.84 680.244 1394.22 685.441L1405.26 696.105C1408.16 698.905 1412.8 698.851 1415.57 695.984L1429.58 681.475C1432.34 678.609 1432.24 673.973 1429.34 671.173L1414.66 657C1411.76 654.2 1407.12 654.254 1404.36 657.121L1395.32 666.482C1389.77 672.23 1387.35 673.907 1381.03 667.803Z" fill="#3A3080"/>
<path fill-rule="evenodd" clip-rule="evenodd" d="M1389.48 632.683L1398.89 641.77C1400.75 643.565 1400.8 646.555 1399.01 648.414L1389.92 657.823C1388.12 659.682 1385.13 659.734 1383.28 657.939L1373.87 648.852C1372.01 647.057 1371.95 644.067 1373.75 642.208L1382.84 632.799C1384.63 630.941 1387.62 630.888 1389.48 632.683Z" fill="#748288"/>
<path fill-rule="evenodd" clip-rule="evenodd" d="M1397.06 704.728L1388.99 696.939C1387.4 695.4 1384.84 695.445 1383.3 697.038L1375.51 705.103C1373.97 706.696 1374.02 709.259 1375.61 710.798L1383.68 718.587C1385.27 720.125 1387.83 720.08 1389.37 718.487L1397.16 710.422C1398.7 708.829 1398.65 706.267 1397.06 704.728Z" fill="#748288"/>
</g>
<g opacity="0.164007">
<path fill-rule="evenodd" clip-rule="evenodd" d="M1461.94 667.374L1451.46 655.741C1448.77 652.746 1444.09 652.473 1441.13 655.139L1426.14 668.636C1423.18 671.302 1422.96 675.935 1425.66 678.93L1439.31 694.092C1442.01 697.088 1446.63 697.357 1449.6 694.691L1460.68 684.713C1467.04 679.17 1468.85 680.328 1473.86 685.888L1484.13 697.297C1486.83 700.292 1491.46 700.562 1494.42 697.895L1509.41 684.399C1512.37 681.733 1512.59 677.1 1509.89 674.105L1496.24 658.943C1493.54 655.947 1488.91 655.678 1485.95 658.345L1476.28 667.052C1470.34 672.399 1467.82 673.904 1461.94 667.374Z" fill="#3A3080"/>
</g>
<g opacity="0.0483215">
<path fill-rule="evenodd" clip-rule="evenodd" d="M585.354 585.415L583.717 569.847C583.296 565.839 579.67 562.868 575.708 563.284L555.648 565.393C551.685 565.809 548.788 569.43 549.209 573.439L551.342 593.73C551.763 597.738 555.35 600.677 559.313 600.261L574.143 598.702C582.552 597.961 583.334 599.961 584.116 607.401L585.721 622.669C586.142 626.677 589.73 629.617 593.692 629.2L613.751 627.092C617.714 626.675 620.612 623.054 620.191 619.046L618.058 598.755C617.637 594.746 614.05 591.807 610.087 592.224L597.144 593.584C589.197 594.419 586.272 594.154 585.354 585.415Z" fill="#3A3080"/>
<path fill-rule="evenodd" clip-rule="evenodd" d="M614.399 563.942L615.767 576.952C616.037 579.522 614.155 581.846 611.585 582.116L598.576 583.483C596.006 583.753 593.683 581.871 593.413 579.301L592.045 566.292C591.775 563.722 593.657 561.398 596.227 561.128L609.235 559.761C611.805 559.49 614.129 561.372 614.399 563.942Z" fill="#748288"/>
<path fill-rule="evenodd" clip-rule="evenodd" d="M573.895 624.003L572.723 612.852C572.492 610.649 570.5 609.036 568.297 609.267L557.147 610.439C554.944 610.671 553.331 612.662 553.563 614.866L554.735 626.017C554.966 628.219 556.958 629.832 559.161 629.601L570.311 628.429C572.514 628.197 574.127 626.206 573.895 624.003Z" fill="#748288"/>
</g>
<g opacity="0.985423">
<path fill-rule="evenodd" clip-rule="evenodd" d="M909.43 586.015L912.148 570.599C912.848 566.629 910.181 562.774 906.258 562.082L886.394 558.58C882.47 557.888 878.687 560.57 877.987 564.54L874.444 584.632C873.744 588.602 876.382 592.416 880.306 593.108L894.991 595.697C903.278 597.302 903.479 599.44 902.18 606.808L899.515 621.926C898.815 625.896 901.452 629.71 905.377 630.402L925.24 633.904C929.164 634.596 932.948 631.915 933.648 627.945L937.191 607.852C937.89 603.883 935.252 600.069 931.328 599.377L918.512 597.117C910.643 595.73 907.904 594.669 909.43 586.015Z" fill="#3A3080"/>
<path fill-rule="evenodd" clip-rule="evenodd" d="M943.267 573.38L940.996 586.262C940.547 588.807 938.097 590.522 935.552 590.073L922.671 587.802C920.126 587.353 918.411 584.904 918.86 582.359L921.132 569.477C921.58 566.931 924.029 565.216 926.574 565.665L939.456 567.937C942.001 568.385 943.716 570.835 943.267 573.38Z" fill="#748288"/>
<path fill-rule="evenodd" clip-rule="evenodd" d="M887.781 619.949L889.728 608.907C890.113 606.725 888.643 604.626 886.462 604.241L875.42 602.295C873.239 601.91 871.14 603.38 870.755 605.562L868.808 616.603C868.423 618.785 869.894 620.884 872.075 621.269L883.116 623.216C885.298 623.6 887.397 622.13 887.781 619.949Z" fill="#748288"/>
</g>
<g opacity="0.597538">
<path fill-rule="evenodd" clip-rule="evenodd" d="M990.414 586.292L994.201 571.103C995.176 567.192 992.785 563.16 988.919 562.196L969.348 557.317C965.482 556.353 961.521 558.764 960.545 562.675L955.61 582.472C954.635 586.383 957 590.372 960.866 591.336L975.335 594.943C983.49 597.122 983.542 599.27 981.732 606.529L978.018 621.424C977.043 625.335 979.408 629.324 983.275 630.288L1002.84 635.168C1006.71 636.132 1010.67 633.72 1011.65 629.809L1016.58 610.013C1017.56 606.102 1015.19 602.113 1011.33 601.149L998.7 598.001C990.946 596.067 988.288 594.818 990.414 586.292Z" fill="#3A3080"/>
<path fill-rule="evenodd" clip-rule="evenodd" d="M1025.05 576.048L1021.89 588.74C1021.26 591.248 1018.7 592.788 1016.19 592.163L1003.5 588.998C1000.99 588.373 999.452 585.81 1000.08 583.303L1003.24 570.61C1003.87 568.103 1006.43 566.563 1008.94 567.188L1021.63 570.352C1024.14 570.977 1025.68 573.54 1025.05 576.048Z" fill="#748288"/>
<path fill-rule="evenodd" clip-rule="evenodd" d="M966.451 618.633L969.163 607.754C969.699 605.605 968.379 603.408 966.23 602.872L955.352 600.16C953.202 599.624 951.006 600.944 950.47 603.093L947.757 613.973C947.221 616.122 948.541 618.319 950.69 618.854L961.569 621.567C963.718 622.103 965.915 620.783 966.451 618.633Z" fill="#748288"/>
</g>
<g opacity="0.949687">
<path fill-rule="evenodd" clip-rule="evenodd" d="M1071.38 586.617L1076.21 571.73C1077.46 567.896 1075.35 563.707 1071.57 562.476L1052.38 556.243C1048.59 555.012 1044.47 557.141 1043.23 560.975L1036.92 580.379C1035.68 584.212 1037.76 588.356 1041.55 589.588L1055.73 594.196C1063.71 596.938 1063.62 599.084 1061.3 606.199L1056.56 620.799C1055.31 624.633 1057.4 628.777 1061.18 630.008L1080.37 636.241C1084.16 637.472 1088.28 635.343 1089.52 631.51L1095.83 612.106C1097.07 608.272 1094.99 604.128 1091.2 602.897L1078.82 598.875C1071.22 596.406 1068.66 594.974 1071.38 586.617Z" fill="#3A3080"/>
<path fill-rule="evenodd" clip-rule="evenodd" d="M1106.64 578.815L1102.6 591.256C1101.8 593.713 1099.14 595.071 1096.68 594.272L1084.24 590.23C1081.78 589.432 1080.42 586.768 1081.22 584.31L1085.27 571.869C1086.06 569.411 1088.73 568.054 1091.19 568.852L1103.63 572.894C1106.08 573.693 1107.44 576.357 1106.64 578.815Z" fill="#748288"/>
<path fill-rule="evenodd" clip-rule="evenodd" d="M1045.21 617.208L1048.68 606.545C1049.36 604.438 1048.2 602.154 1046.09 601.47L1035.43 598.005C1033.32 597.321 1031.04 598.484 1030.35 600.591L1026.89 611.254C1026.21 613.361 1027.37 615.645 1029.48 616.329L1040.14 619.794C1042.25 620.478 1044.53 619.315 1045.21 617.208Z" fill="#748288"/>
</g>
<g opacity="0.605663">
<path fill-rule="evenodd" clip-rule="evenodd" d="M1152.31 586.989L1158.18 572.475C1159.69 568.738 1157.88 564.413 1154.19 562.92L1135.49 555.364C1131.79 553.872 1127.53 555.708 1126.02 559.446L1118.38 578.363C1116.87 582.1 1118.66 586.379 1122.35 587.872L1136.18 593.458C1143.95 596.751 1143.7 598.884 1140.9 605.821L1135.15 620.054C1133.64 623.792 1135.43 628.071 1139.12 629.564L1157.82 637.119C1161.52 638.612 1165.77 636.775 1167.28 633.038L1174.93 614.121C1176.44 610.384 1174.65 606.105 1170.96 604.612L1158.89 599.737C1151.48 596.744 1149.02 595.137 1152.31 586.989Z" fill="#3A3080"/>
<path fill-rule="evenodd" clip-rule="evenodd" d="M1188.04 581.666L1183.14 593.794C1182.17 596.191 1179.42 597.359 1177.02 596.391L1164.89 591.491C1162.5 590.523 1161.33 587.771 1162.3 585.374L1167.2 573.246C1168.17 570.85 1170.92 569.681 1173.32 570.649L1185.44 575.549C1187.84 576.517 1189.01 579.27 1188.04 581.666Z" fill="#748288"/>
<path fill-rule="evenodd" clip-rule="evenodd" d="M1124.08 615.681L1128.28 605.285C1129.11 603.231 1128.11 600.872 1126.06 600.042L1115.66 595.842C1113.61 595.012 1111.25 596.013 1110.42 598.068L1106.22 608.463C1105.39 610.517 1106.39 612.876 1108.45 613.706L1118.84 617.906C1120.89 618.736 1123.25 617.734 1124.08 615.681Z" fill="#748288"/>
</g>
<g opacity="0.0727671">
<path fill-rule="evenodd" clip-rule="evenodd" d="M1233.22 587.407L1240.09 573.337C1241.85 569.714 1240.35 565.274 1236.77 563.527L1218.64 554.685C1215.06 552.938 1210.69 554.474 1208.92 558.096L1199.98 576.434C1198.21 580.057 1199.69 584.45 1203.27 586.197L1216.68 592.734C1224.2 596.561 1223.8 598.672 1220.52 605.396L1213.8 619.194C1212.03 622.817 1213.51 627.21 1217.09 628.957L1235.22 637.799C1238.8 639.546 1243.18 638.011 1244.95 634.388L1253.89 616.05C1255.66 612.427 1254.17 608.034 1250.59 606.287L1238.9 600.582C1231.71 597.079 1229.37 595.305 1233.22 587.407Z" fill="#3A3080"/>
<path fill-rule="evenodd" clip-rule="evenodd" d="M1269.24 584.588L1263.5 596.345C1262.37 598.668 1259.54 599.641 1257.22 598.509L1245.46 592.775C1243.14 591.642 1242.17 588.815 1243.3 586.492L1249.03 574.735C1250.17 572.412 1252.99 571.439 1255.32 572.571L1267.07 578.305C1269.39 579.438 1270.37 582.265 1269.24 584.588Z" fill="#748288"/>
<path fill-rule="evenodd" clip-rule="evenodd" d="M1203.06 614.059L1207.97 603.982C1208.94 601.99 1208.11 599.567 1206.12 598.596L1196.04 593.681C1194.05 592.71 1191.63 593.545 1190.66 595.536L1185.74 605.613C1184.77 607.604 1185.61 610.028 1187.6 610.998L1197.67 615.913C1199.66 616.884 1202.09 616.05 1203.06 614.059Z" fill="#748288"/>
</g>
<g opacity="0.645811">
<path fill-rule="evenodd" clip-rule="evenodd" d="M1314.11 587.867L1321.93 574.31C1323.95 570.82 1322.76 566.285 1319.31 564.293L1301.84 554.208C1298.39 552.216 1293.92 553.442 1291.91 556.933L1281.7 574.602C1279.69 578.093 1280.86 582.579 1284.31 584.571L1297.23 592.027C1304.47 596.369 1303.92 598.448 1300.18 604.927L1292.51 618.222C1290.49 621.712 1291.67 626.199 1295.12 628.191L1312.58 638.276C1316.04 640.268 1320.51 639.042 1322.52 635.551L1332.73 617.882C1334.74 614.391 1333.57 609.905 1330.11 607.913L1318.84 601.406C1311.92 597.411 1309.71 595.477 1314.11 587.867Z" fill="#3A3080"/>
<path fill-rule="evenodd" clip-rule="evenodd" d="M1350.23 587.567L1343.69 598.896C1342.39 601.134 1339.5 601.908 1337.27 600.616L1325.94 594.075C1323.7 592.783 1322.93 589.895 1324.22 587.657L1330.76 576.329C1332.05 574.091 1334.94 573.317 1337.18 574.609L1348.51 581.149C1350.74 582.441 1351.52 585.329 1350.23 587.567Z" fill="#748288"/>
<path fill-rule="evenodd" clip-rule="evenodd" d="M1282.16 612.35L1287.76 602.64C1288.87 600.722 1288.21 598.246 1286.29 597.138L1276.58 591.533C1274.66 590.425 1272.19 591.088 1271.08 593.007L1265.47 602.717C1264.37 604.635 1265.03 607.111 1266.95 608.219L1276.66 613.824C1278.58 614.932 1281.05 614.269 1282.16 612.35Z" fill="#748288"/>
</g>
<g opacity="0.0200561">
<path fill-rule="evenodd" clip-rule="evenodd" d="M1394.95 588.368L1403.7 575.391C1405.96 572.049 1405.09 567.443 1401.79 565.215L1385.07 553.936C1381.76 551.708 1377.21 552.619 1374.96 555.961L1363.55 572.875C1361.3 576.217 1362.16 580.774 1365.46 583.002L1377.82 591.341C1384.74 596.177 1384.05 598.213 1379.87 604.415L1371.29 617.142C1369.03 620.484 1369.89 625.041 1373.19 627.269L1389.92 638.548C1393.22 640.776 1397.77 639.865 1400.02 636.524L1411.43 619.609C1413.68 616.267 1412.82 611.71 1409.52 609.482L1398.73 602.205C1392.11 597.736 1390.04 595.653 1394.95 588.368Z" fill="#3A3080"/>
<path fill-rule="evenodd" clip-rule="evenodd" d="M1431 590.589L1423.69 601.434C1422.24 603.576 1419.31 604.147 1417.17 602.702L1406.32 595.387C1404.18 593.942 1403.61 591.007 1405.06 588.865L1412.37 578.02C1413.82 575.878 1416.75 575.307 1418.89 576.752L1429.74 584.066C1431.88 585.511 1432.45 588.447 1431 590.589Z" fill="#748288"/>
<path fill-rule="evenodd" clip-rule="evenodd" d="M1361.37 610.563L1367.64 601.268C1368.88 599.431 1368.39 596.915 1366.55 595.677L1357.26 589.407C1355.42 588.169 1352.91 588.658 1351.67 590.494L1345.4 599.79C1344.16 601.626 1344.65 604.142 1346.48 605.38L1355.78 611.65C1357.61 612.889 1360.13 612.4 1361.37 610.563Z" fill="#748288"/>
</g>
<g opacity="0.926767">
<path fill-rule="evenodd" clip-rule="evenodd" d="M1475.76 588.908L1485.4 576.572C1487.88 573.396 1487.34 568.74 1484.2 566.287L1468.3 553.87C1465.16 551.416 1460.56 552.008 1458.08 555.184L1445.52 571.262C1443.04 574.438 1443.58 579.044 1446.72 581.497L1458.47 590.678C1465.03 595.986 1464.21 597.968 1459.6 603.864L1450.15 615.961C1447.67 619.137 1448.21 623.743 1451.35 626.196L1467.24 638.614C1470.38 641.067 1474.98 640.476 1477.46 637.299L1490.02 621.222C1492.5 618.046 1491.97 613.44 1488.83 610.986L1478.57 602.974C1472.27 598.055 1470.35 595.832 1475.76 588.908Z" fill="#3A3080"/>
<path fill-rule="evenodd" clip-rule="evenodd" d="M1440.72 608.706L1447.62 599.871C1448.98 598.125 1448.67 595.581 1446.93 594.217L1438.09 587.315C1436.35 585.951 1433.8 586.263 1432.44 588.009L1425.54 596.845C1424.17 598.59 1424.48 601.134 1426.23 602.497L1435.06 609.4C1436.81 610.764 1439.35 610.451 1440.72 608.706Z" fill="#748288"/>
</g>
<g opacity="0.0502465">
<path fill-rule="evenodd" clip-rule="evenodd" d="M595.474 514.73L610.522 510.416C614.396 509.305 616.692 505.218 615.594 501.388L610.035 481.999C608.936 478.169 604.867 475.944 600.993 477.055L581.38 482.679C577.506 483.79 575.234 487.833 576.333 491.663L580.443 505.998C582.633 514.149 580.799 515.268 573.608 517.33L558.851 521.561C554.976 522.672 552.704 526.715 553.803 530.546L559.362 549.934C560.461 553.764 564.53 555.989 568.404 554.878L588.017 549.255C591.891 548.144 594.163 544.1 593.064 540.27L589.477 527.76C587.275 520.079 587.028 517.152 595.474 514.73Z" fill="#3A3080"/>
<path fill-rule="evenodd" clip-rule="evenodd" d="M621.665 539.606L609.091 543.212C606.607 543.924 603.991 542.474 603.279 539.99L599.674 527.417C598.961 524.933 600.411 522.318 602.895 521.605L615.47 518C617.954 517.287 620.569 518.737 621.281 521.221L624.887 533.794C625.599 536.278 624.149 538.894 621.665 539.606Z" fill="#748288"/>
<path fill-rule="evenodd" clip-rule="evenodd" d="M555.484 510.147L566.262 507.057C568.392 506.446 569.634 504.205 569.024 502.075L565.934 491.298C565.323 489.169 563.082 487.926 560.952 488.537L550.174 491.628C548.045 492.238 546.802 494.48 547.413 496.609L550.503 507.386C551.114 509.515 553.355 510.758 555.484 510.147Z" fill="#748288"/>
</g>
<g opacity="0.293484">
<path fill-rule="evenodd" clip-rule="evenodd" d="M917.13 518.259H932.683C936.688 518.259 940 515.005 940 511.071V491.154C940 487.219 936.723 484 932.718 484H912.447C908.442 484 905.166 487.219 905.166 491.154V505.879C905.025 514.213 902.968 514.775 895.534 514.775H880.282C876.277 514.775 873 517.994 873 521.929V541.846C873 545.78 876.277 549 880.282 549H900.553C904.558 549 907.834 545.78 907.834 541.846V528.995C907.834 521.105 908.4 518.259 917.13 518.259Z" fill="#3A3080"/>
<path fill-rule="evenodd" clip-rule="evenodd" d="M935.333 549H922.336C919.769 549 917.668 546.912 917.668 544.36V531.444C917.668 528.893 919.769 526.805 922.336 526.805H935.333C937.901 526.805 940.001 528.893 940.001 531.444V544.36C940.001 546.912 937.901 549 935.333 549Z" fill="#748288"/>
<path fill-rule="evenodd" clip-rule="evenodd" d="M880.193 503.024H891.333C893.534 503.024 895.334 501.235 895.334 499.048V487.977C895.334 485.79 893.534 484 891.333 484H880.193C877.992 484 876.191 485.79 876.191 487.977V499.048C876.191 501.235 877.992 503.024 880.193 503.024Z" fill="#748288"/>
</g>
<g opacity="0.309301">
<path fill-rule="evenodd" clip-rule="evenodd" d="M996.644 518.49L1012.26 519.582C1016.28 519.863 1019.84 516.809 1020.11 512.834L1021.52 492.713C1021.8 488.738 1018.74 485.256 1014.72 484.975L994.362 483.551C990.341 483.27 986.824 486.292 986.546 490.267L985.506 505.143C984.776 513.552 982.67 513.976 975.207 513.454L959.893 512.383C955.872 512.102 952.354 515.124 952.076 519.099L950.669 539.22C950.392 543.195 953.454 546.677 957.475 546.959L977.828 548.382C981.849 548.663 985.366 545.64 985.644 541.665L986.552 528.683C987.109 520.712 987.878 517.877 996.644 518.49Z" fill="#3A3080"/>
<path fill-rule="evenodd" clip-rule="evenodd" d="M1012.75 550.824L999.699 549.911C997.121 549.731 995.159 547.474 995.339 544.896L996.252 531.848C996.432 529.27 998.689 527.309 1001.27 527.489L1014.32 528.401C1016.89 528.582 1018.86 530.838 1018.68 533.416L1017.76 546.464C1017.58 549.042 1015.33 551.004 1012.75 550.824Z" fill="#748288"/>
<path fill-rule="evenodd" clip-rule="evenodd" d="M960.635 500.506L971.82 501.288C974.03 501.443 975.964 499.761 976.118 497.552L976.9 486.367C977.055 484.158 975.373 482.224 973.163 482.069L961.979 481.287C959.769 481.132 957.835 482.814 957.68 485.023L956.898 496.208C956.744 498.417 958.425 500.352 960.635 500.506Z" fill="#748288"/>
</g>
<g opacity="0.692281">
<path fill-rule="evenodd" clip-rule="evenodd" d="M1076.72 519.22L1092.22 521.399C1096.22 521.96 1099.98 519.16 1100.53 515.215L1103.34 495.241C1103.89 491.295 1101.08 487.608 1097.09 487.047L1076.88 484.207C1072.89 483.646 1069.17 486.416 1068.62 490.362L1066.54 505.128C1065.23 513.466 1063.1 513.742 1055.69 512.701L1040.49 510.564C1036.5 510.003 1032.78 512.773 1032.22 516.719L1029.41 536.692C1028.86 540.638 1031.67 544.326 1035.66 544.887L1055.87 547.726C1059.86 548.287 1063.58 545.517 1064.13 541.571L1065.94 528.684C1067.06 520.771 1068.02 517.997 1076.72 519.22Z" fill="#3A3080"/>
<path fill-rule="evenodd" clip-rule="evenodd" d="M1090.53 552.598L1077.58 550.777C1075.02 550.418 1073.22 548.03 1073.58 545.471L1075.4 532.518C1075.76 529.959 1078.15 528.159 1080.71 528.519L1093.66 530.34C1096.22 530.699 1098.02 533.087 1097.66 535.646L1095.84 548.599C1095.48 551.158 1093.09 552.958 1090.53 552.598Z" fill="#748288"/>
<path fill-rule="evenodd" clip-rule="evenodd" d="M1042.05 498.768L1053.16 500.328C1055.35 500.636 1057.4 499.094 1057.71 496.9L1059.27 485.798C1059.58 483.605 1058.03 481.558 1055.84 481.249L1044.74 479.689C1042.54 479.381 1040.5 480.923 1040.19 483.117L1038.63 494.219C1038.32 496.413 1039.86 498.459 1042.05 498.768Z" fill="#748288"/>
</g>
<g opacity="0.339601">
<path fill-rule="evenodd" clip-rule="evenodd" d="M1156.75 519.934L1172.06 523.189C1176 524.027 1179.95 521.497 1180.78 517.599L1184.97 497.87C1185.8 493.972 1183.25 490.098 1179.31 489.26L1159.35 485.018C1155.41 484.18 1151.51 486.683 1150.68 490.581L1147.58 505.167C1145.69 513.393 1143.54 513.519 1136.22 511.964L1121.21 508.772C1117.26 507.934 1113.36 510.437 1112.53 514.335L1108.34 534.063C1107.51 537.961 1110.06 541.836 1114 542.674L1133.96 546.916C1137.9 547.754 1141.8 545.251 1142.63 541.353L1145.34 528.624C1147 520.807 1148.16 518.107 1156.75 519.934Z" fill="#3A3080"/>
<path fill-rule="evenodd" clip-rule="evenodd" d="M1168.2 554.194L1155.4 551.474C1152.87 550.937 1151.24 548.429 1151.78 545.902L1154.5 533.107C1155.04 530.58 1157.55 528.951 1160.07 529.489L1172.87 532.208C1175.4 532.746 1177.03 535.253 1176.49 537.781L1173.77 550.575C1173.23 553.103 1170.72 554.731 1168.2 554.194Z" fill="#748288"/>
<path fill-rule="evenodd" clip-rule="evenodd" d="M1123.59 497.113L1134.56 499.444C1136.73 499.905 1138.88 498.509 1139.34 496.342L1141.67 485.376C1142.13 483.209 1140.73 481.06 1138.56 480.599L1127.6 478.268C1125.43 477.808 1123.28 479.204 1122.82 481.37L1120.49 492.337C1120.03 494.503 1121.42 496.653 1123.59 497.113Z" fill="#748288"/>
</g>
<g opacity="0.942858">
<path fill-rule="evenodd" clip-rule="evenodd" d="M1236.73 520.629L1251.77 524.943C1255.65 526.055 1259.76 523.806 1260.86 519.976L1266.42 500.587C1267.52 496.757 1265.25 492.714 1261.37 491.603L1241.76 485.979C1237.88 484.868 1233.81 487.093 1232.72 490.923L1228.61 505.257C1226.14 513.331 1224 513.308 1216.8 511.246L1202.05 507.014C1198.17 505.903 1194.1 508.128 1193.01 511.958L1187.45 531.346C1186.35 535.177 1188.62 539.22 1192.49 540.331L1212.11 545.955C1215.98 547.066 1220.05 544.841 1221.15 541.01L1224.74 528.501C1226.94 520.82 1228.28 518.207 1236.73 520.629Z" fill="#3A3080"/>
<path fill-rule="evenodd" clip-rule="evenodd" d="M1245.75 555.603L1233.18 551.998C1230.7 551.285 1229.25 548.67 1229.96 546.186L1233.56 533.613C1234.28 531.129 1236.89 529.679 1239.38 530.391L1251.95 533.997C1254.43 534.709 1255.88 537.324 1255.17 539.808L1251.57 552.382C1250.85 554.866 1248.24 556.316 1245.75 555.603Z" fill="#748288"/>
<path fill-rule="evenodd" clip-rule="evenodd" d="M1205.24 495.55L1216.02 498.641C1218.15 499.251 1220.39 498.009 1221 495.879L1224.09 485.102C1224.7 482.973 1223.46 480.731 1221.33 480.121L1210.55 477.03C1208.42 476.42 1206.18 477.662 1205.57 479.792L1202.48 490.569C1201.87 492.698 1203.11 494.939 1205.24 495.55Z" fill="#748288"/>
</g>
<g opacity="0.798272">
<path fill-rule="evenodd" clip-rule="evenodd" d="M1316.66 521.3L1331.37 526.654C1335.16 528.033 1339.42 526.076 1340.78 522.332L1347.68 503.379C1349.04 499.634 1347.06 495.443 1343.27 494.064L1324.1 487.086C1320.31 485.708 1316.09 487.643 1314.73 491.388L1309.63 505.4C1306.61 513.283 1304.47 513.109 1297.44 510.551L1283.01 505.3C1279.23 503.921 1275.01 505.857 1273.65 509.601L1266.75 528.554C1265.39 532.299 1267.37 536.491 1271.16 537.869L1290.33 544.848C1294.12 546.226 1298.33 544.29 1299.7 540.546L1304.15 528.317C1306.88 520.808 1308.4 518.295 1316.66 521.3Z" fill="#3A3080"/>
<path fill-rule="evenodd" clip-rule="evenodd" d="M1323.23 556.82L1310.93 552.346C1308.51 551.462 1307.24 548.752 1308.13 546.323L1312.6 534.032C1313.48 531.604 1316.19 530.34 1318.62 531.224L1330.91 535.698C1333.34 536.582 1334.61 539.292 1333.72 541.72L1329.25 554.011C1328.37 556.44 1325.66 557.704 1323.23 556.82Z" fill="#748288"/>
<path fill-rule="evenodd" clip-rule="evenodd" d="M1287 494.087L1297.54 497.922C1299.62 498.679 1301.94 497.596 1302.7 495.515L1306.53 484.979C1307.29 482.898 1306.21 480.575 1304.12 479.817L1293.59 475.983C1291.51 475.225 1289.18 476.308 1288.43 478.39L1284.59 488.925C1283.83 491.007 1284.92 493.329 1287 494.087Z" fill="#748288"/>
</g>
<g opacity="0.595761">
<path fill-rule="evenodd" clip-rule="evenodd" d="M1396.54 521.946L1410.84 528.313C1414.53 529.952 1418.91 528.298 1420.53 524.658L1428.74 506.232C1430.36 502.591 1428.67 498.272 1424.99 496.632L1406.35 488.334C1402.67 486.694 1398.33 488.331 1396.71 491.971L1390.64 505.594C1387.08 513.247 1384.96 512.925 1378.12 509.882L1364.1 503.638C1360.42 501.998 1356.08 503.635 1354.46 507.275L1346.25 525.701C1344.63 529.341 1346.32 533.661 1350 535.301L1368.64 543.599C1372.32 545.239 1376.66 543.601 1378.28 539.961L1383.57 528.073C1386.82 520.773 1388.52 518.372 1396.54 521.946Z" fill="#3A3080"/>
<path fill-rule="evenodd" clip-rule="evenodd" d="M1400.62 557.837L1388.67 552.517C1386.31 551.465 1385.24 548.674 1386.29 546.313L1391.61 534.364C1392.66 532.003 1395.45 530.932 1397.81 531.983L1409.76 537.303C1412.12 538.354 1413.19 541.146 1412.14 543.506L1406.82 555.456C1405.77 557.816 1402.98 558.888 1400.62 557.837Z" fill="#748288"/>
<path fill-rule="evenodd" clip-rule="evenodd" d="M1368.85 492.73L1379.1 497.29C1381.12 498.191 1383.51 497.273 1384.42 495.249L1388.98 485.007C1389.88 482.984 1388.96 480.591 1386.93 479.69L1376.69 475.129C1374.67 474.228 1372.27 475.147 1371.37 477.171L1366.81 487.413C1365.91 489.436 1366.83 491.829 1368.85 492.73Z" fill="#748288"/>
</g>
<g opacity="0.748396">
<path fill-rule="evenodd" clip-rule="evenodd" d="M1476.38 522.563L1490.2 529.912C1493.76 531.804 1498.25 530.46 1500.12 526.942L1509.59 509.133C1511.46 505.614 1510.08 501.187 1506.52 499.295L1488.51 489.717C1484.95 487.824 1480.51 489.155 1478.64 492.673L1471.64 505.839C1467.55 513.225 1465.45 512.755 1458.85 509.243L1445.29 502.036C1441.73 500.143 1437.29 501.474 1435.42 504.992L1425.95 522.801C1424.08 526.319 1425.46 530.746 1429.02 532.638L1447.04 542.217C1450.6 544.109 1455.04 542.779 1456.91 539.26L1463.02 527.77C1466.77 520.715 1468.62 518.438 1476.38 522.563Z" fill="#3A3080"/>
</g>
<g opacity="0.6767">
<path fill-rule="evenodd" clip-rule="evenodd" d="M1144.5 446.322L1143.95 461.966C1143.81 465.995 1146.99 469.441 1150.97 469.58L1171.13 470.284C1175.11 470.423 1178.48 467.241 1178.63 463.213L1179.34 442.822C1179.48 438.794 1176.34 435.384 1172.35 435.245L1157.45 434.725C1149.02 434.289 1148.52 432.199 1148.78 424.722L1149.32 409.38C1149.46 405.352 1146.32 401.942 1142.34 401.803L1122.18 401.099C1118.2 400.96 1114.82 404.142 1114.68 408.171L1113.97 428.561C1113.83 432.589 1116.97 435.999 1120.95 436.138L1133.96 436.592C1141.95 436.871 1144.81 437.54 1144.5 446.322Z" fill="#3A3080"/>
<path fill-rule="evenodd" clip-rule="evenodd" d="M1112.75 463.544L1113.2 450.471C1113.29 447.888 1115.48 445.849 1118.06 445.939L1131.14 446.396C1133.72 446.486 1135.76 448.673 1135.67 451.256L1135.21 464.329C1135.12 466.911 1132.93 468.951 1130.35 468.86L1117.28 468.404C1114.7 468.314 1112.66 466.127 1112.75 463.544Z" fill="#748288"/>
<path fill-rule="evenodd" clip-rule="evenodd" d="M1161.21 409.705L1160.82 420.91C1160.75 423.124 1162.49 424.999 1164.71 425.076L1175.91 425.467C1178.13 425.545 1180 423.797 1180.08 421.583L1180.47 410.377C1180.55 408.164 1178.8 406.289 1176.58 406.212L1165.38 405.821C1163.17 405.743 1161.29 407.491 1161.21 409.705Z" fill="#748288"/>
</g>
<g opacity="0.251162">
<path fill-rule="evenodd" clip-rule="evenodd" d="M1224.04 446.146L1222.41 461.714C1221.99 465.722 1224.92 469.382 1228.88 469.799L1248.94 471.907C1252.9 472.323 1256.49 469.384 1256.91 465.375L1259.04 445.084C1259.46 441.076 1256.57 437.455 1252.6 437.039L1237.77 435.48C1229.39 434.457 1229.04 432.338 1229.83 424.897L1231.43 409.63C1231.85 405.621 1228.95 402 1224.99 401.584L1204.93 399.476C1200.97 399.059 1197.38 401.998 1196.96 406.007L1194.83 426.298C1194.41 430.307 1197.3 433.927 1201.27 434.344L1214.21 435.704C1222.16 436.539 1224.96 437.407 1224.04 446.146Z" fill="#3A3080"/>
<path fill-rule="evenodd" clip-rule="evenodd" d="M1191.17 461.11L1192.54 448.101C1192.81 445.531 1195.13 443.649 1197.7 443.919L1210.71 445.287C1213.28 445.557 1215.16 447.88 1214.89 450.451L1213.52 463.46C1213.25 466.03 1210.93 467.912 1208.36 467.642L1195.35 466.274C1192.78 466.004 1190.9 463.681 1191.17 461.11Z" fill="#748288"/>
<path fill-rule="evenodd" clip-rule="evenodd" d="M1243.27 410.784L1242.1 421.935C1241.87 424.138 1243.48 426.13 1245.69 426.361L1256.84 427.533C1259.04 427.765 1261.03 426.152 1261.26 423.949L1262.43 412.798C1262.67 410.595 1261.05 408.603 1258.85 408.372L1247.7 407.2C1245.5 406.968 1243.51 408.581 1243.27 410.784Z" fill="#748288"/>
</g>
<g opacity="0.539789">
<path fill-rule="evenodd" clip-rule="evenodd" d="M1303.6 445.919L1300.88 461.335C1300.18 465.304 1302.85 469.159 1306.77 469.851L1326.64 473.354C1330.56 474.046 1334.34 471.364 1335.04 467.394L1338.59 447.301C1339.29 443.332 1336.65 439.518 1332.73 438.826L1318.04 436.237C1309.75 434.632 1309.55 432.493 1310.85 425.125L1313.52 410.007C1314.22 406.038 1311.58 402.223 1307.65 401.532L1287.79 398.029C1283.87 397.337 1280.08 400.019 1279.38 403.989L1275.84 424.081C1275.14 428.051 1277.78 431.865 1281.7 432.557L1294.52 434.816C1302.39 436.204 1305.13 437.265 1303.6 445.919Z" fill="#3A3080"/>
<path fill-rule="evenodd" clip-rule="evenodd" d="M1269.76 458.554L1272.04 445.672C1272.48 443.127 1274.93 441.412 1277.48 441.86L1290.36 444.132C1292.91 444.58 1294.62 447.03 1294.17 449.575L1291.9 462.457C1291.45 465.002 1289 466.717 1286.46 466.268L1273.58 463.997C1271.03 463.548 1269.32 461.099 1269.76 458.554Z" fill="#748288"/>
<path fill-rule="evenodd" clip-rule="evenodd" d="M1325.25 411.985L1323.3 423.026C1322.92 425.208 1324.39 427.308 1326.57 427.692L1337.61 429.639C1339.79 430.024 1341.89 428.554 1342.28 426.372L1344.22 415.33C1344.61 413.149 1343.14 411.049 1340.96 410.665L1329.92 408.718C1327.73 408.333 1325.63 409.803 1325.25 411.985Z" fill="#748288"/>
</g>
<g opacity="0.837892">
<path fill-rule="evenodd" clip-rule="evenodd" d="M1383.18 445.642L1379.39 460.83C1378.41 464.742 1380.8 468.773 1384.67 469.737L1404.24 474.617C1408.11 475.581 1412.07 473.169 1413.04 469.258L1417.98 449.462C1418.96 445.55 1416.59 441.562 1412.72 440.598L1398.25 436.99C1390.1 434.811 1390.05 432.664 1391.86 425.405L1395.57 410.509C1396.55 406.598 1394.18 402.609 1390.32 401.645L1370.74 396.766C1366.88 395.802 1362.92 398.213 1361.94 402.124L1357.01 421.921C1356.03 425.832 1358.4 429.821 1362.26 430.785L1374.89 433.933C1382.64 435.866 1385.3 437.116 1383.18 445.642Z" fill="#3A3080"/>
<path fill-rule="evenodd" clip-rule="evenodd" d="M1348.54 455.886L1351.7 443.193C1352.33 440.686 1354.89 439.146 1357.4 439.771L1370.09 442.935C1372.6 443.561 1374.14 446.123 1373.51 448.631L1370.35 461.324C1369.72 463.831 1367.16 465.371 1364.65 464.746L1351.96 461.581C1349.45 460.956 1347.91 458.393 1348.54 455.886Z" fill="#748288"/>
<path fill-rule="evenodd" clip-rule="evenodd" d="M1407.14 413.3L1404.43 424.179C1403.89 426.329 1405.21 428.526 1407.36 429.062L1418.24 431.774C1420.39 432.31 1422.58 430.99 1423.12 428.84L1425.83 417.961C1426.37 415.812 1425.05 413.615 1422.9 413.079L1412.02 410.367C1409.87 409.831 1407.67 411.151 1407.14 413.3Z" fill="#748288"/>
</g>
<g opacity="0.643415">
<path fill-rule="evenodd" clip-rule="evenodd" d="M1462.77 445.316L1457.94 460.204C1456.69 464.037 1458.79 468.226 1462.58 469.457L1481.77 475.69C1485.56 476.922 1489.68 474.792 1490.92 470.959L1497.23 451.555C1498.47 447.721 1496.39 443.577 1492.6 442.346L1478.42 437.738C1470.43 434.995 1470.53 432.85 1472.85 425.734L1477.59 411.134C1478.83 407.301 1476.75 403.157 1472.96 401.925L1453.78 395.693C1449.99 394.461 1445.87 396.59 1444.63 400.424L1438.32 419.828C1437.08 423.661 1439.16 427.805 1442.95 429.037L1455.32 433.058C1462.92 435.527 1465.49 436.959 1462.77 445.316Z" fill="#3A3080"/>
<path fill-rule="evenodd" clip-rule="evenodd" d="M1427.51 453.119L1431.55 440.678C1432.35 438.22 1435.01 436.863 1437.47 437.661L1449.91 441.703C1452.37 442.502 1453.72 445.166 1452.93 447.624L1448.88 460.065C1448.08 462.523 1445.42 463.88 1442.96 463.081L1430.52 459.039C1428.06 458.241 1426.71 455.577 1427.51 453.119Z" fill="#748288"/>
</g>
<g opacity="0.499483">
<path fill-rule="evenodd" clip-rule="evenodd" d="M1216.14 354.385L1200.52 355.477C1196.5 355.758 1193.4 359.278 1193.68 363.253L1195.09 383.374C1195.37 387.349 1198.88 390.371 1202.91 390.09L1223.26 388.666C1227.28 388.385 1230.34 384.903 1230.06 380.928L1229.02 366.052C1228.58 357.623 1230.6 356.911 1238.07 356.389L1253.38 355.318C1257.4 355.037 1260.46 351.554 1260.19 347.579L1258.78 327.459C1258.5 323.484 1254.98 320.462 1250.96 320.743L1230.61 322.166C1226.59 322.447 1223.53 325.93 1223.8 329.905L1224.71 342.887C1225.27 350.858 1224.9 353.772 1216.14 354.385Z" fill="#3A3080"/>
<path fill-rule="evenodd" clip-rule="evenodd" d="M1195.69 324.608L1208.74 323.695C1211.32 323.515 1213.57 325.477 1213.75 328.055L1214.67 341.103C1214.85 343.681 1212.88 345.937 1210.31 346.118L1197.26 347.03C1194.68 347.211 1192.42 345.249 1192.24 342.671L1191.33 329.623C1191.15 327.045 1193.11 324.788 1195.69 324.608Z" fill="#748288"/>
<path fill-rule="evenodd" clip-rule="evenodd" d="M1254.3 367.183L1243.11 367.965C1240.9 368.119 1239.22 370.053 1239.38 372.263L1240.16 383.447C1240.31 385.657 1242.25 387.339 1244.46 387.184L1255.64 386.402C1257.85 386.247 1259.53 384.313 1259.38 382.103L1258.6 370.919C1258.44 368.709 1256.51 367.028 1254.3 367.183Z" fill="#748288"/>
</g>
<g opacity="0.325777">
<path fill-rule="evenodd" clip-rule="evenodd" d="M1295.87 353.741H1280.32C1276.31 353.741 1273 356.995 1273 360.929V380.846C1273 384.781 1276.28 388 1280.28 388H1300.55C1304.56 388 1307.83 384.781 1307.83 380.846V366.121C1307.97 357.787 1310.03 357.225 1317.47 357.225H1332.72C1336.72 357.225 1340 354.006 1340 350.071V330.154C1340 326.22 1336.72 323 1332.72 323H1312.45C1308.44 323 1305.17 326.22 1305.17 330.154V343.005C1305.17 350.895 1304.6 353.741 1295.87 353.741Z" fill="#3A3080"/>
<path fill-rule="evenodd" clip-rule="evenodd" d="M1277.67 323H1290.66C1293.23 323 1295.33 325.088 1295.33 327.64V340.556C1295.33 343.107 1293.23 345.195 1290.66 345.195H1277.67C1275.1 345.195 1273 343.107 1273 340.556V327.64C1273 325.088 1275.1 323 1277.67 323Z" fill="#748288"/>
<path fill-rule="evenodd" clip-rule="evenodd" d="M1332.81 368.976H1321.67C1319.47 368.976 1317.67 370.765 1317.67 372.952V384.023C1317.67 386.21 1319.47 388 1321.67 388H1332.81C1335.01 388 1336.81 386.21 1336.81 384.023V372.952C1336.81 370.765 1335.01 368.976 1332.81 368.976Z" fill="#748288"/>
</g>
<g opacity="0.153191">
<path fill-rule="evenodd" clip-rule="evenodd" d="M1376.94 352.893L1361.33 351.801C1357.31 351.519 1353.75 354.574 1353.47 358.549L1352.07 378.67C1351.79 382.645 1354.85 386.127 1358.87 386.408L1379.22 387.831C1383.24 388.113 1386.76 385.09 1387.04 381.115L1388.08 366.24C1388.81 357.83 1390.92 357.407 1398.38 357.929L1413.69 359C1417.71 359.281 1421.23 356.259 1421.51 352.284L1422.92 332.163C1423.19 328.188 1420.13 324.705 1416.11 324.424L1395.76 323.001C1391.74 322.72 1388.22 325.742 1387.94 329.717L1387.03 342.7C1386.48 350.671 1385.71 353.505 1376.94 352.893Z" fill="#3A3080"/>
<path fill-rule="evenodd" clip-rule="evenodd" d="M1360.84 320.559L1373.89 321.472C1376.47 321.652 1378.43 323.909 1378.25 326.487L1377.33 339.535C1377.15 342.113 1374.9 344.074 1372.32 343.894L1359.27 342.981C1356.69 342.801 1354.73 340.545 1354.91 337.967L1355.82 324.919C1356 322.341 1358.26 320.379 1360.84 320.559Z" fill="#748288"/>
<path fill-rule="evenodd" clip-rule="evenodd" d="M1412.95 370.877L1401.77 370.095C1399.56 369.94 1397.62 371.621 1397.47 373.831L1396.69 385.015C1396.53 387.225 1398.21 389.159 1400.42 389.314L1411.61 390.096C1413.82 390.25 1415.75 388.569 1415.91 386.359L1416.69 375.175C1416.84 372.965 1415.16 371.031 1412.95 370.877Z" fill="#748288"/>
</g>
<g opacity="0.218669">
<path fill-rule="evenodd" clip-rule="evenodd" d="M1457.43 352.163L1441.92 349.985C1437.93 349.424 1434.17 352.223 1433.62 356.169L1430.81 376.142C1430.26 380.088 1433.07 383.776 1437.06 384.337L1457.26 387.176C1461.26 387.737 1464.98 384.968 1465.53 381.022L1467.61 366.255C1468.92 357.917 1471.05 357.641 1478.46 358.682L1493.66 360.819C1497.65 361.38 1501.37 358.611 1501.93 354.665L1504.73 334.691C1505.29 330.745 1502.48 327.058 1498.48 326.497L1478.28 323.657C1474.29 323.096 1470.57 325.866 1470.01 329.812L1468.2 342.699C1467.09 350.612 1466.13 353.386 1457.43 352.163Z" fill="#3A3080"/>
<path fill-rule="evenodd" clip-rule="evenodd" d="M1443.62 318.785L1456.57 320.606C1459.13 320.966 1460.93 323.354 1460.57 325.913L1458.75 338.866C1458.39 341.424 1456 343.224 1453.44 342.864L1440.49 341.044C1437.93 340.684 1436.13 338.296 1436.49 335.737L1438.31 322.784C1438.67 320.225 1441.06 318.426 1443.62 318.785Z" fill="#748288"/>
</g>
<g opacity="0.0161534">
<path fill-rule="evenodd" clip-rule="evenodd" d="M1226.08 264.329L1222.29 249.14C1221.31 245.229 1217.31 242.792 1213.44 243.755L1193.87 248.635C1190.01 249.599 1187.64 253.588 1188.62 257.499L1193.55 277.296C1194.53 281.207 1198.49 283.618 1202.35 282.654L1216.82 279.046C1225.05 277.142 1226.1 279.013 1227.91 286.273L1231.62 301.168C1232.6 305.079 1236.56 307.491 1240.43 306.527L1260 301.647C1263.86 300.683 1266.23 296.694 1265.25 292.783L1260.32 272.987C1259.34 269.076 1255.38 266.665 1251.52 267.629L1238.89 270.777C1231.13 272.71 1228.2 272.855 1226.08 264.329Z" fill="#3A3080"/>
<path fill-rule="evenodd" clip-rule="evenodd" d="M1251.85 239.022L1255.02 251.714C1255.64 254.222 1254.1 256.785 1251.59 257.41L1238.9 260.575C1236.39 261.2 1233.83 259.66 1233.21 257.152L1230.04 244.46C1229.42 241.952 1230.96 239.389 1233.46 238.764L1246.16 235.6C1248.66 234.974 1251.23 236.514 1251.85 239.022Z" fill="#748288"/>
<path fill-rule="evenodd" clip-rule="evenodd" d="M1220.1 304.135L1217.39 293.256C1216.85 291.106 1214.65 289.786 1212.51 290.322L1201.63 293.034C1199.48 293.57 1198.16 295.767 1198.69 297.917L1201.41 308.796C1201.94 310.945 1204.14 312.265 1206.29 311.729L1217.17 309.017C1219.32 308.481 1220.64 306.284 1220.1 304.135Z" fill="#748288"/>
</g>
<g opacity="0.593462">
<path fill-rule="evenodd" clip-rule="evenodd" d="M1307.11 264.295L1304.39 248.879C1303.69 244.909 1299.87 242.199 1295.94 242.891L1276.08 246.393C1272.16 247.085 1269.52 250.899 1270.22 254.869L1273.76 274.961C1274.46 278.931 1278.24 281.613 1282.17 280.921L1296.85 278.331C1305.19 277.005 1306.11 278.946 1307.41 286.314L1310.07 301.432C1310.77 305.401 1314.56 308.083 1318.48 307.391L1338.35 303.889C1342.27 303.197 1344.91 299.383 1344.21 295.413L1340.66 275.321C1339.96 271.351 1336.18 268.67 1332.26 269.361L1319.44 271.621C1311.57 273.009 1308.64 272.949 1307.11 264.295Z" fill="#3A3080"/>
<path fill-rule="evenodd" clip-rule="evenodd" d="M1334.59 240.848L1336.86 253.73C1337.31 256.275 1335.59 258.725 1333.05 259.173L1320.17 261.445C1317.62 261.893 1315.17 260.178 1314.72 257.633L1312.45 244.751C1312 242.206 1313.72 239.757 1316.26 239.308L1329.15 237.037C1331.69 236.588 1334.14 238.303 1334.59 240.848Z" fill="#748288"/>
<path fill-rule="evenodd" clip-rule="evenodd" d="M1298.37 303.588L1296.42 292.546C1296.04 290.364 1293.94 288.894 1291.76 289.279L1280.72 291.226C1278.54 291.61 1277.07 293.71 1277.45 295.891L1279.4 306.933C1279.78 309.115 1281.88 310.585 1284.06 310.2L1295.1 308.253C1297.29 307.868 1298.76 305.769 1298.37 303.588Z" fill="#748288"/>
</g>
<g opacity="0.116933">
<path fill-rule="evenodd" clip-rule="evenodd" d="M1388.15 264.314L1386.51 248.746C1386.09 244.737 1382.46 241.767 1378.5 242.183L1358.44 244.292C1354.48 244.708 1351.58 248.329 1352 252.338L1354.13 272.629C1354.56 276.637 1358.14 279.576 1362.11 279.16L1376.94 277.601C1385.34 276.86 1386.13 278.86 1386.91 286.3L1388.51 301.567C1388.94 305.576 1392.52 308.516 1396.49 308.099L1416.54 305.991C1420.51 305.574 1423.41 301.953 1422.98 297.945L1420.85 277.654C1420.43 273.645 1416.84 270.706 1412.88 271.123L1399.94 272.483C1391.99 273.318 1389.07 273.053 1388.15 264.314Z" fill="#3A3080"/>
<path fill-rule="evenodd" clip-rule="evenodd" d="M1417.19 242.841L1418.56 255.851C1418.83 258.421 1416.95 260.744 1414.38 261.015L1401.37 262.382C1398.8 262.652 1396.48 260.77 1396.21 258.2L1394.84 245.191C1394.57 242.621 1396.45 240.297 1399.02 240.027L1412.03 238.66C1414.6 238.389 1416.92 240.271 1417.19 242.841Z" fill="#748288"/>
<path fill-rule="evenodd" clip-rule="evenodd" d="M1376.69 302.902L1375.52 291.751C1375.28 289.547 1373.29 287.935 1371.09 288.166L1359.94 289.338C1357.74 289.57 1356.12 291.561 1356.36 293.765L1357.53 304.915C1357.76 307.118 1359.75 308.731 1361.95 308.5L1373.1 307.328C1375.31 307.096 1376.92 305.105 1376.69 302.902Z" fill="#748288"/>
</g>
<g opacity="0.348456">
<path fill-rule="evenodd" clip-rule="evenodd" d="M1469.18 264.386L1468.63 248.742C1468.49 244.714 1465.08 241.497 1461.1 241.636L1440.94 242.34C1436.96 242.479 1433.82 245.889 1433.96 249.918L1434.67 270.308C1434.81 274.336 1438.18 277.518 1442.16 277.379L1457.07 276.859C1465.51 276.706 1466.15 278.756 1466.41 286.232L1466.95 301.575C1467.09 305.603 1470.46 308.785 1474.44 308.646L1494.6 307.942C1498.58 307.803 1501.72 304.393 1501.58 300.365L1500.87 279.975C1500.73 275.946 1497.36 272.764 1493.38 272.904L1480.37 273.358C1472.38 273.637 1469.48 273.168 1469.18 264.386Z" fill="#3A3080"/>
<path fill-rule="evenodd" clip-rule="evenodd" d="M1455.05 302.08L1454.66 290.875C1454.59 288.661 1452.71 286.913 1450.5 286.99L1439.29 287.382C1437.08 287.459 1435.33 289.333 1435.41 291.547L1435.8 302.753C1435.88 304.966 1437.75 306.714 1439.97 306.637L1451.17 306.246C1453.38 306.168 1455.13 304.294 1455.05 302.08Z" fill="#748288"/>
</g>
<g opacity="0.547695">
<path fill-rule="evenodd" clip-rule="evenodd" d="M1317.88 192.881L1332.59 187.527C1336.37 186.148 1338.38 181.911 1337.02 178.167L1330.12 159.214C1328.75 155.469 1324.54 153.534 1320.75 154.912L1301.58 161.891C1297.79 163.269 1295.81 167.461 1297.17 171.205L1302.27 185.218C1305.03 193.197 1303.27 194.44 1296.24 196.999L1281.82 202.25C1278.03 203.628 1276.05 207.82 1277.41 211.564L1284.31 230.517C1285.67 234.262 1289.88 236.198 1293.67 234.819L1312.84 227.841C1316.63 226.462 1318.62 222.271 1317.25 218.526L1312.8 206.297C1310.07 198.788 1309.62 195.886 1317.88 192.881Z" fill="#3A3080"/>
<path fill-rule="evenodd" clip-rule="evenodd" d="M1345.74 215.869L1333.45 220.343C1331.02 221.227 1328.31 219.963 1327.42 217.534L1322.95 205.243C1322.07 202.815 1323.33 200.105 1325.76 199.221L1338.05 194.747C1340.48 193.863 1343.19 195.127 1344.07 197.555L1348.55 209.846C1349.43 212.275 1348.17 214.985 1345.74 215.869Z" fill="#748288"/>
<path fill-rule="evenodd" clip-rule="evenodd" d="M1277.66 191.098L1288.2 187.263C1290.28 186.506 1291.36 184.183 1290.61 182.101L1286.77 171.566C1286.01 169.485 1283.69 168.401 1281.61 169.159L1271.07 172.994C1268.99 173.752 1267.91 176.075 1268.67 178.156L1272.5 188.691C1273.26 190.773 1275.58 191.856 1277.66 191.098Z" fill="#748288"/>
</g>
<g opacity="0.656142">
<path fill-rule="evenodd" clip-rule="evenodd" d="M1398.27 193.629L1413.31 189.315C1417.19 188.204 1419.49 184.117 1418.39 180.287L1412.83 160.898C1411.73 157.068 1407.66 154.843 1403.79 155.954L1384.17 161.578C1380.3 162.689 1378.03 166.732 1379.13 170.562L1383.24 184.896C1385.43 193.048 1383.59 194.167 1376.4 196.229L1361.64 200.46C1357.77 201.571 1355.5 205.614 1356.6 209.445L1362.16 228.833C1363.25 232.663 1367.32 234.888 1371.2 233.777L1390.81 228.154C1394.68 227.042 1396.96 222.999 1395.86 219.169L1392.27 206.659C1390.07 198.978 1389.82 196.051 1398.27 193.629Z" fill="#3A3080"/>
<path fill-rule="evenodd" clip-rule="evenodd" d="M1424.46 218.505L1411.88 222.111C1409.4 222.823 1406.78 221.373 1406.07 218.889L1402.47 206.316C1401.75 203.832 1403.2 201.217 1405.69 200.504L1418.26 196.899C1420.75 196.186 1423.36 197.636 1424.07 200.12L1427.68 212.693C1428.39 215.177 1426.94 217.793 1424.46 218.505Z" fill="#748288"/>
<path fill-rule="evenodd" clip-rule="evenodd" d="M1358.28 189.046L1369.06 185.956C1371.18 185.345 1372.43 183.104 1371.82 180.974L1368.73 170.197C1368.12 168.068 1365.87 166.825 1363.74 167.436L1352.97 170.526C1350.84 171.137 1349.6 173.379 1350.21 175.508L1353.3 186.285C1353.91 188.414 1356.15 189.657 1358.28 189.046Z" fill="#748288"/>
</g>
<g opacity="0.301727">
<path fill-rule="evenodd" clip-rule="evenodd" d="M1478.61 194.384L1493.92 191.13C1497.86 190.292 1500.44 186.375 1499.61 182.478L1495.41 162.749C1494.59 158.851 1490.68 156.348 1486.74 157.186L1466.78 161.428C1462.84 162.266 1460.29 166.14 1461.12 170.038L1464.22 184.624C1465.84 192.909 1463.93 193.897 1456.61 195.452L1441.6 198.644C1437.65 199.482 1435.1 203.356 1435.93 207.254L1440.13 226.983C1440.95 230.881 1444.86 233.384 1448.8 232.546L1468.76 228.304C1472.7 227.466 1475.25 223.591 1474.42 219.693L1471.71 206.964C1470.05 199.148 1470.01 196.211 1478.61 194.384Z" fill="#3A3080"/>
<path fill-rule="evenodd" clip-rule="evenodd" d="M1439.03 187.023L1450 184.691C1452.17 184.231 1453.56 182.082 1453.1 179.915L1450.77 168.948C1450.31 166.782 1448.16 165.386 1445.99 165.846L1435.03 168.178C1432.86 168.638 1431.46 170.788 1431.93 172.954L1434.26 183.921C1434.72 186.087 1436.87 187.483 1439.03 187.023Z" fill="#748288"/>
</g>
<g opacity="0.540618">
<path fill-rule="evenodd" clip-rule="evenodd" d="M1311.02 124.747L1318.85 138.304C1320.86 141.794 1325.38 143.034 1328.83 141.041L1346.3 130.956C1349.75 128.964 1350.93 124.478 1348.91 120.987L1338.71 103.318C1336.69 99.8269 1332.22 98.601 1328.77 100.593L1315.86 108.049C1308.48 112.147 1306.95 110.638 1303.21 104.159L1295.53 90.8639C1293.52 87.3731 1289.04 86.1469 1285.59 88.1393L1268.13 98.2241C1264.68 100.216 1263.5 104.703 1265.52 108.194L1275.72 125.863C1277.73 129.354 1282.21 130.579 1285.66 128.587L1296.93 122.08C1303.85 118.085 1306.63 117.137 1311.02 124.747Z" fill="#3A3080"/>
<path fill-rule="evenodd" clip-rule="evenodd" d="M1293.22 156.178L1286.68 144.849C1285.39 142.611 1286.16 139.723 1288.4 138.431L1299.72 131.891C1301.96 130.599 1304.85 131.373 1306.14 133.611L1312.68 144.939C1313.98 147.177 1313.2 150.066 1310.96 151.358L1299.64 157.898C1297.4 159.19 1294.51 158.416 1293.22 156.178Z" fill="#748288"/>
<path fill-rule="evenodd" clip-rule="evenodd" d="M1305.79 84.8353L1311.4 94.5454C1312.5 96.464 1314.98 97.1274 1316.9 96.0197L1326.61 90.414C1328.53 89.3066 1329.19 86.831 1328.08 84.9124L1322.48 75.2023C1321.37 73.284 1318.89 72.6208 1316.97 73.7283L1307.27 79.334C1305.35 80.4416 1304.68 82.917 1305.79 84.8353Z" fill="#748288"/>
</g>
<g opacity="0.865551">
<path fill-rule="evenodd" clip-rule="evenodd" d="M1390.58 124.988L1397.44 139.058C1399.21 142.681 1403.63 144.232 1407.21 142.485L1425.34 133.644C1428.92 131.897 1430.41 127.503 1428.64 123.88L1419.7 105.543C1417.93 101.92 1413.55 100.385 1409.97 102.132L1396.57 108.669C1388.92 112.241 1387.5 110.629 1384.22 103.905L1377.49 90.1073C1375.73 86.4844 1371.35 84.9492 1367.77 86.696L1349.64 95.5378C1346.06 97.2846 1344.57 101.678 1346.34 105.301L1355.29 123.639C1357.05 127.262 1361.43 128.796 1365.01 127.05L1376.71 121.345C1383.89 117.842 1386.73 117.09 1390.58 124.988Z" fill="#3A3080"/>
<path fill-rule="evenodd" clip-rule="evenodd" d="M1370.63 155.101L1364.9 143.344C1363.76 141.021 1364.74 138.194 1367.06 137.061L1378.82 131.327C1381.14 130.194 1383.97 131.168 1385.1 133.49L1390.83 145.248C1391.97 147.57 1390.99 150.397 1388.67 151.53L1376.91 157.264C1374.59 158.397 1371.76 157.424 1370.63 155.101Z" fill="#748288"/>
<path fill-rule="evenodd" clip-rule="evenodd" d="M1388.15 84.8091L1393.06 94.8866C1394.03 96.8778 1396.46 97.7122 1398.45 96.7411L1408.53 91.8263C1410.52 90.8554 1411.35 88.4321 1410.38 86.4409L1405.46 76.3634C1404.49 74.3725 1402.07 73.5383 1400.08 74.5092L1390 79.424C1388.01 80.3951 1387.18 82.8182 1388.15 84.8091Z" fill="#748288"/>
</g>
<g opacity="0.888975">
<path fill-rule="evenodd" clip-rule="evenodd" d="M1470.13 125.178L1475.99 139.692C1477.5 143.429 1481.81 145.286 1485.5 143.793L1504.2 136.237C1507.9 134.745 1509.68 130.465 1508.17 126.728L1500.53 107.811C1499.02 104.074 1494.76 102.237 1491.07 103.73L1477.24 109.316C1469.36 112.346 1468.06 110.64 1465.26 103.703L1459.51 89.4693C1458 85.732 1453.74 83.8952 1450.04 85.388L1431.34 92.9436C1427.65 94.4363 1425.86 98.7157 1427.37 102.453L1435.01 121.37C1436.52 125.107 1440.78 126.944 1444.48 125.451L1456.54 120.576C1463.95 117.582 1466.84 117.031 1470.13 125.178Z" fill="#3A3080"/>
</g>
<g opacity="0.344242">
<path fill-rule="evenodd" clip-rule="evenodd" d="M1218 40.466L1206.74 51.34C1203.84 54.14 1203.73 58.8262 1206.5 61.6923L1220.51 76.2013C1223.28 79.0677 1227.91 79.1217 1230.81 76.3217L1245.49 62.1489C1248.39 59.3488 1248.5 54.7129 1245.73 51.8465L1235.37 41.1198C1229.61 34.9503 1230.7 33.1021 1236.09 27.905L1247.13 17.241C1250.03 14.4409 1250.14 9.80471 1247.37 6.93832L1233.36 -7.57043C1230.59 -10.4368 1225.95 -10.4911 1223.05 -7.6911L1208.38 6.48174C1205.48 9.28177 1205.37 13.918 1208.14 16.7844L1217.18 26.1457C1222.73 31.8937 1224.32 34.3619 1218 40.466Z" fill="#3A3080"/>
<path fill-rule="evenodd" clip-rule="evenodd" d="M1183.19 30.7981L1192.6 21.7111C1194.46 19.916 1197.45 19.9683 1199.25 21.8272L1208.33 31.2362C1210.13 33.0951 1210.08 36.0846 1208.22 37.8798L1198.81 46.9667C1196.95 48.7619 1193.96 48.7098 1192.17 46.8509L1183.08 37.4419C1181.28 35.583 1181.34 32.5932 1183.19 30.7981Z" fill="#748288"/>
<path fill-rule="evenodd" clip-rule="evenodd" d="M1255.46 25.738L1247.39 33.5266C1245.8 35.0656 1245.75 37.6279 1247.29 39.2214L1255.08 47.2863C1256.62 48.8795 1259.18 48.9244 1260.78 47.3855L1268.84 39.5968C1270.44 38.0581 1270.48 35.4955 1268.94 33.9023L1261.15 25.8374C1259.61 24.2439 1257.05 24.1993 1255.46 25.738Z" fill="#748288"/>
</g>
<g opacity="0.151568">
<path fill-rule="evenodd" clip-rule="evenodd" d="M1297.87 39.8279L1285.88 49.89C1282.79 52.481 1282.36 57.1481 1284.92 60.2003L1297.88 75.6513C1300.45 78.7038 1305.07 79.0812 1308.16 76.4903L1323.78 63.3757C1326.87 60.7848 1327.3 56.1676 1324.74 53.1151L1315.16 41.692C1309.84 35.1357 1311.06 33.3682 1316.79 28.5593L1328.55 18.6915C1331.64 16.1005 1332.07 11.4831 1329.51 8.43063L1316.54 -7.02013C1313.98 -10.0726 1309.36 -10.4503 1306.27 -7.85934L1290.64 5.2552C1287.56 7.84615 1287.12 12.4636 1289.69 15.5161L1298.05 25.4852C1303.19 31.6064 1304.6 34.1797 1297.87 39.8279Z" fill="#3A3080"/>
<path fill-rule="evenodd" clip-rule="evenodd" d="M1263.83 27.7557L1273.85 19.3473C1275.83 17.6862 1278.81 17.947 1280.47 19.9265L1288.88 29.9465C1290.54 31.926 1290.28 34.9046 1288.3 36.5657L1278.28 44.9741C1276.3 46.6353 1273.32 46.3748 1271.66 44.3952L1263.25 34.3753C1261.59 32.3957 1261.85 29.4168 1263.83 27.7557Z" fill="#748288"/>
<path fill-rule="evenodd" clip-rule="evenodd" d="M1336.27 27.7493L1327.68 34.9564C1325.98 36.3804 1325.76 38.9334 1327.18 40.6304L1334.39 49.2188C1335.82 50.9155 1338.37 51.1391 1340.07 49.715L1348.65 42.5079C1350.35 41.0841 1350.57 38.5309 1349.15 36.8342L1341.94 28.2457C1340.52 26.5487 1337.97 26.3255 1336.27 27.7493Z" fill="#748288"/>
</g>
<g opacity="0.953903">
<path fill-rule="evenodd" clip-rule="evenodd" d="M1377.79 39.1626L1365.13 48.3637C1361.87 50.733 1361.11 55.3583 1363.45 58.5818L1375.3 74.8996C1377.65 78.1233 1382.23 78.8222 1385.49 76.4529L1402 64.4606C1405.26 62.0914 1406.01 57.5155 1403.67 54.2917L1394.9 42.2278C1390.06 35.3166 1391.4 33.6386 1397.45 29.2411L1409.87 20.2177C1413.13 17.8485 1413.88 13.2724 1411.54 10.0487L1399.68 -6.26884C1397.34 -9.49258 1392.76 -10.1918 1389.5 -7.82251L1372.99 4.16984C1369.73 6.53908 1368.98 11.1153 1371.32 14.339L1378.97 24.8673C1383.67 31.3319 1384.9 33.9977 1377.79 39.1626Z" fill="#3A3080"/>
<path fill-rule="evenodd" clip-rule="evenodd" d="M1344.67 24.7451L1355.25 17.0562C1357.34 15.5372 1360.3 16.0051 1361.82 18.0957L1369.5 28.6778C1371.02 30.7684 1370.56 33.7215 1368.47 35.2405L1357.88 42.9294C1355.79 44.4484 1352.84 43.9807 1351.32 41.8901L1343.63 31.3081C1342.11 29.2175 1342.58 26.2641 1344.67 24.7451Z" fill="#748288"/>
<path fill-rule="evenodd" clip-rule="evenodd" d="M1416.94 29.7919L1407.87 36.3823C1406.07 37.6845 1405.67 40.2156 1406.98 42.0078L1413.57 51.0781C1414.87 52.87 1417.4 53.2711 1419.19 51.9689L1428.26 45.3785C1430.05 44.0765 1430.45 41.5451 1429.15 39.7532L1422.56 30.683C1421.26 28.8908 1418.73 28.49 1416.94 29.7919Z" fill="#748288"/>
</g>
<g opacity="0.177023">
<path fill-rule="evenodd" clip-rule="evenodd" d="M1457.76 38.474L1444.48 46.7693C1441.06 48.9053 1439.98 53.4664 1442.09 56.8453L1452.78 73.9504C1454.89 77.3296 1459.42 78.3466 1462.84 76.2106L1480.14 65.3989C1483.56 63.2629 1484.63 58.7506 1482.51 55.3713L1474.61 42.7254C1470.26 35.4929 1471.71 33.9126 1478.06 29.948L1491.08 21.8129C1494.5 19.677 1495.57 15.1644 1493.45 11.7852L1482.77 -5.31955C1480.65 -8.69881 1476.13 -9.7161 1472.71 -7.58011L1455.41 3.23162C1451.99 5.36762 1450.92 9.88024 1453.03 13.2595L1459.93 24.2958C1464.16 31.0723 1465.21 33.8176 1457.76 38.474Z" fill="#3A3080"/>
<path fill-rule="evenodd" clip-rule="evenodd" d="M1425.72 21.7812L1436.82 14.8492C1439.01 13.4798 1441.92 14.1526 1443.29 16.3441L1450.22 27.4366C1451.59 29.6281 1450.92 32.5414 1448.73 33.9109L1437.63 40.8428C1435.44 42.2122 1432.53 41.5397 1431.16 39.3483L1424.23 28.2557C1422.86 26.0642 1423.53 23.1506 1425.72 21.7812Z" fill="#748288"/>
</g>
</g>
<defs>
<linearGradient id="paint0_linear_101_3201" x1="-627.781" y1="255.121" x2="-194.48" y2="1350.8" gradientUnits="userSpaceOnUse">
<stop stop-opacity="0.5"/>
<stop offset="1" stop-color="#008DD2"/>
</linearGradient>
</defs>
</svg>
