<svg width="124" height="23" viewBox="0 0 124 23" fill="none" xmlns="http://www.w3.org/2000/svg">
<path fill-rule="evenodd" clip-rule="evenodd" d="M7.19222 16.9299L9.78686 6.40061H16.6321C17.3595 6.40061 18.0032 6.53025 18.5451 6.78529C19.0886 7.04093 19.5322 7.39859 19.8637 7.84793C20.1932 8.29485 20.4069 8.84439 20.4989 9.48107C20.5924 10.1305 20.5432 10.8519 20.3529 11.6249C20.1619 12.3997 19.8534 13.1268 19.4363 13.7863C19.2851 14.0252 19.1229 14.252 18.9508 14.4664C20.419 14.0629 21.969 13.6551 23.6039 13.2465C24.2983 13.0728 24.9978 12.9025 25.7007 12.7343C25.8443 12.3171 25.97 11.8933 26.076 11.4627C26.4606 9.90157 26.5508 8.44605 26.344 7.13596C26.1361 5.82102 25.6676 4.67245 24.9517 3.72244C24.2348 2.77153 23.2739 2.02373 22.095 1.5003C20.9237 0.980821 19.5571 0.717285 18.0326 0.717285H5.531L0.597656 20.7366C2.22724 20.0149 5.60581 18.6125 10.7409 16.9299H7.19222Z" fill="#252D5A"/>
<path fill-rule="evenodd" clip-rule="evenodd" d="M35.568 6.40061H45.1424C46.0408 6.40061 46.6435 6.60525 46.9847 7.02545C47.2549 7.35851 47.3293 7.89317 47.2088 8.61668C49.1182 8.33432 51.0459 8.06927 52.9902 7.82243C53.0992 7.04549 53.1141 6.3156 53.0327 5.6434C52.9079 4.61294 52.57 3.7185 52.028 2.98497C51.4846 2.25023 50.7347 1.67974 49.7989 1.2896C48.886 0.909776 47.7905 0.717285 46.543 0.717285H31.3119L28.5117 12.0815C30.4718 11.6391 32.462 11.2171 34.4798 10.8157L35.568 6.40061Z" fill="#252D5A"/>
<path fill-rule="evenodd" clip-rule="evenodd" d="M64.5703 0.717285H58.8867L57.2617 7.31175C59.1897 7.09558 61.1337 6.89672 63.0923 6.71516L64.5703 0.717285Z" fill="#252D5A"/>
<path fill-rule="evenodd" clip-rule="evenodd" d="M73.8757 5.89995L72.0986 0.717285H65.2773L67.2745 6.35568C69.4584 6.18262 71.6593 6.03081 73.8757 5.89995Z" fill="#252D5A"/>
<path fill-rule="evenodd" clip-rule="evenodd" d="M95.1995 0.717285H88.6181L84.6836 5.43543C86.8769 5.37531 89.082 5.33554 91.2978 5.31611L95.1995 0.717285Z" fill="#252D5A"/>
<path fill-rule="evenodd" clip-rule="evenodd" d="M114.742 5.84105L116.005 0.717285H96.216L95.0859 5.30275C101.517 5.31307 108.097 5.49372 114.742 5.84105Z" fill="#252D5A"/>
<path fill-rule="evenodd" clip-rule="evenodd" d="M76.9105 14.7549L74.9364 8.99746C77.4342 8.74668 79.8758 8.53202 82.2522 8.34894L76.9105 14.7549ZM122.357 7.8328C122.694 7.85314 122.995 7.87318 123.259 7.89079C122.96 7.86832 122.661 7.84707 122.362 7.82552C43.49 2.20352 1.84645 21.7902 0.188151 22.5884L0.157061 22.5307L0.136779 22.613H0.136749H0.136779L0.136719 22.6133H12.6385C12.6466 22.6133 12.6546 22.613 12.6628 22.613H13.2951C13.3146 22.6057 13.3341 22.5987 13.3536 22.5914C14.6456 22.5152 15.9165 22.2332 17.1406 21.7486C18.1149 21.363 19.0403 20.8751 19.9053 20.2928C22.2787 19.5058 24.6569 18.7656 27.0345 18.0691L25.9144 22.6133H31.5711L32.9179 17.1482L41.1555 17.1549L44.7822 22.6133H52.844L47.7828 15.8154C48.7388 15.2737 49.5968 14.5776 50.3471 13.7329C50.7354 13.2963 51.0842 12.8236 51.3948 12.3187C53.0186 12.0196 54.6326 11.7379 56.2347 11.4725L53.4892 22.6133H59.1728L62.1436 10.558C64.278 10.2505 66.3866 9.97084 68.464 9.71733L72.5381 21.2218C72.696 21.6942 72.9395 22.0798 73.2619 22.3683C73.6442 22.7101 74.1527 22.8835 74.7736 22.8835C75.3766 22.8835 75.9614 22.7101 76.5118 22.3683C76.9751 22.0807 77.4084 21.6955 77.8 21.223L89.1078 7.89535C90.9607 7.79272 92.7627 7.70862 94.5079 7.64092L90.8183 22.6133H110.634L112.034 16.93H97.8755L98.579 14.0748H110.49L111.757 8.93188H99.8463L100.206 7.47059C110.812 7.24713 118.702 7.60752 122.357 7.8328Z" fill="#252D5A"/>
</svg>
