<svg width="78" height="15" viewBox="0 0 78 15" fill="none" xmlns="http://www.w3.org/2000/svg">
<path fill-rule="evenodd" clip-rule="evenodd" d="M14.832 7.47929C14.832 6.45721 14.6495 5.49022 14.2849 4.57874C13.9201 3.66705 13.4136 2.87279 12.7652 2.19596C12.1168 1.51934 11.34 0.984072 10.435 0.590358C9.53004 0.196857 8.53045 0 7.43627 0C6.34208 0 5.34249 0.200273 4.43729 0.60082C3.53229 1.00137 2.74882 1.54347 2.08688 2.22713C1.42515 2.91101 0.91168 3.70847 0.547091 4.62016C0.182294 5.53164 0 6.49863 0 7.52071C0 8.54279 0.182294 9.50957 0.547091 10.4213C0.91168 11.3327 1.41826 12.127 2.06663 12.8038C2.71499 13.4807 3.49178 14.0159 4.39678 14.4094C5.30198 14.8031 6.30157 15 7.39576 15C8.48973 15 9.48953 14.7997 10.3945 14.3992C11.2995 13.9986 12.083 13.4565 12.7449 12.7727C13.4069 12.089 13.9201 11.2913 14.2849 10.3798C14.6495 9.46814 14.832 8.50137 14.832 7.47929ZM12.2181 7.52071C12.2181 8.22508 12.0999 8.89145 11.8635 9.52003C11.6272 10.1484 11.2995 10.6939 10.8809 11.1568C10.462 11.6195 9.95894 11.9854 9.37134 12.2547C8.78374 12.5241 8.13872 12.6589 7.43627 12.6589C6.73382 12.6589 6.08545 12.5207 5.49096 12.2444C4.89668 11.9681 4.38675 11.5954 3.96119 11.1256C3.53563 10.6561 3.20466 10.107 2.96828 9.47861C2.73191 8.85003 2.61372 8.18366 2.61372 7.47929C2.61372 6.7747 2.73191 6.10834 2.96828 5.47997C3.20466 4.85161 3.53229 4.30588 3.95117 3.8432C4.36984 3.38052 4.87308 3.01456 5.46068 2.74511C6.04828 2.47587 6.69331 2.34115 7.39576 2.34115C8.098 2.34115 8.74657 2.47929 9.34086 2.75557C9.93514 3.03164 10.4451 3.40465 10.8706 3.87416C11.2962 4.34388 11.6272 4.89282 11.8635 5.52139C12.0999 6.14976 12.2181 6.81634 12.2181 7.52071ZM26.8578 12.9488L25.3786 11.4572C24.9868 11.8578 24.5715 12.1857 24.1324 12.4413C23.6934 12.6969 23.1835 12.8245 22.6026 12.8245C22.1299 12.8245 21.6976 12.7312 21.3059 12.5448C20.9141 12.3584 20.5763 12.1063 20.2927 11.7886C20.0089 11.4709 19.7895 11.0981 19.6341 10.6698C19.4788 10.2417 19.4011 9.77902 19.4011 9.28175C19.4011 8.79836 19.4788 8.34593 19.6341 7.92467C19.7895 7.50342 20.0022 7.13404 20.2725 6.81634C20.5427 6.49863 20.8667 6.24648 21.2451 6.06008C21.6233 5.87347 22.0353 5.78038 22.4811 5.78038C23.1025 5.78038 23.6258 5.90806 24.0514 6.16363C24.4769 6.41921 24.8787 6.74716 25.257 7.14771L26.7766 5.46951C26.2769 4.90328 25.6926 4.44743 25.024 4.10219C24.3554 3.75694 23.5145 3.58421 22.5013 3.58421C21.7043 3.58421 20.9647 3.73623 20.2825 4.04005C19.6003 4.34388 19.0093 4.75831 18.513 5.28312C18.0166 5.80793 17.6282 6.41579 17.348 7.10629C17.0676 7.79699 16.9291 8.53596 16.9291 9.32317C16.9291 10.1104 17.0676 10.8459 17.348 11.5296C17.6282 12.2135 18.0166 12.8143 18.513 13.3321C19.0093 13.85 19.5969 14.2576 20.2725 14.5546C20.948 14.8516 21.684 15 22.4811 15C23.5212 15 24.379 14.81 25.0543 14.4301C25.7298 14.0503 26.331 13.5565 26.8578 12.9488ZM32.0145 5.94607H34.8917V3.81224H32.0145V0.807926H29.5425V3.81224H28.1848V5.94607H29.5425V11.7196C29.5425 12.3273 29.6169 12.8384 29.7687 13.2458C29.9173 13.6532 30.1301 13.9813 30.4104 14.2333C30.6908 14.482 31.0215 14.6616 31.4033 14.772C31.7814 14.8826 32.1968 14.9379 32.6426 14.9379C33.102 14.9379 33.5071 14.8894 33.8583 14.7929C34.2095 14.6962 34.5405 14.558 34.8512 14.3785V12.3273C34.3649 12.576 33.8583 12.7003 33.3314 12.7003C32.9128 12.7003 32.5887 12.5933 32.359 12.3792C32.1293 12.165 32.0145 11.8127 32.0145 11.3293V5.94607ZM47.8091 9.28175C47.8091 8.49453 47.6671 7.75557 47.3835 7.06486C47.0998 6.37416 46.7047 5.76992 46.1981 5.25194C45.6915 4.73418 45.0906 4.32659 44.3948 4.02959C43.6992 3.7326 42.9394 3.58421 42.1154 3.58421C41.2912 3.58421 40.5315 3.73623 39.8358 4.04005C39.14 4.34388 38.539 4.75489 38.0325 5.27265C37.5259 5.79063 37.1275 6.3985 36.837 7.09582C36.5465 7.79336 36.4012 8.53596 36.4012 9.32317C36.4012 10.1104 36.543 10.8459 36.8268 11.5296C37.1105 12.2135 37.5056 12.8143 38.0122 13.3321C38.5188 13.85 39.1198 14.2576 39.8155 14.5546C40.5111 14.8516 41.2643 15 42.0747 15C42.8989 15 43.6621 14.848 44.3643 14.5442C45.0668 14.2403 45.6713 13.8293 46.1779 13.3113C46.6844 12.7936 47.0829 12.1891 47.3733 11.4986C47.6638 10.8079 47.8091 10.069 47.8091 9.28175ZM45.337 9.32317C45.337 9.80656 45.2626 10.259 45.1142 10.6802C44.9688 11.1015 44.7527 11.4709 44.4725 11.7886C44.1887 12.1063 43.8511 12.3584 43.456 12.5448C43.0576 12.7312 42.6117 12.8245 42.1154 12.8245C41.6458 12.8245 41.2135 12.7312 40.8151 12.5448C40.42 12.3584 40.0788 12.1063 39.7886 11.7886C39.5015 11.4709 39.2751 11.0945 39.1164 10.6595C38.9544 10.2244 38.8734 9.76514 38.8734 9.28175C38.8734 8.79836 38.9475 8.34593 39.0962 7.92467C39.2415 7.50342 39.4576 7.13404 39.7378 6.81634C40.0214 6.49863 40.3593 6.24648 40.7543 6.06008C41.1528 5.87347 41.5919 5.78038 42.0747 5.78038C42.5577 5.78038 42.9968 5.87347 43.3952 6.06008C43.7903 6.24648 44.1315 6.50205 44.4217 6.82659C44.7089 7.15112 44.9352 7.52754 45.0939 7.95585C45.256 8.38393 45.337 8.83978 45.337 9.32317ZM62.0028 4.35071V14.7513H64.4749V0.248527H61.8205L57.5045 7.10629L53.1888 0.248527H50.5343V14.7513H53.0063V4.39235L57.4438 11.1878H57.5248L62.0028 4.35071ZM68.0713 14.7513H78V12.4515H70.5435V0.248527H68.0713V14.7513Z" fill="#042435"/>
</svg>
