<svg width="78" height="123" viewBox="0 0 78 123" fill="none" xmlns="http://www.w3.org/2000/svg">
<path d="M28.7533 99.3112H29.7533V98.9574L29.5309 98.6824L28.7533 99.3112ZM2.7449 67.1484L1.75028 67.2519L1.78097 67.5467L1.96733 67.7772L2.7449 67.1484ZM28.3245 74.7427L27.5041 75.3145L29.3886 78.0186L29.3243 74.7232L28.3245 74.7427ZM27.5004 32.531L26.576 32.1495L26.4965 32.3422L26.5006 32.5506L27.5004 32.531ZM41.0129 32.2952L42.0127 32.2749L42.0073 32.0084L41.87 31.78L41.0129 32.2952ZM41.6418 63.3223L40.6489 63.4415L42.6416 63.302L41.6418 63.3223ZM52.8786 66.2733L51.8804 66.334L53.8763 66.3397L52.8786 66.2733ZM63.6174 66.0858L62.6179 66.1156L64.6152 66.1528L63.6174 66.0858ZM1.00792 30.667L0.00803602 30.6825L0.0390799 32.6823L1.03896 32.6668L1.00792 30.667ZM16.2076 32.4313L17.2075 32.4158L17.1765 30.416L16.1766 30.4315L16.2076 32.4313ZM33.8208 15.6783L33.785 16.6777L35.7838 16.7492L35.8195 15.7498L33.8208 15.6783ZM36.3168 1.85657L36.3525 0.857207L34.3538 0.785674L34.318 1.78503L36.3168 1.85657ZM21.5391 19.9103L22.2705 20.5923L23.6345 19.1296L22.9031 18.4476L21.5391 19.9103ZM11.9328 8.21759L11.2015 7.53559L9.83748 8.9983L10.5688 9.68029L11.9328 8.21759ZM44.8814 18.7447L44.1994 19.476L45.6622 20.84L46.3442 20.1087L44.8814 18.7447ZM57.2561 8.407L57.9381 7.67564L56.4754 6.31165L55.7934 7.043L57.2561 8.407ZM50.7141 30.1213L49.7145 30.1492L49.7702 32.1484L50.7698 32.1205L50.7141 30.1213ZM67.0513 31.6665L68.0509 31.6386L67.9952 29.6394L66.9956 29.6673L67.0513 31.6665ZM29.7533 122.23L29.7533 99.3112H27.7533L27.7533 122.23H29.7533ZM29.5309 98.6824L3.52248 66.5196L1.96733 67.7772L27.9757 99.9399L29.5309 98.6824ZM2.7449 67.1484C3.73953 67.0448 3.73957 67.0452 3.7396 67.0455C3.73961 67.0456 3.73964 67.0459 3.73965 67.046C3.73967 67.0462 3.73968 67.0463 3.73968 67.0463C3.73966 67.0461 3.73959 67.0454 3.73945 67.044C3.73919 67.0413 3.73869 67.0361 3.73802 67.0286C3.73667 67.0136 3.73458 66.9893 3.73212 66.9563C3.72719 66.8905 3.72074 66.7905 3.71552 66.6624C3.70506 66.4055 3.69969 66.0385 3.72072 65.6079C3.76343 64.7335 3.91242 63.6571 4.30593 62.7121C4.69496 61.778 5.28767 61.0476 6.19198 60.6878C7.11032 60.3224 8.5474 60.2599 10.7862 61.0936L11.4842 59.2194C8.97993 58.2868 6.99673 58.2151 5.45258 58.8295C3.8944 59.4495 2.98242 60.6879 2.45963 61.9433C1.94133 63.1878 1.77138 64.5218 1.7231 65.5103C1.69864 66.0112 1.70476 66.4389 1.71717 66.7437C1.72339 66.8964 1.73122 67.0192 1.73771 67.1057C1.74095 67.149 1.74386 67.1834 1.74608 67.208C1.74719 67.2203 1.74812 67.2302 1.74884 67.2375C1.74919 67.2412 1.7495 67.2442 1.74974 67.2466C1.74986 67.2478 1.74997 67.2489 1.75006 67.2498C1.7501 67.2502 1.75016 67.2507 1.75018 67.251C1.75023 67.2515 1.75028 67.2519 2.7449 67.1484ZM10.7862 61.0936C15.3212 62.7825 19.4939 66.303 22.5696 69.4709C24.098 71.0452 25.3359 72.5118 26.1908 73.5839C26.6179 74.1195 26.9487 74.5557 27.1716 74.8564C27.283 75.0067 27.3674 75.123 27.4233 75.2009C27.4512 75.2398 27.4721 75.2691 27.4856 75.2882C27.4923 75.2978 27.4973 75.3048 27.5004 75.3092C27.5019 75.3114 27.503 75.313 27.5036 75.3138C27.5039 75.3143 27.5041 75.3145 27.5042 75.3147C27.5042 75.3147 27.5042 75.3147 27.5042 75.3147C27.5041 75.3146 27.5041 75.3145 28.3245 74.7427C29.1449 74.1709 29.1447 74.1707 29.1446 74.1705C29.1445 74.1703 29.1443 74.17 29.1441 74.1698C29.1437 74.1692 29.1432 74.1685 29.1425 74.1676C29.1413 74.1658 29.1395 74.1633 29.1373 74.1602C29.1329 74.1539 29.1267 74.145 29.1186 74.1335C29.1024 74.1106 29.0788 74.0774 29.048 74.0345C28.9864 73.9488 28.896 73.8242 28.7783 73.6653C28.5428 73.3477 28.1977 72.8927 27.7544 72.3369C26.8686 71.226 25.5877 69.7085 24.0046 68.0778C20.857 64.8358 16.4351 61.0632 11.4842 59.2194L10.7862 61.0936ZM29.3243 74.7232L28.5002 32.5115L26.5006 32.5506L27.3247 74.7622L29.3243 74.7232ZM27.5004 32.531C28.4247 32.9126 28.4246 32.9128 28.4245 32.9131C28.4245 32.9131 28.4244 32.9133 28.4244 32.9134C28.4243 32.9136 28.4243 32.9138 28.4242 32.9138C28.4242 32.9139 28.4243 32.9136 28.4245 32.9131C28.425 32.9119 28.426 32.9095 28.4276 32.9058C28.4307 32.8985 28.436 32.8862 28.4434 32.8693C28.4582 32.8354 28.4815 32.783 28.5131 32.7147C28.5765 32.5781 28.673 32.3788 28.8013 32.1377C29.0592 31.653 29.4393 31.0115 29.9302 30.3736C30.9468 29.0522 32.261 27.9707 33.7837 27.9442L33.7488 25.9445C31.2829 25.9875 29.4642 27.6994 28.345 29.154C27.768 29.9041 27.3295 30.6462 27.0357 31.1981C26.8882 31.4753 26.7756 31.7076 26.6989 31.873C26.6605 31.9557 26.631 32.0219 26.6105 32.0689C26.6003 32.0924 26.5922 32.1111 26.5865 32.1246C26.5836 32.1314 26.5813 32.1369 26.5796 32.141C26.5787 32.1431 26.578 32.1449 26.5774 32.1463C26.5771 32.147 26.5768 32.1476 26.5766 32.1481C26.5765 32.1484 26.5764 32.1488 26.5763 32.1489C26.5762 32.1492 26.576 32.1495 27.5004 32.531ZM33.7837 27.9442C35.3407 27.917 36.8951 28.9852 38.1694 30.2918C38.7831 30.9211 39.284 31.5566 39.632 32.0364C39.8053 32.2754 39.9391 32.4735 40.0283 32.6099C40.0729 32.678 40.1062 32.7305 40.1277 32.7649C40.1384 32.782 40.1462 32.7946 40.1509 32.8023C40.1533 32.8061 40.1549 32.8088 40.1557 32.8101C40.1561 32.8108 40.1563 32.8112 40.1563 32.8112C40.1563 32.8112 40.1563 32.8112 40.1562 32.811C40.1562 32.8109 40.1561 32.8108 40.1561 32.8107C40.1559 32.8106 40.1558 32.8104 41.0129 32.2952C41.87 31.78 41.8698 31.7798 41.8697 31.7795C41.8696 31.7794 41.8694 31.7791 41.8693 31.7788C41.869 31.7784 41.8687 31.7778 41.8683 31.7772C41.8675 31.7759 41.8666 31.7743 41.8654 31.7724C41.863 31.7685 41.8599 31.7634 41.856 31.757C41.8481 31.7442 41.8371 31.7263 41.823 31.7038C41.7948 31.6588 41.7543 31.5949 41.7019 31.5149C41.5974 31.3551 41.4454 31.1303 41.251 30.8622C40.8635 30.3279 40.3006 29.6126 39.6012 28.8955C38.2493 27.5092 36.1803 25.902 33.7488 25.9445L33.7837 27.9442ZM40.0131 32.3154L40.642 63.3425L42.6416 63.302L42.0127 32.2749L40.0131 32.3154ZM41.6418 63.3223C42.6346 63.203 42.6346 63.2032 42.6347 63.2033C42.6347 63.2033 42.6347 63.2034 42.6347 63.2033C42.6347 63.2032 42.6346 63.2029 42.6346 63.2024C42.6344 63.2013 42.6342 63.1994 42.6339 63.1967C42.6333 63.1913 42.6322 63.1825 42.6309 63.1705C42.6282 63.1466 42.6242 63.1099 42.6192 63.0613C42.6091 62.9639 42.595 62.8189 42.5793 62.633C42.5479 62.261 42.5104 61.7265 42.4868 61.0837C42.4394 59.7932 42.4489 58.0889 42.6678 56.3952C42.8891 54.6838 43.3132 53.0777 44.0338 51.9185C44.7259 50.8052 45.6562 50.143 47.0072 50.1194L46.9723 48.1197C44.8037 48.1576 43.3057 49.3015 42.3352 50.8626C41.3932 52.378 40.9202 54.3149 40.6843 56.1388C40.4462 57.9804 40.4385 59.8038 40.4882 61.1571C40.5131 61.8362 40.5528 62.4026 40.5864 62.8011C40.6032 63.0004 40.6185 63.158 40.6298 63.267C40.6354 63.3215 40.6401 63.3638 40.6433 63.3932C40.645 63.4079 40.6463 63.4193 40.6472 63.4274C40.6477 63.4315 40.6481 63.4347 40.6484 63.437C40.6485 63.4382 40.6486 63.4392 40.6487 63.4399C40.6488 63.4403 40.6488 63.4407 40.6488 63.4409C40.6489 63.4412 40.6489 63.4415 41.6418 63.3223ZM47.0072 50.1194C48.2573 50.0976 49.2215 50.8097 50.0034 52.2302C50.7972 53.6723 51.2927 55.6765 51.5831 57.7867C51.8709 59.8779 51.9462 61.9849 51.9483 63.5771C51.9493 64.3711 51.9322 65.0324 51.9149 65.4937C51.9063 65.7243 51.8976 65.9046 51.8912 66.0264C51.8879 66.0872 51.8853 66.1334 51.8834 66.1638C51.8825 66.179 51.8818 66.1903 51.8814 66.1975C51.8811 66.2011 51.881 66.2037 51.8809 66.2053C51.8808 66.2061 51.8808 66.2066 51.8808 66.2069C51.8808 66.207 51.8808 66.207 51.8808 66.2071C51.8808 66.207 51.8808 66.2069 52.8786 66.2733C53.8763 66.3397 53.8764 66.3395 53.8764 66.3391C53.8764 66.3389 53.8764 66.3385 53.8764 66.3381C53.8765 66.3373 53.8766 66.3363 53.8767 66.335C53.8768 66.3324 53.8771 66.3287 53.8774 66.324C53.878 66.3146 53.8788 66.3011 53.8798 66.2836C53.8819 66.2487 53.8849 66.1979 53.8884 66.1322C53.8953 66.0009 53.9045 65.8102 53.9135 65.5686C53.9316 65.0856 53.9494 64.3982 53.9483 63.5744C53.9461 61.9311 53.869 59.7266 53.5644 57.514C53.2625 55.3204 52.7258 53.0286 51.7555 51.2658C50.7733 49.4815 49.2416 48.0801 46.9723 48.1197L47.0072 50.1194ZM52.8786 66.2733C53.8767 66.2126 53.8767 66.2128 53.8767 66.2128C53.8767 66.2128 53.8767 66.2128 53.8767 66.2127C53.8767 66.2125 53.8767 66.2121 53.8766 66.2114C53.8766 66.2101 53.8764 66.2078 53.8762 66.2047C53.8759 66.1983 53.8753 66.1884 53.8746 66.1749C53.8731 66.1479 53.871 66.1068 53.8685 66.0526C53.8633 65.9442 53.8566 65.7833 53.8501 65.5774C53.8372 65.1653 53.8255 64.5741 53.8311 63.8635C53.8421 62.4382 53.9221 60.5508 54.1933 58.6717C54.4671 56.775 54.9245 54.9719 55.6445 53.6632C56.3557 52.3708 57.2203 51.7201 58.3154 51.701L58.2805 49.7013C56.196 49.7377 54.7935 51.0613 53.8923 52.6991C53.0001 54.3206 52.5 56.4035 52.2138 58.386C51.9251 60.386 51.8426 62.3709 51.8311 63.848C51.8254 64.5886 51.8375 65.2062 51.8511 65.6401C51.8579 65.8572 51.8651 66.0285 51.8707 66.1466C51.8734 66.2057 51.8758 66.2515 51.8775 66.283C51.8784 66.2988 51.8791 66.311 51.8795 66.3195C51.8798 66.3238 51.88 66.3271 51.8801 66.3295C51.8802 66.3307 51.8803 66.3317 51.8803 66.3324C51.8803 66.3328 51.8804 66.3332 51.8804 66.3334C51.8804 66.3337 51.8804 66.334 52.8786 66.2733ZM58.3154 51.701C59.3994 51.6821 60.2424 52.2898 60.9373 53.5431C61.6448 54.8193 62.0902 56.6013 62.3518 58.4892C62.6108 60.3581 62.6786 62.2425 62.6805 63.6677C62.6814 64.3782 62.666 64.9699 62.6504 65.3825C62.6426 65.5886 62.6348 65.7498 62.629 65.8585C62.6261 65.9128 62.6237 65.954 62.622 65.981C62.6212 65.9946 62.6206 66.0045 62.6202 66.0109C62.62 66.0141 62.6198 66.0163 62.6198 66.0177C62.6197 66.0183 62.6197 66.0188 62.6197 66.019C62.6197 66.0191 62.6197 66.0191 62.6197 66.0191C62.6197 66.019 62.6197 66.0189 63.6174 66.0858C64.6152 66.1528 64.6152 66.1525 64.6152 66.1522C64.6152 66.152 64.6153 66.1516 64.6153 66.1513C64.6153 66.1505 64.6154 66.1496 64.6155 66.1484C64.6156 66.1459 64.6159 66.1426 64.6161 66.1383C64.6167 66.1298 64.6174 66.1175 64.6184 66.1018C64.6203 66.0702 64.623 66.0243 64.6261 65.9652C64.6325 65.8469 64.6408 65.6753 64.649 65.458C64.6654 65.0236 64.6815 64.4055 64.6805 63.6651C64.6786 62.1883 64.6088 60.2057 64.3329 58.2146C64.0595 56.2424 63.5724 54.1714 62.6864 52.5733C61.7877 50.9524 60.376 49.6648 58.2805 49.7013L58.3154 51.701ZM63.6174 66.0858C64.617 66.0561 64.617 66.0563 64.617 66.0565C64.617 66.0565 64.617 66.0566 64.617 66.0566C64.617 66.0566 64.617 66.0564 64.617 66.056C64.617 66.0552 64.6169 66.0536 64.6169 66.0512C64.6167 66.0465 64.6166 66.0386 64.6163 66.0278C64.6159 66.0062 64.6153 65.9727 64.6149 65.9281C64.6139 65.8388 64.6135 65.7051 64.6156 65.5334C64.6197 65.1897 64.6338 64.695 64.6739 64.0997C64.7546 62.9041 64.939 61.3257 65.3483 59.7572C65.7606 58.1773 66.3821 56.6826 67.2911 55.5923C68.1741 54.5331 69.3264 53.8507 70.913 53.8231L70.8781 51.8234C68.6302 51.8626 66.9556 52.8715 65.755 54.3116C64.5804 55.7206 63.8617 57.5332 63.4131 59.2522C62.9615 60.9827 62.7642 62.6948 62.6785 63.965C62.6355 64.6026 62.6202 65.1347 62.6157 65.5095C62.6135 65.697 62.6139 65.8456 62.615 65.9486C62.6155 66.0002 62.6162 66.0404 62.6168 66.0685C62.617 66.0825 62.6173 66.0936 62.6175 66.1014C62.6176 66.1054 62.6177 66.1085 62.6177 66.1109C62.6178 66.1121 62.6178 66.1131 62.6178 66.1138C62.6178 66.1142 62.6179 66.1147 62.6179 66.1149C62.6179 66.1152 62.6179 66.1156 63.6174 66.0858ZM70.913 53.8231C71.4013 53.8145 71.9459 54.0819 72.5399 54.948C73.137 55.8187 73.6688 57.1438 74.115 58.8582C75.0034 62.2718 75.4779 66.9275 75.6416 71.7554C75.8048 76.571 75.6572 81.4994 75.3238 85.4321C75.1569 87.3997 74.9449 89.1028 74.7057 90.4104C74.5861 91.0648 74.4622 91.6056 74.3385 92.0237C74.2087 92.4628 74.1 92.6926 74.0408 92.7805L75.6994 93.8981C75.9343 93.5494 76.1118 93.0798 76.2564 92.5909C76.4072 92.0812 76.5459 91.4657 76.6731 90.7702C76.9278 89.3777 77.1466 87.606 77.3166 85.6011C77.6568 81.5887 77.8063 76.5813 77.6404 71.6876C77.4749 66.8063 76.9939 61.9793 76.0505 58.3544C75.5807 56.5495 74.9775 54.9663 74.1893 53.8169C73.3979 52.6629 72.3069 51.7984 70.8781 51.8234L70.913 53.8231ZM74.0408 92.7805C73.626 93.396 73.349 94.3499 73.1388 95.3841C72.9199 96.4611 72.7459 97.7783 72.6065 99.2311C72.3274 102.14 72.1799 105.67 72.1064 109.072C72.0329 112.478 72.0331 115.773 72.0517 118.214C72.0611 119.435 72.075 120.444 72.0865 121.148C72.0923 121.5 72.0975 121.776 72.1013 121.964C72.1032 122.058 72.1047 122.13 72.1058 122.178C72.1063 122.203 72.1067 122.221 72.107 122.234C72.1071 122.24 72.1072 122.245 72.1073 122.248C72.1074 122.249 72.1074 122.251 72.1074 122.251C72.1074 122.252 72.1074 122.252 72.1074 122.252C72.1074 122.253 72.1074 122.253 73.1072 122.23C74.1069 122.206 74.1069 122.206 74.1069 122.206C74.1069 122.206 74.1069 122.206 74.1069 122.205C74.1069 122.205 74.1068 122.204 74.1068 122.202C74.1067 122.199 74.1066 122.195 74.1065 122.189C74.1062 122.177 74.1058 122.159 74.1053 122.135C74.1043 122.087 74.1028 122.016 74.1009 121.923C74.0972 121.738 74.092 121.464 74.0863 121.115C74.0748 120.416 74.0609 119.413 74.0517 118.199C74.0332 115.769 74.033 112.496 74.106 109.116C74.1791 105.732 74.3252 102.258 74.5973 99.4221C74.7335 98.0028 74.8995 96.7628 75.0987 95.7825C75.3066 94.7593 75.5259 94.1556 75.6994 93.8981L74.0408 92.7805ZM1.03896 32.6668L16.2076 32.4313L16.1766 30.4315L1.00792 30.667L1.03896 32.6668ZM35.8195 15.7498L36.3168 1.85657L34.318 1.78503L33.8208 15.6783L35.8195 15.7498ZM22.9031 18.4476L11.9328 8.21759L10.5688 9.68029L21.5391 19.9103L22.9031 18.4476ZM46.3442 20.1087L57.2561 8.407L55.7934 7.043L44.8814 18.7447L46.3442 20.1087ZM50.7698 32.1205L67.0513 31.6665L66.9956 29.6673L50.7141 30.1213L50.7698 32.1205Z" fill="white"/>
</svg>
