<svg width="456" height="470" viewBox="0 0 456 470" fill="none" xmlns="http://www.w3.org/2000/svg">
<path fill-rule="evenodd" clip-rule="evenodd" d="M0 0H456V470H0V0Z" fill="#005077"/>
<mask id="mask0_101_4010" style="mask-type:alpha" maskUnits="userSpaceOnUse" x="0" y="0" width="456" height="470">
<path fill-rule="evenodd" clip-rule="evenodd" d="M0 0H456V470H0V0Z" fill="white"/>
</mask>
<g mask="url(#mask0_101_4010)">
<g opacity="0.1">
<g opacity="0.630288">
<path fill-rule="evenodd" clip-rule="evenodd" d="M-3.03139 477.673L1.8391 489.727C3.09323 492.832 6.6689 494.373 9.73816 493.133L25.2755 486.855C28.345 485.615 29.8302 482.061 28.5761 478.957L22.228 463.245C20.9739 460.141 17.4365 458.616 14.367 459.856L2.88004 464.497C-3.66541 467.015 -4.74844 465.597 -7.07619 459.836L-11.8526 448.014C-13.1068 444.909 -16.6443 443.384 -19.7138 444.624L-35.2509 450.902C-38.3204 452.142 -39.8058 455.697 -38.5517 458.801L-32.2037 474.513C-30.9496 477.617 -27.4119 479.142 -24.3423 477.901L-14.3176 473.851C-8.16217 471.364 -5.76538 470.906 -3.03139 477.673Z" fill="white"/>
<path fill-rule="evenodd" clip-rule="evenodd" d="M-2.71573 444.24L0.772809 452.874C1.46211 454.581 3.42179 455.412 5.12827 454.723L13.7647 451.233C15.4709 450.544 16.3032 448.584 15.6139 446.878L12.1253 438.244C11.4361 436.538 9.47618 435.707 7.76999 436.396L-0.866424 439.885C-2.5729 440.575 -3.40492 442.534 -2.71573 444.24Z" fill="white"/>
</g>
<g opacity="0.969365">
<path fill-rule="evenodd" clip-rule="evenodd" d="M63.0297 477.787L67.0474 490.153C68.0819 493.337 71.5414 495.124 74.6897 494.101L90.627 488.922C93.7756 487.899 95.5051 484.457 94.4705 481.273L89.234 465.157C88.1995 461.973 84.777 460.205 81.6285 461.228L69.8458 465.056C63.1407 467.111 62.1592 465.621 60.239 459.712L56.2988 447.585C55.2643 444.401 51.8418 442.633 48.6932 443.656L32.7561 448.834C29.6075 449.857 27.8778 453.3 28.9123 456.484L34.1488 472.6C35.1834 475.784 38.6061 477.552 41.7547 476.529L52.0376 473.188C58.3514 471.136 60.7744 470.846 63.0297 477.787Z" fill="white"/>
<path fill-rule="evenodd" clip-rule="evenodd" d="M65.6782 444.459L68.5559 453.315C69.1245 455.065 71.0214 456.032 72.7718 455.463L81.6306 452.584C83.3807 452.016 84.3477 450.119 83.7791 448.369L80.9013 439.512C80.3328 437.762 78.4356 436.796 76.6855 437.365L67.8267 440.243C66.0763 440.812 65.1096 442.709 65.6782 444.459Z" fill="white"/>
</g>
<g opacity="0.220154">
<path fill-rule="evenodd" clip-rule="evenodd" d="M129.083 477.859L132.229 490.475C133.039 493.723 136.365 495.747 139.577 494.946L155.837 490.892C159.049 490.092 161.014 486.778 160.204 483.53L156.105 467.087C155.295 463.839 152.004 461.837 148.792 462.637L136.771 465.635C129.939 467.217 129.064 465.662 127.56 459.633L124.476 447.261C123.666 444.013 120.375 442.01 117.163 442.811L100.903 446.865C97.6909 447.666 95.7252 450.979 96.5351 454.228L100.635 470.67C101.445 473.919 104.736 475.921 107.948 475.12L118.439 472.504C124.88 470.898 127.318 470.778 129.083 477.859Z" fill="white"/>
<path fill-rule="evenodd" clip-rule="evenodd" d="M134.051 444.796L136.304 453.832C136.749 455.618 138.574 456.714 140.36 456.269L149.398 454.015C151.184 453.57 152.281 451.745 151.835 449.96L149.583 440.924C149.137 439.139 147.312 438.043 145.527 438.488L136.489 440.741C134.703 441.187 133.606 443.011 134.051 444.796Z" fill="white"/>
</g>
<g opacity="0.18701">
<path fill-rule="evenodd" clip-rule="evenodd" d="M195.131 477.887L197.389 490.691C197.97 493.988 201.147 496.239 204.407 495.665L220.91 492.755C224.171 492.18 226.363 489.012 225.781 485.715L222.839 469.026C222.257 465.729 219.114 463.502 215.854 464.077L203.653 466.228C196.727 467.33 195.962 465.719 194.883 459.599L192.669 447.042C192.088 443.745 188.945 441.518 185.685 442.093L169.182 445.003C165.922 445.577 163.73 448.746 164.311 452.043L167.254 468.731C167.835 472.028 170.978 474.255 174.239 473.68L184.886 471.803C191.424 470.65 193.864 470.7 195.131 477.887Z" fill="white"/>
<path fill-rule="evenodd" clip-rule="evenodd" d="M202.393 445.251L204.01 454.422C204.33 456.234 206.074 457.455 207.886 457.136L217.06 455.518C218.872 455.199 220.093 453.455 219.774 451.643L218.157 442.472C217.837 440.66 216.093 439.439 214.281 439.759L205.108 441.376C203.295 441.696 202.074 443.439 202.393 445.251Z" fill="white"/>
</g>
<g opacity="0.531717">
<path fill-rule="evenodd" clip-rule="evenodd" d="M261.18 477.871L262.539 490.802C262.889 494.131 265.902 496.598 269.194 496.252L285.86 494.501C289.152 494.155 291.559 491.147 291.209 487.818L289.438 470.965C289.088 467.635 286.108 465.194 282.816 465.54L270.495 466.835C263.509 467.451 262.858 465.79 262.209 459.61L260.876 446.93C260.526 443.6 257.546 441.159 254.254 441.505L237.588 443.257C234.296 443.603 231.888 446.61 232.238 449.94L234.009 466.793C234.359 470.122 237.339 472.563 240.632 472.217L251.385 471.087C257.987 470.393 260.418 470.613 261.18 477.871Z" fill="white"/>
<path fill-rule="evenodd" clip-rule="evenodd" d="M270.701 445.821L271.675 455.083C271.867 456.913 273.522 458.252 275.352 458.06L284.616 457.086C286.446 456.894 287.786 455.24 287.594 453.41L286.62 444.148C286.428 442.318 284.773 440.979 282.943 441.171L273.679 442.145C271.849 442.337 270.509 443.992 270.701 445.821Z" fill="white"/>
</g>
<g opacity="0.72339">
<path fill-rule="evenodd" clip-rule="evenodd" d="M-13.306 405.638L-24.3319 412.528C-27.1711 414.302 -28.0682 418.091 -26.314 420.899L-17.4339 435.11C-15.6795 437.917 -11.9211 438.763 -9.08195 436.989L5.28891 428.009C8.12806 426.235 9.01559 422.486 7.26123 419.678L0.696039 409.172C-2.92003 403.163 -1.71203 401.85 3.55762 398.558L14.3707 391.801C17.2098 390.027 18.0976 386.278 16.3433 383.471L7.46328 369.26C5.70892 366.452 1.95033 365.606 -0.888824 367.381L-15.2597 376.36C-18.0988 378.135 -18.9862 381.883 -17.2318 384.691L-11.5023 393.86C-7.98428 399.49 -7.11665 401.771 -13.306 405.638Z" fill="white"/>
<path fill-rule="evenodd" clip-rule="evenodd" d="M19.6751 400.146L11.7776 405.08C10.2171 406.056 9.73849 408.13 10.7138 409.691L15.6498 417.59C16.625 419.151 18.6993 419.63 20.2598 418.655L28.1573 413.72C29.7175 412.745 30.196 410.67 29.2208 409.11L24.2848 401.211C23.3095 399.65 21.2353 399.171 19.6751 400.146Z" fill="white"/>
</g>
<g opacity="0.4">
<path fill-rule="evenodd" clip-rule="evenodd" d="M53.1478 405.049L41.6681 411.153C38.7121 412.725 37.5528 416.442 39.1069 419.365L46.9741 434.161C48.5284 437.084 52.2187 438.189 55.1747 436.618L70.1369 428.662C73.0929 427.09 74.2397 423.413 72.6855 420.49L66.8692 409.551C63.6811 403.305 64.9777 402.079 70.4642 399.162L81.7223 393.176C84.6783 391.604 85.8254 387.927 84.2711 385.004L76.4041 370.208C74.8499 367.285 71.1594 366.179 68.2034 367.751L53.2412 375.706C50.2852 377.278 49.1385 380.956 50.6927 383.879L55.7687 393.425C58.8854 399.287 59.5918 401.623 53.1478 405.049Z" fill="white"/>
<path fill-rule="evenodd" clip-rule="evenodd" d="M27.5706 389.356L37.1637 384.255C39.0589 383.247 41.4341 383.974 42.4421 385.87L47.5439 395.465C48.5518 397.36 47.826 399.736 45.9308 400.743L36.3377 405.844C34.4426 406.852 32.0674 406.125 31.0595 404.23L25.9577 394.635C24.9497 392.739 25.6755 390.363 27.5706 389.356Z" fill="white"/>
<path fill-rule="evenodd" clip-rule="evenodd" d="M86.4294 401.87L78.207 406.242C76.5823 407.106 75.9601 409.142 76.8242 410.767L81.1971 418.991C82.061 420.616 84.0969 421.239 85.7216 420.375L93.9441 416.003C95.5685 415.139 96.1905 413.103 95.3266 411.478L90.9536 403.254C90.0896 401.629 88.0539 401.006 86.4294 401.87Z" fill="white"/>
</g>
<g opacity="0.5">
<path fill-rule="evenodd" clip-rule="evenodd" d="M119.646 404.447L107.769 409.735C104.71 411.097 103.295 414.724 104.641 417.748L111.457 433.057C112.804 436.081 116.408 437.441 119.466 436.08L134.947 429.187C138.005 427.826 139.406 424.237 138.059 421.213L133.02 409.895C130.276 403.441 131.655 402.309 137.331 399.782L148.98 394.596C152.038 393.234 153.439 389.645 152.092 386.621L145.276 371.313C143.93 368.288 140.326 366.928 137.267 368.289L121.786 375.182C118.728 376.544 117.328 380.132 118.674 383.157L123.072 393.034C125.772 399.099 126.314 401.478 119.646 404.447Z" fill="white"/>
<path fill-rule="evenodd" clip-rule="evenodd" d="M95.2282 387.007L105.154 382.588C107.115 381.715 109.433 382.606 110.307 384.567L114.727 394.495C115.6 396.456 114.71 398.775 112.749 399.648L102.824 404.067C100.863 404.94 98.5442 404.05 97.671 402.089L93.2509 392.161C92.3776 390.2 93.2673 387.88 95.2282 387.007Z" fill="white"/>
<path fill-rule="evenodd" clip-rule="evenodd" d="M153.069 403.597L144.562 407.385C142.881 408.133 142.118 410.121 142.867 411.802L146.655 420.312C147.404 421.993 149.391 422.756 151.072 422.008L159.58 418.22C161.26 417.472 162.023 415.484 161.275 413.803L157.486 405.294C156.737 403.612 154.75 402.849 153.069 403.597Z" fill="white"/>
</g>
<g opacity="0.3">
<path fill-rule="evenodd" clip-rule="evenodd" d="M186.188 403.833L173.97 408.279C170.824 409.425 169.159 412.944 170.291 416.055L176.022 431.802C177.155 434.913 180.655 436.521 183.801 435.376L199.725 429.58C202.871 428.435 204.519 424.953 203.386 421.842L199.149 410.2C196.861 403.571 198.316 402.538 204.155 400.413L216.136 396.052C219.282 394.907 220.93 391.425 219.798 388.314L214.067 372.567C212.934 369.456 209.434 367.848 206.288 368.993L190.364 374.788C187.218 375.933 185.571 379.416 186.703 382.527L190.401 392.687C192.671 398.925 193.046 401.337 186.188 403.833Z" fill="white"/>
<path fill-rule="evenodd" clip-rule="evenodd" d="M163.045 384.732L173.255 381.016C175.272 380.282 177.523 381.332 178.257 383.35L181.974 393.562C182.708 395.579 181.659 397.83 179.642 398.565L169.432 402.281C167.415 403.015 165.164 401.965 164.43 399.947L160.713 389.735C159.979 387.718 161.028 385.466 163.045 384.732Z" fill="white"/>
<path fill-rule="evenodd" clip-rule="evenodd" d="M219.587 405.317L210.836 408.502C209.107 409.131 208.208 411.061 208.837 412.79L212.023 421.543C212.652 423.272 214.582 424.173 216.311 423.543L225.062 420.358C226.791 419.729 227.69 417.799 227.061 416.07L223.875 407.317C223.245 405.588 221.316 404.688 219.587 405.317Z" fill="white"/>
</g>
<g opacity="0.20237">
<path fill-rule="evenodd" clip-rule="evenodd" d="M252.773 403.211L240.275 406.795C237.057 407.718 235.15 411.113 236.062 414.295L240.681 430.403C241.594 433.585 244.974 435.434 248.192 434.511L264.481 429.84C267.699 428.918 269.586 425.559 268.673 422.377L265.258 410.467C263.438 403.695 264.962 402.766 270.935 401.053L283.191 397.538C286.409 396.616 288.296 393.257 287.384 390.075L282.765 373.966C281.852 370.784 278.472 368.935 275.254 369.858L258.965 374.529C255.747 375.452 253.86 378.811 254.773 381.993L257.753 392.386C259.583 398.768 259.788 401.199 252.773 403.211Z" fill="white"/>
<path fill-rule="evenodd" clip-rule="evenodd" d="M231.016 382.543L241.46 379.548C243.523 378.956 245.695 380.161 246.287 382.225L249.282 392.671C249.874 394.735 248.67 396.907 246.607 397.499L236.163 400.494C234.1 401.085 231.928 399.881 231.336 397.817L228.34 387.371C227.749 385.307 228.952 383.134 231.016 382.543Z" fill="white"/>
<path fill-rule="evenodd" clip-rule="evenodd" d="M285.988 407.022L277.036 409.588C275.267 410.096 274.235 411.958 274.743 413.727L277.31 422.681C277.817 424.45 279.679 425.482 281.448 424.975L290.4 422.408C292.168 421.901 293.2 420.039 292.693 418.27L290.125 409.316C289.618 407.547 287.756 406.514 285.988 407.022Z" fill="white"/>
</g>
<g opacity="0.643232">
<path fill-rule="evenodd" clip-rule="evenodd" d="M-9.83169 327.896L-18.5315 318.234C-20.7716 315.746 -24.6589 315.52 -27.1189 317.735L-39.5722 328.948C-42.0324 331.163 -42.2123 335.011 -39.9721 337.499L-28.6332 350.093C-26.393 352.58 -22.5474 352.804 -20.0871 350.588L-10.8803 342.298C-5.59067 337.694 -4.0881 338.656 0.0697799 343.273L8.60155 352.749C10.8417 355.237 14.6876 355.46 17.1478 353.245L29.6009 342.032C32.0611 339.817 32.2412 335.969 30.0011 333.481L18.6621 320.888C16.422 318.4 12.5761 318.177 10.1158 320.392L2.08088 327.627C-2.85271 332.069 -4.94817 333.319 -9.83169 327.896Z" fill="white"/>
<path fill-rule="evenodd" clip-rule="evenodd" d="M-0.791391 299.282L6.47858 307.356C7.91482 308.951 7.78429 311.431 6.18879 312.868L-1.8871 320.14C-3.4826 321.576 -5.96295 321.446 -7.39918 319.851L-14.6692 311.777C-16.1054 310.182 -15.9751 307.702 -14.3796 306.265L-6.3037 298.994C-4.70821 297.557 -2.22763 297.687 -0.791391 299.282Z" fill="white"/>
<path fill-rule="evenodd" clip-rule="evenodd" d="M1.3048 359.421L-4.92651 352.5C-6.15776 351.132 -8.28367 351.021 -9.65142 352.253L-16.5736 358.486C-17.9411 359.717 -18.053 361.843 -16.8217 363.21L-10.5904 370.131C-9.35938 371.498 -7.23325 371.609 -5.86572 370.378L1.05643 364.145C2.42419 362.914 2.53584 360.788 1.3048 359.421Z" fill="white"/>
</g>
<g opacity="0.135167">
<path fill-rule="evenodd" clip-rule="evenodd" d="M57.3867 327.576L49.3821 317.331C47.3209 314.693 43.4589 314.197 40.8503 316.235L27.6452 326.552C25.0364 328.59 24.5886 332.416 26.6497 335.054L37.0826 348.408C39.1437 351.046 42.9644 351.537 45.5732 349.498L55.3359 341.871C60.9339 337.647 62.3657 338.711 66.1913 343.607L74.0413 353.655C76.1025 356.293 79.9234 356.784 82.5322 354.746L95.737 344.429C98.3458 342.391 98.7939 338.564 96.7328 335.926L86.2999 322.573C84.2388 319.935 80.4178 319.444 77.809 321.482L69.289 328.139C64.0575 332.226 61.88 333.327 57.3867 327.576Z" fill="white"/>
<path fill-rule="evenodd" clip-rule="evenodd" d="M68.4005 299.663L75.0896 308.224C76.4111 309.916 76.1078 312.381 74.416 313.703L65.8525 320.393C64.1607 321.715 61.6954 321.413 60.374 319.721L53.6849 311.16C52.3635 309.468 52.6665 307.003 54.3583 305.681L62.9217 298.991C64.6136 297.669 67.0791 297.971 68.4005 299.663Z" fill="white"/>
<path fill-rule="evenodd" clip-rule="evenodd" d="M66.2961 359.801L60.5628 352.463C59.4299 351.013 57.3169 350.754 55.8666 351.887L48.5265 357.621C47.0765 358.754 46.8165 360.867 47.9494 362.317L53.6828 369.656C54.8154 371.106 56.9287 371.365 58.3787 370.232L65.7188 364.497C67.1691 363.364 67.4288 361.251 66.2961 359.801Z" fill="white"/>
</g>
<g opacity="0.597194">
<path fill-rule="evenodd" clip-rule="evenodd" d="M124.627 327.295L117.357 316.516C115.485 313.741 111.667 312.976 108.923 314.828L95.03 324.198C92.2853 326.049 91.5717 329.835 93.4438 332.611L102.92 346.659C104.792 349.435 108.569 350.191 111.314 348.34L121.585 341.412C127.464 337.588 128.818 338.75 132.292 343.901L139.422 354.472C141.295 357.247 145.072 358.004 147.816 356.153L161.709 346.782C164.453 344.931 165.167 341.145 163.295 338.369L153.819 324.321C151.947 321.545 148.17 320.789 145.425 322.641L136.462 328.687C130.958 332.399 128.709 333.346 124.627 327.295Z" fill="white"/>
<path fill-rule="evenodd" clip-rule="evenodd" d="M137.563 300.217L143.638 309.225C144.838 311.004 144.364 313.442 142.584 314.643L133.575 320.72C131.795 321.92 129.357 321.447 128.156 319.667L122.081 310.66C120.881 308.88 121.355 306.442 123.135 305.242L132.144 299.165C133.924 297.964 136.362 298.438 137.563 300.217Z" fill="white"/>
<path fill-rule="evenodd" clip-rule="evenodd" d="M131.266 360.063L126.059 352.342C125.03 350.817 122.94 350.411 121.414 351.44L113.692 356.649C112.166 357.678 111.76 359.768 112.789 361.293L117.996 369.014C119.025 370.539 121.115 370.945 122.641 369.916L130.363 364.707C131.889 363.678 132.295 361.588 131.266 360.063Z" fill="white"/>
</g>
<g opacity="0.407887">
<path fill-rule="evenodd" clip-rule="evenodd" d="M191.886 327.054L185.385 315.795C183.711 312.895 179.956 311.866 177.089 313.522L162.576 321.9C159.709 323.556 158.733 327.282 160.407 330.182L168.88 344.857C170.554 347.757 174.269 348.774 177.136 347.119L187.866 340.925C193.997 337.52 195.267 338.773 198.374 344.155L204.749 355.197C206.423 358.096 210.138 359.114 213.005 357.459L227.517 349.081C230.385 347.425 231.361 343.698 229.687 340.799L221.214 326.124C219.54 323.224 215.825 322.207 212.957 323.862L203.594 329.268C197.845 332.587 195.535 333.375 191.886 327.054Z" fill="white"/>
<path fill-rule="evenodd" clip-rule="evenodd" d="M206.679 300.945L212.111 310.354C213.184 312.213 212.541 314.612 210.682 315.686L201.27 321.119C199.411 322.193 197.012 321.55 195.939 319.691L190.506 310.282C189.433 308.423 190.076 306.024 191.936 304.951L201.347 299.517C203.206 298.444 205.606 299.086 206.679 300.945Z" fill="white"/>
<path fill-rule="evenodd" clip-rule="evenodd" d="M196.226 360.206L191.57 352.141C190.65 350.547 188.593 349.997 186.999 350.917L178.933 355.574C177.339 356.494 176.788 358.551 177.708 360.144L182.364 368.209C183.284 369.802 185.34 370.353 186.934 369.433L195.001 364.776C196.595 363.855 197.146 361.799 196.226 360.206Z" fill="white"/>
</g>
<g opacity="0.604777">
<path fill-rule="evenodd" clip-rule="evenodd" d="M259.159 326.854L253.46 315.168C251.992 312.159 248.318 310.871 245.343 312.322L230.281 319.668C227.305 321.119 226.072 324.769 227.539 327.778L234.968 343.009C236.436 346.018 240.071 347.292 243.046 345.841L254.181 340.41C260.535 337.442 261.715 338.78 264.439 344.365L270.028 355.825C271.496 358.835 275.131 360.109 278.107 358.658L293.168 351.312C296.143 349.861 297.377 346.211 295.91 343.202L288.481 327.971C287.014 324.962 283.378 323.688 280.402 325.139L270.685 329.879C264.718 332.789 262.359 333.414 259.159 326.854Z" fill="white"/>
<path fill-rule="evenodd" clip-rule="evenodd" d="M275.737 301.84L280.5 311.605C281.441 313.534 280.632 315.883 278.702 316.824L268.935 321.588C267.005 322.529 264.657 321.721 263.716 319.792L258.953 310.026C258.012 308.097 258.821 305.749 260.751 304.808L270.518 300.044C272.448 299.103 274.796 299.911 275.737 301.84Z" fill="white"/>
<path fill-rule="evenodd" clip-rule="evenodd" d="M261.174 360.227L257.092 351.857C256.285 350.203 254.272 349.51 252.618 350.317L244.246 354.4C242.592 355.207 241.899 357.22 242.705 358.874L246.788 367.244C247.594 368.897 249.607 369.59 251.261 368.783L259.633 364.7C261.288 363.893 261.981 361.881 261.174 360.227Z" fill="white"/>
</g>
<g opacity="0.728465">
<path fill-rule="evenodd" clip-rule="evenodd" d="M326.445 326.696L321.575 314.641C320.321 311.537 316.745 309.996 313.676 311.236L298.139 317.513C295.069 318.753 293.584 322.308 294.838 325.412L301.186 341.124C302.44 344.228 305.978 345.753 309.047 344.513L320.534 339.872C327.079 337.354 328.163 338.772 330.49 344.533L335.267 356.355C336.521 359.459 340.058 360.984 343.128 359.744L358.665 353.467C361.734 352.227 363.22 348.672 361.966 345.568L355.618 329.856C354.364 326.752 350.826 325.227 347.756 326.467L337.732 330.518C331.576 333.005 329.179 333.463 326.445 326.696Z" fill="white"/>
<path fill-rule="evenodd" clip-rule="evenodd" d="M344.726 302.899L348.796 312.973C349.6 314.963 348.629 317.249 346.638 318.054L336.562 322.125C334.572 322.929 332.285 321.959 331.481 319.969L327.411 309.895C326.607 307.905 327.578 305.619 329.569 304.814L339.645 300.743C341.635 299.939 343.922 300.909 344.726 302.899Z" fill="white"/>
<path fill-rule="evenodd" clip-rule="evenodd" d="M326.13 360.129L322.641 351.494C321.952 349.788 319.992 348.957 318.286 349.646L309.649 353.135C307.943 353.825 307.111 355.784 307.8 357.49L311.289 366.125C311.978 367.831 313.938 368.662 315.644 367.973L324.28 364.483C325.987 363.794 326.819 361.834 326.13 360.129Z" fill="white"/>
</g>
<g opacity="0.913264">
<path fill-rule="evenodd" clip-rule="evenodd" d="M1.65136 262.705L9.65594 252.46C11.7171 249.821 11.2642 245.954 8.65564 243.916L-4.54948 233.599C-7.15828 231.561 -10.9792 232.052 -13.0403 234.69L-23.4732 248.044C-25.5344 250.682 -25.0863 254.508 -22.4775 256.546L-12.7148 264.173C-7.26169 268.583 -7.94785 270.23 -11.7735 275.126L-19.6235 285.174C-21.6846 287.812 -21.2368 291.638 -18.628 293.676L-5.42311 303.993C-2.81431 306.031 1.00683 305.541 3.06798 302.902L13.5009 289.549C15.562 286.911 15.1137 283.085 12.5049 281.046L3.98489 274.39C-1.24655 270.303 -2.84193 268.456 1.65136 262.705Z" fill="white"/>
<path fill-rule="evenodd" clip-rule="evenodd" d="M31.4002 266.639L24.7112 275.2C23.3897 276.892 20.9242 277.194 19.2324 275.872L10.6689 269.181C8.97712 267.86 8.67412 265.395 9.99559 263.703L16.6846 255.142C18.0061 253.45 20.4714 253.148 22.1632 254.47L30.7266 261.16C32.4185 262.482 32.7217 264.947 31.4002 266.639Z" fill="white"/>
</g>
<g opacity="0.755611">
<path fill-rule="evenodd" clip-rule="evenodd" d="M68.7374 263.183L77.4372 253.521C79.6774 251.033 79.4953 247.143 77.0353 244.928L64.582 233.715C62.1218 231.5 58.2759 231.723 56.0358 234.211L44.6968 246.804C42.4566 249.292 42.6367 253.14 45.097 255.356L54.3038 263.645C59.4361 268.425 58.6367 270.02 54.4788 274.637L45.9471 284.113C43.7069 286.601 43.8868 290.449 46.347 292.664L58.8001 303.877C61.2603 306.092 65.1064 305.869 67.3466 303.381L78.6855 290.788C80.9257 288.3 80.7454 284.452 78.2851 282.237L70.2502 275.002C65.3166 270.56 63.8539 268.606 68.7374 263.183Z" fill="white"/>
<path fill-rule="evenodd" clip-rule="evenodd" d="M98.139 269.182L90.8691 277.256C89.4328 278.851 86.9523 278.981 85.3568 277.544L77.2809 270.273C75.6854 268.836 75.5551 266.356 76.9913 264.761L84.2613 256.686C85.6975 255.091 88.1779 254.962 89.7734 256.398L97.8493 263.67C99.4448 265.106 99.5753 267.587 98.139 269.182Z" fill="white"/>
<path fill-rule="evenodd" clip-rule="evenodd" d="M38.5507 277.553L44.782 270.633C46.0132 269.265 45.9016 267.139 44.5338 265.908L37.6117 259.675C36.2441 258.444 34.118 258.555 32.8868 259.922L26.6554 266.843C25.4244 268.21 25.5363 270.336 26.9038 271.567L33.826 277.8C35.1937 279.032 37.3196 278.921 38.5507 277.553Z" fill="white"/>
</g>
<g opacity="0.52853">
<path fill-rule="evenodd" clip-rule="evenodd" d="M135.789 263.688L145.142 254.656C147.55 252.331 147.64 248.438 145.34 246.057L133.699 234.002C131.4 231.621 127.548 231.575 125.139 233.901L112.95 245.673C110.541 247.998 110.452 251.849 112.752 254.231L121.358 263.143C126.145 268.268 125.236 269.804 120.766 274.12L111.594 282.977C109.186 285.303 109.097 289.154 111.397 291.536L123.037 303.59C125.337 305.971 129.189 306.017 131.598 303.691L143.787 291.92C146.196 289.594 146.284 285.743 143.984 283.361L136.474 275.584C131.862 270.808 130.539 268.758 135.789 263.688Z" fill="white"/>
<path fill-rule="evenodd" clip-rule="evenodd" d="M164.701 271.724L156.885 279.271C155.341 280.762 152.858 280.718 151.366 279.174L143.817 271.357C142.326 269.812 142.369 267.329 143.913 265.838L151.729 258.291C153.273 256.799 155.756 256.843 157.247 258.388L164.796 266.205C166.288 267.749 166.245 270.233 164.701 271.724Z" fill="white"/>
<path fill-rule="evenodd" clip-rule="evenodd" d="M104.672 275.918L111.371 269.449C112.694 268.17 112.731 266.042 111.453 264.718L104.982 258.018C103.704 256.694 101.575 256.656 100.252 257.934L93.5526 264.403C92.2292 265.681 92.1925 267.81 93.4708 269.134L99.9413 275.834C101.22 277.158 103.348 277.196 104.672 275.918Z" fill="white"/>
</g>
<g opacity="0.163157">
<path fill-rule="evenodd" clip-rule="evenodd" d="M202.803 264.218L212.763 255.861C215.327 253.709 215.688 249.832 213.561 247.296L202.789 234.459C200.661 231.923 196.821 231.609 194.257 233.761L181.276 244.653C178.711 246.805 178.354 250.641 180.482 253.177L188.445 262.667C192.863 268.114 191.849 269.582 187.089 273.577L177.321 281.772C174.757 283.924 174.399 287.76 176.527 290.296L187.299 303.133C189.427 305.669 193.266 305.983 195.831 303.831L208.812 292.939C211.377 290.787 211.734 286.951 209.606 284.415L202.656 276.132C198.389 271.047 197.212 268.909 202.803 264.218Z" fill="white"/>
<path fill-rule="evenodd" clip-rule="evenodd" d="M231.086 274.25L222.763 281.234C221.119 282.614 218.644 282.397 217.264 280.752L210.279 272.427C208.899 270.783 209.115 268.309 210.759 266.929L219.082 259.945C220.726 258.565 223.201 258.782 224.581 260.427L231.566 268.752C232.946 270.396 232.73 272.871 231.086 274.25Z" fill="white"/>
<path fill-rule="evenodd" clip-rule="evenodd" d="M170.91 274.247L178.044 268.261C179.453 267.078 179.639 264.957 178.456 263.548L172.468 256.412C171.285 255.002 169.165 254.816 167.755 255.999L160.621 261.985C159.212 263.168 159.027 265.289 160.21 266.698L166.197 273.834C167.38 275.244 169.501 275.429 170.91 274.247Z" fill="white"/>
</g>
<g opacity="0.3">
<path fill-rule="evenodd" clip-rule="evenodd" d="M269.783 264.77L280.302 257.128C283.01 255.16 283.641 251.318 281.695 248.64L271.846 235.083C269.9 232.404 266.091 231.823 263.383 233.791L249.673 243.751C246.965 245.719 246.341 249.521 248.287 252.199L255.569 262.222C259.595 267.964 258.482 269.358 253.455 273.01L243.139 280.505C240.431 282.472 239.807 286.274 241.753 288.952L251.602 302.509C253.548 305.187 257.357 305.769 260.065 303.801L273.775 293.84C276.483 291.873 277.107 288.071 275.161 285.393L268.806 276.646C264.904 271.275 263.879 269.06 269.783 264.77Z" fill="white"/>
<path fill-rule="evenodd" clip-rule="evenodd" d="M297.295 276.751L288.505 283.137C286.768 284.399 284.315 284.01 283.053 282.273L276.666 273.481C275.404 271.744 275.792 269.291 277.528 268.029L286.318 261.643C288.055 260.382 290.508 260.77 291.77 262.507L298.157 271.299C299.419 273.036 299.031 275.49 297.295 276.751Z" fill="white"/>
<path fill-rule="evenodd" clip-rule="evenodd" d="M237.269 272.55L244.803 267.076C246.291 265.995 246.624 263.892 245.542 262.403L240.067 254.867C238.986 253.379 236.883 253.045 235.394 254.127L227.86 259.6C226.372 260.682 226.039 262.785 227.121 264.273L232.596 271.809C233.678 273.298 235.78 273.631 237.269 272.55Z" fill="white"/>
</g>
<g opacity="0.305131">
<path fill-rule="evenodd" clip-rule="evenodd" d="M470.479 266.534L482.356 261.246C485.415 259.884 486.83 256.257 485.484 253.232L478.668 237.924C477.321 234.899 473.717 233.539 470.659 234.901L455.178 241.793C452.12 243.155 450.719 246.743 452.066 249.768L457.105 261.086C459.849 267.539 458.47 268.671 452.794 271.199L441.145 276.385C438.087 277.746 436.686 281.335 438.033 284.359L444.849 299.668C446.195 302.692 449.799 304.053 452.858 302.691L468.339 295.799C471.397 294.437 472.797 290.848 471.451 287.824L467.053 277.946C464.353 271.882 463.811 269.502 470.479 266.534Z" fill="white"/>
<path fill-rule="evenodd" clip-rule="evenodd" d="M437.056 267.383L445.563 263.595C447.244 262.847 448.007 260.859 447.258 259.178L443.47 250.669C442.721 248.988 440.734 248.224 439.053 248.973L430.545 252.76C428.865 253.509 428.102 255.496 428.85 257.178L432.639 265.687C433.388 267.368 435.375 268.131 437.056 267.383Z" fill="white"/>
</g>
<g opacity="0.509313">
<path fill-rule="evenodd" clip-rule="evenodd" d="M2.16469 207.581L13.6444 213.684C16.6004 215.256 20.3304 214.139 21.8845 211.216L29.7516 196.42C31.3059 193.497 30.1588 189.819 27.2028 188.247L12.2405 180.292C9.28452 178.72 5.59449 179.826 4.04025 182.749L-1.77605 193.688C-5.1718 199.824 -6.91267 199.434 -12.3992 196.517L-23.6572 190.531C-26.6132 188.959 -30.3035 190.064 -31.8578 192.987L-39.7248 207.783C-41.279 210.706 -40.1321 214.384 -37.1761 215.956L-22.2138 223.911C-19.2578 225.483 -15.5677 224.377 -14.0134 221.454L-8.93746 211.908C-5.82073 206.046 -4.27934 204.154 2.16469 207.581Z" fill="white"/>
<path fill-rule="evenodd" clip-rule="evenodd" d="M3.4567 237.561L-6.13635 232.46C-8.03153 231.452 -8.75727 229.077 -7.74933 227.181L-2.6475 217.586C-1.63956 215.69 0.735555 214.964 2.63073 215.972L12.2238 221.072C14.119 222.08 14.8448 224.455 13.8369 226.351L8.73507 235.946C7.72714 237.842 5.35187 238.568 3.4567 237.561Z" fill="white"/>
</g>
<g opacity="0.01">
<path fill-rule="evenodd" clip-rule="evenodd" d="M68.4406 208.066L79.4666 214.956C82.3058 216.73 86.1046 215.875 87.8588 213.068L96.7389 198.857C98.4933 196.049 97.6055 192.301 94.7664 190.527L80.3955 181.547C77.5563 179.773 73.7982 180.618 72.0438 183.426L65.4786 193.932C61.6631 199.816 59.9537 199.306 54.684 196.013L43.871 189.257C41.0318 187.483 37.2734 188.328 35.519 191.135L26.6391 205.346C24.8847 208.154 25.7723 211.903 28.6115 213.677L42.9823 222.657C45.8215 224.431 49.5798 223.585 51.3342 220.778L57.0637 211.608C60.5817 205.978 62.2513 204.199 68.4406 208.066Z" fill="white"/>
<path fill-rule="evenodd" clip-rule="evenodd" d="M67.6366 238.064L58.4228 232.306C56.6025 231.169 56.0442 228.748 57.182 226.928L62.9407 217.712C64.0784 215.891 66.4984 215.332 68.3187 216.47L77.5325 222.227C79.3528 223.364 79.9112 225.785 78.7735 227.605L73.0148 236.821C71.8771 238.642 69.4569 239.201 67.6366 238.064Z" fill="white"/>
<path fill-rule="evenodd" clip-rule="evenodd" d="M49.0476 180.832L56.9451 185.767C58.5055 186.742 60.5797 186.263 61.555 184.702L66.4911 176.803C67.4662 175.242 66.9877 173.168 65.4273 172.193L57.5298 167.258C55.9696 166.283 53.8952 166.762 52.9201 168.323L47.984 176.222C47.0087 177.783 47.4874 179.857 49.0476 180.832Z" fill="white"/>
</g>
<g opacity="0.0283725">
<path fill-rule="evenodd" clip-rule="evenodd" d="M134.689 208.523L145.207 216.165C147.916 218.133 151.765 217.545 153.711 214.867L163.561 201.31C165.507 198.632 164.882 194.83 162.174 192.863L148.464 182.902C145.756 180.934 141.948 181.516 140.002 184.194L132.72 194.217C128.503 199.821 126.834 199.192 121.806 195.54L111.491 188.045C108.783 186.077 104.974 186.659 103.028 189.337L93.1788 202.894C91.2329 205.572 91.8568 209.374 94.5653 211.342L108.275 221.302C110.983 223.27 114.791 222.688 116.737 220.01L123.093 211.263C126.995 205.892 128.784 204.233 134.689 208.523Z" fill="white"/>
<path fill-rule="evenodd" clip-rule="evenodd" d="M131.795 238.391L123.005 232.005C121.268 230.744 120.88 228.29 122.142 226.553L128.53 217.761C129.792 216.025 132.245 215.636 133.981 216.897L142.771 223.284C144.508 224.545 144.896 226.998 143.634 228.735L137.246 237.527C135.984 239.264 133.531 239.653 131.795 238.391Z" fill="white"/>
<path fill-rule="evenodd" clip-rule="evenodd" d="M117.241 180.003L124.775 185.476C126.264 186.558 128.366 186.225 129.448 184.736L134.923 177.2C136.005 175.711 135.672 173.608 134.184 172.527L126.65 167.053C125.161 165.972 123.059 166.305 121.977 167.794L116.502 175.33C115.42 176.819 115.753 178.921 117.241 180.003Z" fill="white"/>
</g>
<g opacity="0.395558">
<path fill-rule="evenodd" clip-rule="evenodd" d="M200.901 208.948L210.861 217.305C213.426 219.457 217.306 219.139 219.434 216.603L230.206 203.766C232.334 201.23 231.976 197.395 229.412 195.243L216.43 184.35C213.866 182.198 210.027 182.512 207.899 185.049L199.935 194.539C195.338 199.835 193.716 199.092 188.956 195.098L179.188 186.902C176.624 184.75 172.784 185.064 170.656 187.6L159.885 200.437C157.757 202.973 158.114 206.809 160.679 208.961L173.66 219.853C176.225 222.005 180.064 221.691 182.192 219.155L189.142 210.872C193.409 205.786 195.31 204.256 200.901 208.948Z" fill="white"/>
<path fill-rule="evenodd" clip-rule="evenodd" d="M195.933 238.542L187.611 231.558C185.966 230.178 185.75 227.704 187.13 226.059L194.116 217.734C195.496 216.089 197.97 215.873 199.614 217.252L207.937 224.236C209.581 225.616 209.798 228.09 208.418 229.735L201.432 238.06C200.052 239.704 197.578 239.921 195.933 238.542Z" fill="white"/>
<path fill-rule="evenodd" clip-rule="evenodd" d="M185.484 179.279L192.618 185.265C194.028 186.448 196.148 186.262 197.331 184.853L203.319 177.717C204.502 176.307 204.316 174.186 202.907 173.004L195.773 167.018C194.364 165.835 192.243 166.021 191.06 167.431L185.073 174.566C183.89 175.976 184.075 178.097 185.484 179.279Z" fill="white"/>
</g>
<g opacity="0.0138225">
<path fill-rule="evenodd" clip-rule="evenodd" d="M267.086 209.34L276.439 218.371C278.847 220.697 282.74 220.651 285.04 218.27L296.681 206.215C298.981 203.834 298.892 199.983 296.483 197.657L284.293 185.885C281.885 183.56 278.033 183.605 275.734 185.987L267.127 194.899C262.172 199.861 260.606 199.007 256.136 194.69L246.964 185.833C244.556 183.507 240.704 183.553 238.404 185.934L226.764 197.988C224.464 200.37 224.553 204.221 226.961 206.547L239.151 218.318C241.559 220.644 245.411 220.598 247.711 218.217L255.221 210.439C259.833 205.664 261.836 204.27 267.086 209.34Z" fill="white"/>
<path fill-rule="evenodd" clip-rule="evenodd" d="M260.064 238.515L252.249 230.967C250.705 229.476 250.662 226.993 252.153 225.448L259.702 217.631C261.194 216.087 263.677 216.043 265.221 217.534L273.036 225.081C274.58 226.572 274.623 229.056 273.132 230.6L265.583 238.417C264.092 239.962 261.608 240.006 260.064 238.515Z" fill="white"/>
<path fill-rule="evenodd" clip-rule="evenodd" d="M253.777 178.669L260.476 185.138C261.8 186.416 263.928 186.379 265.207 185.055L271.677 178.354C272.956 177.031 272.919 174.902 271.595 173.624L264.896 167.155C263.573 165.877 261.444 165.914 260.166 167.238L253.695 173.938C252.417 175.262 252.454 177.391 253.777 178.669Z" fill="white"/>
</g>
<g opacity="0.3">
<path fill-rule="evenodd" clip-rule="evenodd" d="M333.246 209.696L341.946 219.358C344.186 221.846 348.073 222.072 350.533 219.857L362.986 208.644C365.446 206.429 365.626 202.58 363.386 200.092L352.047 187.499C349.807 185.011 345.961 184.788 343.501 187.003L334.294 195.293C329.005 199.898 327.502 198.936 323.344 194.318L314.813 184.843C312.572 182.355 308.727 182.132 306.266 184.347L293.813 195.56C291.353 197.775 291.173 201.623 293.413 204.111L304.752 216.704C306.992 219.192 310.838 219.415 313.298 217.2L321.333 209.965C326.267 205.523 328.362 204.273 333.246 209.696Z" fill="white"/>
<path fill-rule="evenodd" clip-rule="evenodd" d="M324.205 238.31L316.935 230.236C315.499 228.641 315.63 226.16 317.225 224.724L325.301 217.452C326.897 216.016 329.377 216.145 330.813 217.74L338.083 225.815C339.519 227.41 339.389 229.89 337.794 231.327L329.718 238.598C328.122 240.035 325.642 239.905 324.205 238.31Z" fill="white"/>
<path fill-rule="evenodd" clip-rule="evenodd" d="M322.109 178.171L328.341 185.092C329.572 186.459 331.698 186.57 333.065 185.339L339.988 179.106C341.355 177.875 341.467 175.749 340.236 174.381L334.004 167.461C332.773 166.094 330.647 165.983 329.28 167.214L322.358 173.447C320.99 174.678 320.878 176.804 322.109 178.171Z" fill="white"/>
</g>
<g opacity="0.735277">
<path fill-rule="evenodd" clip-rule="evenodd" d="M-9.14137 143.402L-13.1591 155.767C-14.1936 158.951 -12.4453 162.43 -9.29705 163.453L6.64032 168.632C9.7889 169.655 13.2114 167.886 14.246 164.702L19.4825 148.586C20.517 145.402 18.7875 141.96 15.6389 140.937L3.85621 137.108C-2.77626 134.83 -2.69469 133.048 -0.774502 127.138L3.16563 115.011C4.20017 111.827 2.47068 108.385 -0.677897 107.362L-16.615 102.184C-19.7635 101.161 -23.1864 102.929 -24.2209 106.113L-29.4574 122.229C-30.492 125.413 -28.7621 128.856 -25.6135 129.879L-15.3306 133.22C-9.01676 135.271 -6.88607 136.461 -9.14137 143.402Z" fill="white"/>
<path fill-rule="evenodd" clip-rule="evenodd" d="M12.5914 117.995L9.71364 126.852C9.14502 128.602 10.1117 130.499 11.8621 131.067L20.7209 133.946C22.471 134.514 24.3682 133.548 24.9368 131.798L27.8146 122.941C28.3831 121.192 27.4161 119.295 25.666 118.726L16.8072 115.848C15.0568 115.279 13.1599 116.245 12.5914 117.995Z" fill="white"/>
</g>
<g opacity="0.12358">
<path fill-rule="evenodd" clip-rule="evenodd" d="M56.9895 143.093L52.119 155.147C50.8649 158.251 52.3662 161.844 55.4355 163.084L70.9728 169.362C74.0423 170.602 77.5799 169.077 78.834 165.973L85.182 150.261C86.4361 147.157 84.9509 143.602 81.8813 142.362L70.3944 137.721C63.937 134.985 64.1427 133.213 66.4705 127.452L71.2469 115.63C72.501 112.526 71.0159 108.971 67.9463 107.731L52.4093 101.454C49.3398 100.213 45.8019 101.739 44.5478 104.843L38.1998 120.555C36.9457 123.659 38.4312 127.213 41.5008 128.453L51.5256 132.503C57.6809 134.99 59.7235 136.326 56.9895 143.093Z" fill="white"/>
<path fill-rule="evenodd" clip-rule="evenodd" d="M27.3079 147.511L31.378 137.438C32.182 135.448 34.4687 134.477 36.4593 135.282L46.5352 139.353C48.5258 140.157 49.4966 142.443 48.6925 144.433L44.6225 154.507C43.8184 156.497 41.532 157.467 39.5414 156.663L29.4655 152.592C27.4749 151.788 26.5039 149.501 27.3079 147.511Z" fill="white"/>
<path fill-rule="evenodd" clip-rule="evenodd" d="M80.4423 119.264L76.9538 127.898C76.2644 129.604 77.0965 131.564 78.8029 132.253L87.4394 135.743C89.1456 136.432 91.1055 135.601 91.7948 133.895L95.2834 125.26C95.9725 123.554 95.1402 121.595 93.4341 120.905L84.7976 117.416C83.0912 116.727 81.1315 117.558 80.4423 119.264Z" fill="white"/>
</g>
<g opacity="0.293905">
<path fill-rule="evenodd" clip-rule="evenodd" d="M123.141 142.746L117.442 154.431C115.974 157.44 117.221 161.129 120.196 162.58L135.258 169.926C138.233 171.378 141.869 170.103 143.336 167.094L150.765 151.863C152.233 148.854 150.999 145.205 148.023 143.753L136.888 138.322C130.637 135.143 130.966 133.39 133.69 127.805L139.28 116.344C140.747 113.335 139.514 109.686 136.538 108.235L121.477 100.889C118.501 99.4375 114.866 100.712 113.398 103.721L105.969 118.952C104.502 121.961 105.736 125.61 108.711 127.062L118.429 131.801C124.396 134.712 126.341 136.186 123.141 142.746Z" fill="white"/>
<path fill-rule="evenodd" clip-rule="evenodd" d="M93.2257 145.083L97.9885 135.318C98.9294 133.389 101.278 132.581 103.208 133.522L112.975 138.286C114.905 139.227 115.714 141.575 114.773 143.504L110.01 153.27C109.069 155.199 106.721 156.007 104.791 155.066L95.0236 150.302C93.0939 149.361 92.2847 147.012 93.2257 145.083Z" fill="white"/>
<path fill-rule="evenodd" clip-rule="evenodd" d="M148.198 120.611L144.115 128.981C143.309 130.635 144.002 132.648 145.656 133.454L154.028 137.538C155.682 138.344 157.695 137.652 158.502 135.998L162.584 127.628C163.391 125.974 162.697 123.961 161.043 123.155L152.671 119.071C151.017 118.264 149.004 118.957 148.198 120.611Z" fill="white"/>
</g>
<g opacity="0.51512">
<path fill-rule="evenodd" clip-rule="evenodd" d="M189.321 142.364L182.82 153.623C181.146 156.523 182.133 160.289 185 161.945L199.512 170.323C202.379 171.979 206.095 170.961 207.768 168.061L216.241 153.386C217.915 150.486 216.939 146.76 214.072 145.105L203.343 138.91C197.329 135.302 197.779 133.576 200.886 128.195L207.262 117.153C208.935 114.253 207.959 110.527 205.092 108.871L190.58 100.493C187.713 98.8373 183.998 99.8553 182.324 102.755L173.851 117.43C172.177 120.329 173.153 124.056 176.02 125.711L185.384 131.117C191.133 134.437 192.97 136.043 189.321 142.364Z" fill="white"/>
<path fill-rule="evenodd" clip-rule="evenodd" d="M159.316 142.609L164.748 133.199C165.821 131.341 168.221 130.698 170.08 131.772L179.491 137.205C181.351 138.279 181.994 140.678 180.92 142.537L175.488 151.946C174.415 153.805 172.016 154.447 170.156 153.374L160.745 147.94C158.886 146.867 158.242 144.468 159.316 142.609Z" fill="white"/>
<path fill-rule="evenodd" clip-rule="evenodd" d="M215.863 122.031L211.206 130.095C210.286 131.689 210.838 133.745 212.432 134.665L220.498 139.323C222.092 140.243 224.149 139.692 225.069 138.099L229.725 130.034C230.645 128.441 230.093 126.384 228.5 125.464L220.433 120.807C218.839 119.887 216.783 120.437 215.863 122.031Z" fill="white"/>
</g>
<g opacity="0.3">
<path fill-rule="evenodd" clip-rule="evenodd" d="M255.528 141.947L248.258 152.726C246.386 155.501 247.107 159.328 249.852 161.179L263.744 170.55C266.489 172.401 270.266 171.644 272.138 168.869L281.614 154.82C283.486 152.045 282.772 148.259 280.028 146.408L269.757 139.48C264.009 135.462 264.579 133.771 268.054 128.62L275.184 118.049C277.056 115.273 276.342 111.488 273.598 109.636L259.705 100.266C256.961 98.4147 253.183 99.1709 251.311 101.946L241.835 115.995C239.963 118.771 240.677 122.556 243.422 124.407L252.385 130.454C257.889 134.166 259.609 135.897 255.528 141.947Z" fill="white"/>
<path fill-rule="evenodd" clip-rule="evenodd" d="M225.578 140.099L231.654 131.091C232.854 129.312 235.292 128.838 237.072 130.039L246.082 136.116C247.862 137.316 248.336 139.754 247.135 141.534L241.06 150.541C239.86 152.321 237.422 152.794 235.642 151.594L226.632 145.517C224.852 144.316 224.378 141.878 225.578 140.099Z" fill="white"/>
<path fill-rule="evenodd" clip-rule="evenodd" d="M283.423 123.515L278.215 131.236C277.186 132.761 277.592 134.851 279.118 135.88L286.841 141.089C288.366 142.118 290.456 141.712 291.485 140.186L296.693 132.466C297.721 130.941 297.315 128.851 295.789 127.822L288.067 122.613C286.541 121.584 284.451 121.99 283.423 123.515Z" fill="white"/>
</g>
<g opacity="0.111808">
<path fill-rule="evenodd" clip-rule="evenodd" d="M321.763 141.499L313.758 151.745C311.697 154.383 312.15 158.25 314.758 160.288L327.964 170.605C330.572 172.643 334.393 172.152 336.454 169.514L346.887 156.161C348.948 153.522 348.5 149.696 345.892 147.658L336.129 140.031C330.676 135.621 331.362 133.974 335.188 129.078L343.038 119.03C345.099 116.392 344.651 112.566 342.042 110.528L328.837 100.211C326.228 98.1726 322.407 98.6635 320.346 101.302L309.913 114.655C307.852 117.293 308.3 121.119 310.909 123.158L319.429 129.814C324.661 133.902 326.256 135.748 321.763 141.499Z" fill="white"/>
<path fill-rule="evenodd" clip-rule="evenodd" d="M292.014 137.565L298.703 129.004C300.024 127.312 302.49 127.01 304.182 128.332L312.745 135.023C314.437 136.344 314.74 138.81 313.418 140.501L306.729 149.063C305.408 150.754 302.943 151.056 301.251 149.735L292.687 143.044C290.996 141.722 290.692 139.257 292.014 137.565Z" fill="white"/>
<path fill-rule="evenodd" clip-rule="evenodd" d="M350.874 125.058L345.141 132.396C344.008 133.846 344.268 135.959 345.718 137.092L353.058 142.827C354.508 143.96 356.621 143.701 357.754 142.251L363.488 134.912C364.62 133.463 364.36 131.349 362.91 130.217L355.57 124.482C354.12 123.349 352.007 123.608 350.874 125.058Z" fill="white"/>
</g>
<g opacity="0.0664139">
<path fill-rule="evenodd" clip-rule="evenodd" d="M388.032 141.021L379.332 150.683C377.092 153.171 377.274 157.061 379.734 159.276L392.187 170.489C394.648 172.704 398.494 172.481 400.734 169.993L412.073 157.4C414.313 154.912 414.133 151.064 411.673 148.849L402.466 140.559C397.333 135.779 398.133 134.185 402.291 129.567L410.822 120.091C413.063 117.603 412.883 113.755 410.422 111.54L397.969 100.327C395.509 98.1119 391.663 98.3351 389.423 100.823L378.084 113.416C375.844 115.904 376.024 119.752 378.484 121.967L386.519 129.202C391.453 133.644 392.916 135.598 388.032 141.021Z" fill="white"/>
<path fill-rule="evenodd" clip-rule="evenodd" d="M358.63 135.022L365.9 126.948C367.337 125.353 369.817 125.223 371.413 126.66L379.489 133.932C381.084 135.368 381.214 137.848 379.778 139.444L372.508 147.518C371.072 149.113 368.592 149.242 366.996 147.806L358.92 140.534C357.325 139.098 357.194 136.617 358.63 135.022Z" fill="white"/>
<path fill-rule="evenodd" clip-rule="evenodd" d="M418.219 126.651L411.988 133.571C410.756 134.939 410.868 137.065 412.236 138.296L419.158 144.529C420.525 145.76 422.652 145.649 423.883 144.282L430.114 137.361C431.345 135.994 431.233 133.868 429.866 132.637L422.944 126.404C421.576 125.172 419.45 125.284 418.219 126.651Z" fill="white"/>
</g>
<g opacity="0.220348">
<path fill-rule="evenodd" clip-rule="evenodd" d="M-13.5809 66.0111L-26.456 64.2016C-29.7713 63.7357 -32.894 66.0616 -33.3547 69.3397L-35.6869 85.9341C-36.1477 89.2125 -33.8119 92.276 -30.4967 92.7419L-13.7158 95.1003C-10.4005 95.5662 -7.31113 93.2652 -6.85038 89.9868L-5.12616 77.7184C-4.03384 70.791 -2.26464 70.5619 3.88874 71.4267L16.5152 73.2012C19.8305 73.6671 22.9201 71.3662 23.3809 68.0878L25.713 51.4936C26.1738 48.2152 23.8381 45.1515 20.5228 44.6855L3.74191 42.3271C0.426621 41.8612 -2.66278 44.1625 -3.12352 47.4409L-4.62827 58.1478C-5.55222 64.722 -6.35362 67.0268 -13.5809 66.0111Z" fill="white"/>
<path fill-rule="evenodd" clip-rule="evenodd" d="M15.215 83.0023L5.99309 81.7062C4.17092 81.4501 2.47092 82.7315 2.21477 84.554L0.918422 93.7781C0.662318 95.6003 1.94323 97.3009 3.7654 97.557L12.9873 98.8531C14.8092 99.1091 16.5092 97.8275 16.7653 96.0052L18.0617 86.7812C18.3178 84.9586 17.0369 83.2583 15.215 83.0023Z" fill="white"/>
</g>
<g opacity="0.831569">
<path fill-rule="evenodd" clip-rule="evenodd" d="M53.3071 65.4181L40.5896 62.7149C37.3149 62.0189 34.0375 64.1213 33.3493 67.3592L29.8652 83.7506C29.1768 86.9889 31.2932 90.2078 34.5679 90.9038L51.1434 94.4271C54.4181 95.1231 57.6605 93.0432 58.3488 89.805L60.9246 77.6867C62.4975 70.8523 64.2784 70.7472 70.3564 72.0391L82.8283 74.6901C86.103 75.3862 89.3457 73.3063 90.034 70.0681L93.518 53.677C94.2063 50.4387 92.09 47.2195 88.8153 46.5235L72.2398 43.0002C68.9651 42.3042 65.7227 44.3844 65.0344 47.6226L62.7864 58.1984C61.4062 64.6922 60.4459 66.9355 53.3071 65.4181Z" fill="white"/>
<path fill-rule="evenodd" clip-rule="evenodd" d="M43.8015 36.9556L54.4289 39.2145C56.5284 39.6608 57.8808 41.7443 57.4345 43.8443L55.175 54.474C54.7287 56.5741 52.6458 57.9271 50.5463 57.4808L39.9189 55.2219C37.8194 54.7756 36.4669 52.6924 36.9133 50.5924L39.1727 39.9627C39.6191 37.8626 41.702 36.5093 43.8015 36.9556Z" fill="white"/>
<path fill-rule="evenodd" clip-rule="evenodd" d="M80.8454 84.3763L71.7363 82.4401C69.9365 82.0576 68.1512 83.2172 67.7686 85.0175L65.832 94.1286C65.4494 95.9286 66.6085 97.7144 68.4084 98.097L77.5174 100.033C79.317 100.416 81.1023 99.2557 81.4849 97.4558L83.4215 88.3446C83.8042 86.5443 82.645 84.7588 80.8454 84.3763Z" fill="white"/>
</g>
<g opacity="0.725993">
<path fill-rule="evenodd" clip-rule="evenodd" d="M120.233 64.8413L107.735 61.2576C104.517 60.3348 101.101 62.2034 100.188 65.3855L95.5694 81.4939C94.6569 84.6762 96.5435 88.035 99.7617 88.9578L116.051 93.6287C119.269 94.5514 122.649 92.7028 123.561 89.5204L126.976 77.6113C129.022 70.9034 130.806 70.9227 136.779 72.6355L149.036 76.15C152.254 77.0728 155.634 75.2242 156.546 72.0418L161.165 55.9338C162.078 52.7514 160.191 49.3924 156.973 48.4696L140.683 43.7987C137.465 42.8759 134.086 44.7249 133.173 47.9072L130.193 58.3004C128.363 64.6821 127.249 66.853 120.233 64.8413Z" fill="white"/>
<path fill-rule="evenodd" clip-rule="evenodd" d="M112.734 35.7851L123.178 38.7798C125.242 39.3714 126.445 41.5442 125.854 43.608L122.858 54.0542C122.266 56.118 120.094 57.3224 118.031 56.7308L107.587 53.736C105.524 53.1444 104.32 50.9719 104.912 48.9081L107.907 38.4619C108.499 36.3981 110.671 35.1934 112.734 35.7851Z" fill="white"/>
<path fill-rule="evenodd" clip-rule="evenodd" d="M146.382 85.6742L137.431 83.1073C135.662 82.6001 133.8 83.6324 133.293 85.4016L130.725 94.3555C130.218 96.1244 131.25 97.9867 133.019 98.4939L141.97 101.061C143.739 101.568 145.601 100.535 146.108 98.7664L148.675 89.8125C149.183 88.0433 148.151 86.1813 146.382 85.6742Z" fill="white"/>
</g>
<g opacity="0.01">
<path fill-rule="evenodd" clip-rule="evenodd" d="M187.202 64.2832L174.985 59.8364C171.839 58.6914 168.301 60.3172 167.169 63.4279L161.437 79.1748C160.305 82.2858 161.953 85.7679 165.099 86.9129L181.023 92.7087C184.168 93.8538 187.669 92.2454 188.801 89.1344L193.038 77.4925C195.547 70.9436 197.325 71.0873 203.164 73.2126L215.146 77.5735C218.292 78.7186 221.792 77.1103 222.925 73.9993L228.656 58.2527C229.788 55.1417 228.141 51.6593 224.995 50.5142L209.071 44.7184C205.925 43.5734 202.425 45.1821 201.292 48.2931L197.594 58.4531C195.324 64.6915 194.061 66.7794 187.202 64.2832Z" fill="white"/>
<path fill-rule="evenodd" clip-rule="evenodd" d="M181.752 34.7745L191.962 38.4905C193.979 39.2246 195.028 41.476 194.294 43.4935L190.577 53.7053C189.843 55.7228 187.592 56.7728 185.575 56.0386L175.365 52.3227C173.348 51.5885 172.299 49.3374 173.033 47.3199L176.75 37.1081C177.484 35.0906 179.735 34.0404 181.752 34.7745Z" fill="white"/>
<path fill-rule="evenodd" clip-rule="evenodd" d="M211.833 86.8897L203.082 83.7046C201.353 83.0752 199.424 83.9751 198.795 85.7046L195.609 94.4576C194.979 96.1868 195.879 98.1165 197.608 98.7459L206.359 101.931C208.088 102.56 210.017 101.66 210.646 99.9308L213.832 91.1779C214.462 89.4484 213.562 87.5189 211.833 86.8897Z" fill="white"/>
</g>
<g opacity="0.864108">
<path fill-rule="evenodd" clip-rule="evenodd" d="M-3.81966 -6.91323L-4.27341 -19.9069C-4.39025 -23.2527 -7.22307 -25.9242 -10.5314 -25.8086L-27.2787 -25.2238C-30.5873 -25.1083 -33.1986 -22.2761 -33.0818 -18.9302L-32.4904 -1.99475C-32.3735 1.35108 -29.571 3.99393 -26.2624 3.87839L-13.8809 3.44602C-6.8691 3.31882 -6.33624 5.02135 -6.11938 11.2314L-5.67439 23.9742C-5.55755 27.32 -2.75503 29.9632 0.553563 29.8476L17.3006 29.2628C20.6092 29.1473 23.2208 26.315 23.104 22.9692L22.5126 6.03373C22.3957 2.68791 19.5929 0.0450641 16.2843 0.160603L5.47883 0.537939C-1.15593 0.769629 -3.56495 0.380634 -3.81966 -6.91323Z" fill="white"/>
</g>
<g opacity="0.225614">
<path fill-rule="evenodd" clip-rule="evenodd" d="M63.4819 -6.81033L63.9356 -19.804C64.0525 -23.1498 61.4129 -26.0124 58.1046 -26.1279L41.3573 -26.7127C38.0487 -26.8283 35.2461 -24.1851 35.1293 -20.8393L34.5379 -3.9038C34.4211 -0.557975 37.0324 2.27393 40.341 2.38947L52.7225 2.82184C59.7261 3.18407 60.1389 4.91963 59.922 11.1297L59.4771 23.8725C59.3602 27.2183 61.9715 30.0505 65.2801 30.166L82.0271 30.7509C85.3357 30.8664 88.1386 28.2232 88.2554 24.8774L88.8468 7.94194C88.9636 4.59611 86.352 1.76419 83.0434 1.64865L72.2379 1.27132C65.6032 1.03962 63.2272 0.483533 63.4819 -6.81033Z" fill="white"/>
<path fill-rule="evenodd" clip-rule="evenodd" d="M49.5933 23.6025L49.9183 14.2956C49.9825 12.4566 48.5305 10.8999 46.6911 10.8357L37.3821 10.5106C35.5431 10.4464 33.9857 11.898 33.9214 13.737L33.5964 23.0438C33.5322 24.8825 34.9846 26.4392 36.8236 26.5035L46.1326 26.8285C47.972 26.8928 49.5291 25.4411 49.5933 23.6025Z" fill="white"/>
</g>
<g opacity="0.794542">
<path fill-rule="evenodd" clip-rule="evenodd" d="M130.77 -6.66355L132.129 -19.5939C132.479 -22.9235 130.046 -25.9631 126.754 -26.3092L110.088 -28.0608C106.795 -28.4069 103.815 -25.9656 103.465 -22.6361L101.694 -5.78313C101.344 -2.45361 103.752 0.553563 107.044 0.899616L119.365 2.19462C126.326 3.04452 126.617 4.80464 125.968 10.9845L124.635 23.6651C124.285 26.9947 126.692 30.0021 129.985 30.3482L146.65 32.0998C149.943 32.4458 152.923 30.0046 153.273 26.6751L155.044 9.82215C155.394 6.49262 152.987 3.48542 149.694 3.13937L138.941 2.0092C132.339 1.31526 130.007 0.594777 130.77 -6.66355Z" fill="white"/>
<path fill-rule="evenodd" clip-rule="evenodd" d="M114.795 22.7066L115.768 13.4451C115.961 11.6151 114.621 9.96086 112.79 9.76848L103.527 8.79483C101.697 8.60248 100.042 9.94196 99.8495 11.772L98.876 21.0335C98.6837 22.8632 100.024 24.5175 101.854 24.7098L111.118 25.6835C112.948 25.8758 114.603 24.5363 114.795 22.7066Z" fill="white"/>
</g>
<g opacity="0.867934">
<path fill-rule="evenodd" clip-rule="evenodd" d="M198.048 -6.47525L200.306 -19.2793C200.887 -22.5763 198.672 -25.7784 195.411 -26.3532L178.909 -29.2631C175.648 -29.838 172.505 -27.6106 171.924 -24.3136L168.981 -7.62522C168.4 -4.32822 170.592 -1.16044 173.852 -0.585561L186.053 1.56577C192.938 2.89919 193.105 4.67531 192.026 10.7948L189.812 23.3516C189.231 26.6486 191.422 29.8167 194.683 30.3915L211.185 33.3014C214.446 33.8763 217.589 31.6489 218.17 28.3519L221.113 11.6636C221.694 8.36657 219.502 5.19874 216.242 4.62386L205.594 2.74636C199.056 1.59354 196.781 0.712187 198.048 -6.47525Z" fill="white"/>
<path fill-rule="evenodd" clip-rule="evenodd" d="M180.061 21.7089L181.678 12.5378C181.998 10.7257 180.777 8.98199 178.964 8.66239L169.791 7.04491C167.979 6.72537 166.235 7.94615 165.915 9.75827L164.298 18.9293C163.978 20.7412 165.2 22.4849 167.012 22.8044L176.185 24.4219C177.998 24.7415 179.742 23.5207 180.061 21.7089Z" fill="white"/>
</g>
<g opacity="0.20686">
<path fill-rule="evenodd" clip-rule="evenodd" d="M265.309 -6.24529L268.455 -18.8607C269.264 -22.1091 267.278 -25.4579 264.066 -26.2587L247.806 -30.3127C244.594 -31.1137 241.303 -29.1109 240.493 -25.8625L236.393 -9.42006C235.583 -6.17164 237.549 -2.85869 240.761 -2.05778L252.782 0.9394C259.558 2.74985 259.6 4.5333 258.097 10.5626L255.013 22.9344C254.203 26.1828 256.168 29.496 259.38 30.2969L275.64 34.3509C278.852 35.1518 282.143 33.1491 282.953 29.9007L287.053 13.4583C287.863 10.2099 285.897 6.89683 282.685 6.09592L272.194 3.48025C265.752 1.87417 263.544 0.836231 265.309 -6.24529Z" fill="white"/>
<path fill-rule="evenodd" clip-rule="evenodd" d="M245.403 20.6153L247.656 11.5794C248.101 9.79397 247.004 7.96934 245.219 7.52409L236.181 5.27066C234.395 4.82548 232.57 5.92162 232.125 7.70704L229.872 16.743C229.427 18.5281 230.524 20.3528 232.309 20.798L241.347 23.0514C243.133 23.4966 244.958 22.4004 245.403 20.6153Z" fill="white"/>
</g>
<g opacity="0.01">
<path fill-rule="evenodd" clip-rule="evenodd" d="M399.78 -5.66575L404.651 -17.7206C405.905 -20.8247 404.403 -24.4174 401.334 -25.6575L385.797 -31.935C382.727 -33.1751 379.19 -31.6499 377.936 -28.5458L371.588 -12.8339C370.333 -9.72983 371.819 -6.17558 374.888 -4.9354L386.375 -0.294389C392.832 2.44137 392.627 4.21345 390.299 9.97484L385.523 21.7969C384.268 24.901 385.754 28.4555 388.823 29.6957L404.36 35.9731C407.43 37.2133 410.968 35.6881 412.222 32.584L418.57 16.8722C419.824 13.7681 418.338 10.2137 415.269 8.97354L405.244 4.92327C399.089 2.43633 397.046 1.10113 399.78 -5.66575Z" fill="white"/>
<path fill-rule="evenodd" clip-rule="evenodd" d="M429.462 -10.0846L425.392 -0.0108857C424.588 1.97924 422.301 2.94932 420.31 2.14505L410.234 -1.92587C408.244 -2.73013 407.273 -5.0163 408.077 -7.00643L412.147 -17.0801C412.951 -19.0702 415.238 -20.0404 417.228 -19.2362L427.304 -15.1652C429.295 -14.361 430.266 -12.0747 429.462 -10.0846Z" fill="white"/>
<path fill-rule="evenodd" clip-rule="evenodd" d="M376.327 18.1628L379.816 9.52839C380.505 7.8223 379.673 5.86281 377.967 5.17335L369.33 1.68401C367.624 0.994667 365.664 1.82612 364.975 3.53221L361.486 12.1666C360.797 13.8725 361.629 15.8321 363.335 16.5214L371.972 20.0107C373.678 20.7002 375.638 19.8686 376.327 18.1628Z" fill="white"/>
</g>
<g opacity="0.523251">
<path fill-rule="evenodd" clip-rule="evenodd" d="M466.984 -5.31892L472.683 -17.0047C474.151 -20.0137 472.904 -23.7024 469.929 -25.1535L454.867 -32.4996C451.892 -33.9508 448.256 -32.6761 446.789 -29.667L439.36 -14.4362C437.892 -11.4272 439.126 -7.77799 442.102 -6.32672L453.237 -0.895721C459.488 2.28382 459.159 4.03723 456.435 9.62221L450.845 21.0823C449.378 24.0913 450.611 27.7408 453.587 29.1921L468.648 36.538C471.624 37.9893 475.259 36.7146 476.727 33.7056L484.156 18.4748C485.623 15.4658 484.389 11.8164 481.414 10.3652L471.696 5.62545C465.729 2.71519 463.784 1.24076 466.984 -5.31892Z" fill="white"/>
<path fill-rule="evenodd" clip-rule="evenodd" d="M441.927 16.8159L446.01 8.44584C446.816 6.79199 446.123 4.77924 444.469 3.97241L436.097 -0.110869C434.443 -0.917554 432.43 -0.224846 431.623 1.429L427.541 9.79906C426.734 11.4526 427.428 13.4655 429.082 14.2722L437.454 18.3555C439.108 19.1623 441.121 18.4695 441.927 16.8159Z" fill="white"/>
</g>
</g>
</g>
</svg>
