<svg width="456" height="470" viewBox="0 0 456 470" fill="none" xmlns="http://www.w3.org/2000/svg">
<path fill-rule="evenodd" clip-rule="evenodd" d="M0 0H456V470H0V0Z" fill="#005077"/>
<mask id="mask0_101_4205" style="mask-type:alpha" maskUnits="userSpaceOnUse" x="0" y="0" width="456" height="470">
<path fill-rule="evenodd" clip-rule="evenodd" d="M0 0H456V470H0V0Z" fill="white"/>
</mask>
<g mask="url(#mask0_101_4205)">
<g opacity="0.1">
<g opacity="0.0387116">
<path fill-rule="evenodd" clip-rule="evenodd" d="M28.5462 283.476L27.1871 270.546C26.8372 267.216 23.8249 264.749 20.5327 265.095L3.86701 266.846C0.574532 267.192 -1.83286 270.2 -1.48291 273.529L0.288409 290.382C0.638356 293.712 3.6184 296.153 6.91087 295.807L19.232 294.512C26.2179 293.896 26.8682 295.557 27.5178 301.737L28.8506 314.418C29.2005 317.747 32.1806 320.188 35.4731 319.842L52.1385 318.091C55.431 317.745 57.8387 314.737 57.4887 311.408L55.7174 294.555C55.3674 291.225 52.3871 288.784 49.0946 289.13L38.3418 290.26C31.7393 290.954 29.3091 290.734 28.5462 283.476Z" fill="white"/>
<path fill-rule="evenodd" clip-rule="evenodd" d="M52.6791 265.64L53.8147 276.446C54.0391 278.58 52.4755 280.51 50.3403 280.735L39.5326 281.871C37.3974 282.095 35.467 280.532 35.2427 278.398L34.107 267.592C33.8826 265.458 35.4459 263.528 37.5811 263.303L48.3888 262.167C50.524 261.943 52.4547 263.506 52.6791 265.64Z" fill="white"/>
<path fill-rule="evenodd" clip-rule="evenodd" d="M19.0254 315.526L18.0519 306.264C17.8596 304.434 16.205 303.095 14.3746 303.287L5.11099 304.261C3.28088 304.453 1.94068 306.108 2.13302 307.938L3.10645 317.199C3.29875 319.029 4.95361 320.368 6.78372 320.176L16.0474 319.202C17.8778 319.01 19.2177 317.356 19.0254 315.526Z" fill="white"/>
</g>
<g opacity="0.443515">
<path fill-rule="evenodd" clip-rule="evenodd" d="M163.15 283.639L163.604 270.646C163.72 267.3 161.081 264.437 157.773 264.322L141.025 263.737C137.717 263.621 134.914 266.265 134.797 269.61L134.206 286.546C134.089 289.892 136.7 292.724 140.009 292.839L152.39 293.272C159.394 293.634 159.807 295.369 159.59 301.579L159.145 314.322C159.028 317.668 161.639 320.5 164.948 320.616L181.695 321.201C185.004 321.316 187.807 318.673 187.923 315.327L188.515 298.392C188.632 295.046 186.02 292.214 182.711 292.098L171.906 291.721C165.271 291.489 162.895 290.933 163.15 283.639Z" fill="white"/>
<path fill-rule="evenodd" clip-rule="evenodd" d="M189.531 269.335L189.152 280.194C189.077 282.339 187.26 284.032 185.114 283.958L174.254 283.578C172.108 283.503 170.414 281.687 170.489 279.542L170.868 268.684C170.943 266.539 172.76 264.845 174.905 264.92L185.766 265.299C187.911 265.374 189.606 267.19 189.531 269.335Z" fill="white"/>
<path fill-rule="evenodd" clip-rule="evenodd" d="M149.261 314.052L149.586 304.745C149.65 302.906 148.198 301.35 146.359 301.285L137.05 300.96C135.211 300.896 133.654 302.348 133.589 304.187L133.264 313.494C133.2 315.332 134.653 316.889 136.492 316.953L145.801 317.278C147.64 317.342 149.197 315.891 149.261 314.052Z" fill="white"/>
</g>
<g opacity="0.0916946">
<path fill-rule="evenodd" clip-rule="evenodd" d="M297.716 283.974L299.974 271.17C300.555 267.873 298.339 264.671 295.079 264.097L278.577 261.187C275.316 260.612 272.173 262.839 271.592 266.136L268.649 282.824C268.068 286.121 270.26 289.289 273.52 289.864L285.721 292.015C292.606 293.349 292.773 295.125 291.694 301.244L289.48 313.801C288.899 317.098 291.09 320.266 294.351 320.841L310.853 323.751C314.114 324.326 317.257 322.099 317.838 318.802L320.781 302.113C321.362 298.816 319.17 295.648 315.91 295.074L305.262 293.196C298.724 292.043 296.449 291.162 297.716 283.974Z" fill="white"/>
<path fill-rule="evenodd" clip-rule="evenodd" d="M325.83 273.481L323.943 284.181C323.571 286.295 321.536 287.719 319.421 287.346L308.719 285.459C306.605 285.086 305.18 283.052 305.553 280.938L307.439 270.238C307.812 268.124 309.847 266.7 311.961 267.073L322.663 268.96C324.777 269.333 326.203 271.367 325.83 273.481Z" fill="white"/>
<path fill-rule="evenodd" clip-rule="evenodd" d="M279.729 312.159L281.346 302.987C281.666 301.175 280.445 299.432 278.632 299.112L269.459 297.495C267.647 297.175 265.902 298.396 265.583 300.208L263.966 309.379C263.646 311.191 264.868 312.935 266.68 313.254L275.853 314.872C277.666 315.191 279.41 313.97 279.729 312.159Z" fill="white"/>
</g>
<g opacity="0.262059">
<path fill-rule="evenodd" clip-rule="evenodd" d="M432.223 284.475L436.241 272.109C437.276 268.925 435.527 265.446 432.379 264.423L416.442 259.245C413.293 258.222 409.871 259.99 408.836 263.174L403.6 279.291C402.565 282.475 404.295 285.917 407.443 286.94L419.226 290.768C425.858 293.047 425.777 294.829 423.857 300.739L419.916 312.865C418.882 316.049 420.611 319.491 423.76 320.514L439.697 325.693C442.846 326.716 446.268 324.947 447.303 321.763L452.539 305.647C453.574 302.463 451.844 299.021 448.696 297.998L438.413 294.657C432.099 292.605 429.968 291.416 432.223 284.475Z" fill="white"/>
<path fill-rule="evenodd" clip-rule="evenodd" d="M461.524 277.996L458.167 288.329C457.504 290.37 455.29 291.498 453.248 290.834L442.913 287.476C440.871 286.813 439.743 284.6 440.406 282.558L443.764 272.225C444.427 270.184 446.64 269.057 448.682 269.72L459.018 273.078C461.059 273.742 462.188 275.955 461.524 277.996Z" fill="white"/>
<path fill-rule="evenodd" clip-rule="evenodd" d="M410.491 309.881L413.368 301.025C413.937 299.275 412.97 297.378 411.22 296.809L402.361 293.931C400.611 293.362 398.714 294.328 398.145 296.078L395.267 304.935C394.699 306.685 395.666 308.581 397.416 309.15L406.275 312.029C408.025 312.597 409.922 311.631 410.491 309.881Z" fill="white"/>
</g>
<g opacity="0.13678">
<path fill-rule="evenodd" clip-rule="evenodd" d="M36.9539 224.748L49.4518 221.164C52.67 220.241 54.5768 216.846 53.6643 213.664L49.0453 197.556C48.1328 194.374 44.753 192.525 41.5348 193.448L25.2455 198.119C22.0273 199.041 20.1409 202.4 21.0534 205.582L24.4683 217.492C26.2881 224.264 24.765 225.193 18.7919 226.906L6.53529 230.421C3.31711 231.343 1.43045 234.702 2.34298 237.884L6.9619 253.993C7.87443 257.175 11.2543 259.024 14.4725 258.101L30.7619 253.43C33.98 252.507 35.8663 249.148 34.9538 245.966L31.9736 235.573C30.1437 229.191 29.9383 226.76 36.9539 224.748Z" fill="white"/>
<path fill-rule="evenodd" clip-rule="evenodd" d="M58.7108 245.416L48.2669 248.411C46.2036 249.003 44.0314 247.798 43.4396 245.734L40.4442 235.288C39.8524 233.224 41.0563 231.052 43.1196 230.46L53.5635 227.465C55.6268 226.874 57.7989 228.078 58.3907 230.142L61.3861 240.588C61.9779 242.652 60.7741 244.825 58.7108 245.416Z" fill="white"/>
<path fill-rule="evenodd" clip-rule="evenodd" d="M3.73876 220.937L12.6905 218.371C14.4593 217.863 15.4912 216.001 14.9839 214.232L12.4164 205.278C11.9092 203.509 10.0473 202.477 8.27853 202.984L-0.673261 205.551C-2.44176 206.058 -3.47353 207.92 -2.96631 209.689L-0.398836 218.643C0.108474 220.412 1.97026 221.445 3.73876 220.937Z" fill="white"/>
</g>
<g opacity="0.685422">
<path fill-rule="evenodd" clip-rule="evenodd" d="M170.366 226.004L183.241 224.194C186.556 223.728 188.917 220.632 188.456 217.354L186.124 200.759C185.663 197.481 182.574 195.18 179.258 195.646L162.478 198.004C159.162 198.47 156.827 201.533 157.288 204.812L159.012 217.08C159.871 224.04 158.234 224.748 152.08 225.613L139.454 227.388C136.139 227.854 133.803 230.917 134.264 234.195L136.596 250.79C137.057 254.068 140.146 256.369 143.462 255.903L160.242 253.545C163.558 253.079 165.893 250.015 165.432 246.737L163.928 236.03C163.004 229.456 163.139 227.019 170.366 226.004Z" fill="white"/>
<path fill-rule="evenodd" clip-rule="evenodd" d="M189.034 249.499L178.275 251.011C176.149 251.309 174.166 249.814 173.867 247.688L172.354 236.927C172.056 234.8 173.55 232.817 175.676 232.518L186.435 231.006C188.56 230.707 190.544 232.202 190.842 234.328L192.355 245.09C192.654 247.216 191.159 249.2 189.034 249.499Z" fill="white"/>
<path fill-rule="evenodd" clip-rule="evenodd" d="M138.004 217.608L147.226 216.312C149.048 216.056 150.329 214.355 150.073 212.533L148.776 203.309C148.52 201.486 146.82 200.205 144.998 200.461L135.776 201.757C133.954 202.013 132.673 203.714 132.929 205.536L134.226 214.76C134.482 216.582 136.182 217.864 138.004 217.608Z" fill="white"/>
</g>
<g opacity="0.686027">
<path fill-rule="evenodd" clip-rule="evenodd" d="M303.772 227.474L316.771 227.474C320.118 227.474 322.887 224.77 322.887 221.502L322.887 204.956C322.887 201.687 320.148 199.012 316.8 199.012L299.857 199.012C296.51 199.012 293.772 201.687 293.772 204.956V217.188C293.654 224.112 291.934 224.579 285.721 224.579L272.973 224.579C269.626 224.579 266.887 227.254 266.887 230.523V247.069C266.887 250.337 269.626 253.012 272.973 253.012L289.916 253.012C293.263 253.012 296.002 250.337 296.002 247.069V236.393C296.002 229.838 296.475 227.474 303.772 227.474Z" fill="white"/>
<path fill-rule="evenodd" clip-rule="evenodd" d="M318.984 253.012H308.121C305.975 253.012 304.219 251.278 304.219 249.158V238.427C304.219 236.308 305.975 234.573 308.121 234.573H318.984C321.13 234.573 322.885 236.308 322.885 238.427V249.158C322.885 251.278 321.13 253.012 318.984 253.012Z" fill="white"/>
<path fill-rule="evenodd" clip-rule="evenodd" d="M272.899 214.817H282.21C284.05 214.817 285.555 213.33 285.555 211.513V202.316C285.555 200.499 284.05 199.012 282.21 199.012H272.899C271.06 199.012 269.555 200.499 269.555 202.316V211.513C269.555 213.33 271.06 214.817 272.899 214.817Z" fill="white"/>
</g>
<g opacity="0.0984959">
<path fill-rule="evenodd" clip-rule="evenodd" d="M370.152 227.871L383.122 228.778C386.462 229.012 389.415 226.474 389.646 223.171L390.815 206.455C391.046 203.152 388.502 200.259 385.162 200.025L368.258 198.843C364.918 198.61 361.997 201.121 361.766 204.423L360.901 216.782C360.295 223.769 358.546 224.121 352.347 223.687L339.628 222.798C336.288 222.564 333.367 225.075 333.136 228.378L331.967 245.094C331.736 248.397 334.28 251.29 337.619 251.524L354.524 252.706C357.864 252.939 360.785 250.428 361.016 247.126L361.77 236.34C362.233 229.717 362.872 227.362 370.152 227.871Z" fill="white"/>
<path fill-rule="evenodd" clip-rule="evenodd" d="M383.528 254.734L372.69 253.976C370.549 253.826 368.919 251.951 369.069 249.809L369.827 238.969C369.977 236.827 371.851 235.197 373.992 235.347L384.831 236.105C386.972 236.255 388.601 238.129 388.452 240.271L387.693 251.112C387.544 253.253 385.669 254.883 383.528 254.734Z" fill="white"/>
<path fill-rule="evenodd" clip-rule="evenodd" d="M340.243 212.93L349.533 213.58C351.368 213.708 352.975 212.311 353.103 210.475L353.753 201.183C353.881 199.348 352.485 197.74 350.649 197.612L341.36 196.962C339.524 196.834 337.918 198.231 337.789 200.067L337.14 209.359C337.011 211.195 338.408 212.802 340.243 212.93Z" fill="white"/>
</g>
<g opacity="0.403638">
<path fill-rule="evenodd" clip-rule="evenodd" d="M436.663 228.477L449.538 230.287C452.853 230.753 455.976 228.427 456.437 225.149L458.769 208.554C459.23 205.276 456.894 202.212 453.579 201.746L436.798 199.388C433.483 198.922 430.393 201.223 429.932 204.501L428.208 216.77C427.116 223.697 425.347 223.926 419.193 223.062L406.567 221.287C403.252 220.821 400.162 223.122 399.701 226.401L397.369 242.995C396.908 246.273 399.244 249.337 402.559 249.803L419.34 252.161C422.655 252.627 425.745 250.326 426.206 247.047L427.71 236.341C428.634 229.766 429.436 227.461 436.663 228.477Z" fill="white"/>
<path fill-rule="evenodd" clip-rule="evenodd" d="M448.131 256.208L437.372 254.695C435.247 254.397 433.752 252.413 434.051 250.287L435.564 239.525C435.862 237.399 437.846 235.904 439.971 236.203L450.73 237.715C452.856 238.014 454.35 239.997 454.052 242.123L452.539 252.885C452.24 255.011 450.257 256.506 448.131 256.208Z" fill="white"/>
<path fill-rule="evenodd" clip-rule="evenodd" d="M407.867 211.486L417.089 212.782C418.911 213.038 420.611 211.757 420.867 209.934L422.164 200.71C422.42 198.888 421.139 197.187 419.317 196.931L410.095 195.635C408.273 195.379 406.573 196.661 406.317 198.483L405.02 207.707C404.764 209.53 406.045 211.23 407.867 211.486Z" fill="white"/>
</g>
<g opacity="0.022014">
<path fill-rule="evenodd" clip-rule="evenodd" d="M96.6366 167.874L101.507 179.929C102.761 183.033 106.337 184.575 109.406 183.335L124.943 177.057C128.013 175.817 129.498 172.262 128.244 169.158L121.896 153.446C120.642 150.342 117.104 148.817 114.035 150.058L102.548 154.699C96.0026 157.216 94.9195 155.799 92.5918 150.037L87.8153 138.215C86.5612 135.111 83.0237 133.586 79.9541 134.826L64.4171 141.103C61.3476 142.344 59.8621 145.898 61.1163 149.002L67.4643 164.714C68.7184 167.818 72.2561 169.343 75.3256 168.103L85.3504 164.053C91.5058 161.566 93.9026 161.107 96.6366 167.874Z" fill="white"/>
<path fill-rule="evenodd" clip-rule="evenodd" d="M78.3561 191.671L74.2861 181.597C73.482 179.607 74.4531 177.321 76.4437 176.517L86.5196 172.446C88.5102 171.641 90.7966 172.612 91.6007 174.602L95.6707 184.675C96.4748 186.666 95.504 188.952 93.5134 189.756L83.4375 193.827C81.4469 194.631 79.1602 193.661 78.3561 191.671Z" fill="white"/>
<path fill-rule="evenodd" clip-rule="evenodd" d="M96.9522 134.442L100.441 143.076C101.13 144.782 103.09 145.614 104.796 144.924L113.433 141.435C115.139 140.746 115.971 138.786 115.282 137.08L111.793 128.445C111.104 126.74 109.144 125.908 107.438 126.598L98.8015 130.087C97.0951 130.776 96.263 132.736 96.9522 134.442Z" fill="white"/>
</g>
<g opacity="0.428292">
<path fill-rule="evenodd" clip-rule="evenodd" d="M162.698 167.989L166.715 180.355C167.75 183.539 171.209 185.326 174.358 184.303L190.295 179.125C193.444 178.102 195.173 174.659 194.139 171.475L188.902 155.359C187.867 152.175 184.445 150.407 181.296 151.43L169.514 155.258C162.809 157.313 161.827 155.824 159.907 149.914L155.967 137.787C154.932 134.603 151.51 132.835 148.361 133.858L132.424 139.036C129.276 140.059 127.546 143.502 128.58 146.686L133.817 162.802C134.851 165.986 138.274 167.754 141.423 166.731L151.706 163.39C158.019 161.338 160.442 161.048 162.698 167.989Z" fill="white"/>
<path fill-rule="evenodd" clip-rule="evenodd" d="M142.802 190.453L139.444 180.12C138.781 178.079 139.909 175.866 141.951 175.202L152.286 171.844C154.328 171.181 156.541 172.308 157.205 174.349L160.562 184.683C161.225 186.724 160.097 188.937 158.056 189.6L147.72 192.958C145.678 193.622 143.465 192.495 142.802 190.453Z" fill="white"/>
<path fill-rule="evenodd" clip-rule="evenodd" d="M165.346 134.661L168.224 143.517C168.792 145.267 170.689 146.234 172.44 145.665L181.299 142.787C183.049 142.218 184.016 140.321 183.447 138.571L180.569 129.714C180.001 127.965 178.104 126.998 176.353 127.567L167.495 130.446C165.744 131.014 164.778 132.911 165.346 134.661Z" fill="white"/>
</g>
<g opacity="0.243947">
<path fill-rule="evenodd" clip-rule="evenodd" d="M228.751 168.061L231.897 180.676C232.707 183.925 236.033 185.949 239.245 185.148L255.505 181.094C258.717 180.293 260.682 176.98 259.872 173.732L255.773 157.289C254.963 154.041 251.672 152.038 248.46 152.839L236.439 155.836C229.607 157.419 228.732 155.864 227.228 149.835L224.144 137.463C223.334 134.215 220.043 132.212 216.831 133.013L200.571 137.067C197.359 137.868 195.393 141.181 196.203 144.429L200.303 160.872C201.113 164.12 204.404 166.123 207.616 165.322L218.107 162.706C224.548 161.1 226.986 160.98 228.751 168.061Z" fill="white"/>
<path fill-rule="evenodd" clip-rule="evenodd" d="M207.338 189.082L204.71 178.54C204.19 176.457 205.47 174.328 207.553 173.809L218.098 171.18C220.181 170.661 222.31 171.94 222.829 174.022L225.458 184.564C225.977 186.647 224.698 188.776 222.614 189.295L212.07 191.924C209.987 192.444 207.857 191.165 207.338 189.082Z" fill="white"/>
<path fill-rule="evenodd" clip-rule="evenodd" d="M233.719 134.998L235.972 144.034C236.417 145.819 238.242 146.916 240.028 146.47L249.066 144.217C250.852 143.772 251.949 141.947 251.503 140.162L249.25 131.126C248.805 129.341 246.98 128.244 245.195 128.69L236.157 130.943C234.371 131.388 233.274 133.213 233.719 134.998Z" fill="white"/>
</g>
<g opacity="0.675624">
<path fill-rule="evenodd" clip-rule="evenodd" d="M360.848 168.073L362.207 181.003C362.557 184.333 365.57 186.8 368.862 186.454L385.528 184.702C388.82 184.356 391.227 181.349 390.877 178.019L389.106 161.166C388.756 157.837 385.776 155.396 382.484 155.742L370.162 157.037C363.177 157.653 362.526 155.992 361.877 149.812L360.544 137.131C360.194 133.802 357.214 131.361 353.921 131.707L337.256 133.458C333.964 133.804 331.556 136.812 331.906 140.141L333.677 156.994C334.027 160.324 337.007 162.765 340.3 162.419L351.053 161.288C357.655 160.595 360.085 160.815 360.848 168.073Z" fill="white"/>
<path fill-rule="evenodd" clip-rule="evenodd" d="M336.715 185.909L335.58 175.103C335.355 172.969 336.919 171.039 339.054 170.814L349.862 169.678C351.997 169.454 353.928 171.017 354.152 173.151L355.288 183.957C355.512 186.091 353.949 188.021 351.813 188.246L341.006 189.382C338.871 189.606 336.94 188.043 336.715 185.909Z" fill="white"/>
<path fill-rule="evenodd" clip-rule="evenodd" d="M370.369 136.023L371.343 145.284C371.535 147.114 373.189 148.454 375.02 148.262L384.284 147.288C386.114 147.096 387.454 145.441 387.262 143.611L386.288 134.35C386.096 132.52 384.441 131.181 382.611 131.373L373.347 132.347C371.517 132.539 370.177 134.193 370.369 136.023Z" fill="white"/>
</g>
<g opacity="0.879925">
<path fill-rule="evenodd" clip-rule="evenodd" d="M426.902 168.013L427.355 181.007C427.472 184.352 430.305 187.024 433.613 186.908L450.361 186.323C453.669 186.208 456.281 183.376 456.164 180.03L455.572 163.094C455.456 159.749 452.653 157.106 449.344 157.221L436.963 157.654C429.951 157.781 429.418 156.078 429.201 149.868L428.756 137.125C428.64 133.78 425.837 131.136 422.528 131.252L405.781 131.837C402.473 131.952 399.861 134.785 399.978 138.13L400.569 155.066C400.686 158.412 403.489 161.055 406.798 160.939L417.603 160.562C424.238 160.33 426.647 160.719 426.902 168.013Z" fill="white"/>
<path fill-rule="evenodd" clip-rule="evenodd" d="M401.586 184.122L401.207 173.264C401.132 171.119 402.826 169.302 404.972 169.228L415.832 168.848C417.978 168.773 419.795 170.467 419.87 172.612L420.249 183.47C420.324 185.615 418.629 187.432 416.484 187.507L405.623 187.886C403.478 187.961 401.661 186.267 401.586 184.122Z" fill="white"/>
<path fill-rule="evenodd" clip-rule="evenodd" d="M438.636 136.705L438.961 146.012C439.025 147.851 440.583 149.303 442.422 149.238L451.731 148.913C453.57 148.849 455.022 147.292 454.958 145.453L454.633 136.147C454.569 134.308 453.012 132.856 451.172 132.92L441.863 133.246C440.024 133.31 438.572 134.867 438.636 136.705Z" fill="white"/>
</g>
<g opacity="0.605097">
<path fill-rule="evenodd" clip-rule="evenodd" d="M19.9431 96.412L9.42458 104.054C6.7161 106.022 6.08547 109.864 8.03122 112.542L17.8811 126.1C19.827 128.778 23.6352 129.359 26.3437 127.391L40.0532 117.431C42.7616 115.463 43.3855 111.662 41.4396 108.983L34.1575 98.9603C30.1311 93.2184 31.2446 91.8246 36.2717 88.1721L46.5871 80.6776C49.2956 78.7098 49.9197 74.9083 47.9738 72.23L38.1241 58.6731C36.1782 55.9948 32.3697 55.4134 29.6613 57.3812L15.9518 67.3417C13.2433 69.3095 12.6196 73.111 14.5656 75.7894L20.9207 84.5365C24.8229 89.9074 25.8476 92.1221 19.9431 96.412Z" fill="white"/>
<path fill-rule="evenodd" clip-rule="evenodd" d="M-7.56807 84.431L1.22174 78.0448C2.95823 76.7832 5.41152 77.1723 6.67347 78.9092L13.061 87.7009C14.323 89.4378 13.9348 91.891 12.1983 93.1527L3.40845 99.5388C1.67196 100.8 -0.78115 100.412 -2.0431 98.6747L-8.43067 89.883C-9.69262 88.1461 -9.30456 85.6926 -7.56807 84.431Z" fill="white"/>
<path fill-rule="evenodd" clip-rule="evenodd" d="M52.458 88.6321L44.924 94.1059C43.4353 95.1874 43.1025 97.2901 44.1844 98.7791L49.6594 106.315C50.741 107.804 52.8438 108.137 54.3324 107.055L61.8664 101.582C63.3548 100.5 63.6874 98.3974 62.6058 96.9087L57.1308 89.373C56.049 87.884 53.9464 87.5507 52.458 88.6321Z" fill="white"/>
</g>
<g opacity="0.978256">
<path fill-rule="evenodd" clip-rule="evenodd" d="M59.754 81.9685L68.9679 76.2111C70.7881 75.0736 73.2083 75.6329 74.346 77.4536L80.1047 86.6695C81.2425 88.4902 80.684 90.9104 78.8638 92.0478L69.6499 97.8053C67.8296 98.9427 65.4096 98.3837 64.2719 96.563L58.5132 87.3471C57.3755 85.5264 57.9337 83.106 59.754 81.9685Z" fill="white"/>
<path fill-rule="evenodd" clip-rule="evenodd" d="M119.343 90.3467L111.446 95.2816C109.885 96.2567 109.406 98.331 110.382 99.8919L115.318 107.791C116.293 109.352 118.367 109.831 119.928 108.856L127.825 103.921C129.385 102.946 129.864 100.872 128.889 99.311L123.953 91.4118C122.977 89.8509 120.903 89.3718 119.343 90.3467Z" fill="white"/>
</g>
<g opacity="0.125574">
<path fill-rule="evenodd" clip-rule="evenodd" d="M219.314 94.6483L207.437 99.9366C204.378 101.298 202.963 104.926 204.309 107.95L211.125 123.258C212.472 126.283 216.076 127.643 219.134 126.281L234.615 119.389C237.673 118.027 239.074 114.439 237.727 111.414L232.688 100.096C229.944 93.6427 231.323 92.5109 236.999 89.9835L248.647 84.7974C251.706 83.4357 253.107 79.8471 251.76 76.8227L244.944 61.5142C243.598 58.4898 239.994 57.1293 236.935 58.491L221.454 65.3835C218.396 66.7452 216.995 70.334 218.342 73.3584L222.74 83.2357C225.44 89.3005 225.982 91.6799 219.314 94.6483Z" fill="white"/>
<path fill-rule="evenodd" clip-rule="evenodd" d="M194.896 77.209L204.822 72.7899C206.782 71.9169 209.101 72.8075 209.975 74.7689L214.395 84.6966C215.268 86.6579 214.378 88.9768 212.417 89.8498L202.492 94.2689C200.531 95.1419 198.212 94.2516 197.339 92.2902L192.919 82.3626C192.046 80.4012 192.935 78.0821 194.896 77.209Z" fill="white"/>
<path fill-rule="evenodd" clip-rule="evenodd" d="M252.737 93.799L244.23 97.5867C242.549 98.3351 241.786 100.323 242.535 102.004L246.323 110.513C247.072 112.194 249.059 112.958 250.74 112.209L259.248 108.422C260.928 107.673 261.691 105.686 260.943 104.005L257.154 95.4952C256.405 93.8138 254.418 93.0507 252.737 93.799Z" fill="white"/>
</g>
<g opacity="0.3">
<path fill-rule="evenodd" clip-rule="evenodd" d="M285.856 94.0343L273.638 98.4811C270.492 99.6262 268.827 103.146 269.959 106.257L275.69 122.003C276.823 125.114 280.323 126.723 283.469 125.578L299.393 119.782C302.539 118.637 304.187 115.155 303.054 112.044L298.817 100.402C296.529 93.7726 297.984 92.7398 303.823 90.6145L315.804 86.2536C318.95 85.1085 320.598 81.6264 319.466 78.5154L313.735 62.7688C312.602 59.6578 309.102 58.0492 305.956 59.1943L290.032 64.9901C286.886 66.1351 285.238 69.6174 286.371 72.7284L290.069 82.8884C292.339 89.1268 292.714 91.5382 285.856 94.0343Z" fill="white"/>
<path fill-rule="evenodd" clip-rule="evenodd" d="M262.713 74.934L272.923 71.218C274.94 70.4839 277.191 71.5341 277.925 73.5516L281.642 83.7634C282.376 85.7809 281.327 88.0321 279.31 88.7662L269.1 92.4822C267.083 93.2163 264.832 92.1663 264.098 90.1489L260.381 79.9371C259.647 77.9196 260.696 75.6681 262.713 74.934Z" fill="white"/>
<path fill-rule="evenodd" clip-rule="evenodd" d="M319.255 95.5185L310.504 98.7036C308.775 99.333 307.876 101.262 308.505 102.992L311.691 111.745C312.32 113.474 314.25 114.374 315.979 113.745L324.73 110.56C326.459 109.931 327.358 108.001 326.729 106.272L323.543 97.5187C322.913 95.7892 320.984 94.8893 319.255 95.5185Z" fill="white"/>
</g>
<g opacity="0.222197">
<path fill-rule="evenodd" clip-rule="evenodd" d="M352.441 93.4128L339.943 96.9965C336.725 97.9193 334.818 101.314 335.73 104.496L340.349 120.605C341.262 123.787 344.642 125.636 347.86 124.713L364.149 120.042C367.367 119.119 369.254 115.761 368.341 112.578L364.926 100.669C363.106 93.8963 364.63 92.9674 370.603 91.2546L382.859 87.7401C386.077 86.8173 387.964 83.4586 387.052 80.2762L382.433 64.1681C381.52 60.9858 378.14 59.1369 374.922 60.0597L358.633 64.7306C355.414 65.6534 353.528 69.0123 354.441 72.1947L357.421 82.5879C359.251 88.9695 359.456 91.4011 352.441 93.4128Z" fill="white"/>
<path fill-rule="evenodd" clip-rule="evenodd" d="M330.684 72.7442L341.128 69.7495C343.191 69.1579 345.363 70.3626 345.955 72.4264L348.95 82.8726C349.542 84.9363 348.338 87.1088 346.275 87.7005L335.831 90.6952C333.768 91.2868 331.596 90.0824 331.004 88.0186L328.008 77.5724C327.417 75.5086 328.62 73.3359 330.684 72.7442Z" fill="white"/>
<path fill-rule="evenodd" clip-rule="evenodd" d="M385.656 97.2232L376.704 99.7901C374.935 100.297 373.903 102.159 374.411 103.929L376.978 112.882C377.485 114.651 379.347 115.684 381.116 115.177L390.068 112.61C391.836 112.103 392.868 110.24 392.361 108.471L389.793 99.5176C389.286 97.7484 387.424 96.7161 385.656 97.2232Z" fill="white"/>
</g>
<g opacity="0.438713">
<path fill-rule="evenodd" clip-rule="evenodd" d="M419.07 92.7856L406.352 95.4888C403.078 96.1849 400.939 99.4386 401.627 102.677L405.111 119.068C405.799 122.306 409.042 124.386 412.317 123.69L428.892 120.167C432.167 119.471 434.283 116.252 433.595 113.013L431.019 100.895C429.676 94.012 431.26 93.1916 437.338 91.8996L449.81 89.2487C453.085 88.5526 455.201 85.3337 454.513 82.0954L451.029 65.7044C450.341 62.4661 447.098 60.386 443.823 61.082L427.248 64.6052C423.973 65.3013 421.857 68.5205 422.545 71.7587L424.793 82.3345C426.173 88.8283 426.209 91.2682 419.07 92.7856Z" fill="white"/>
<path fill-rule="evenodd" clip-rule="evenodd" d="M398.809 70.6499L409.437 68.391C411.536 67.9447 413.619 69.298 414.066 71.398L416.325 82.0277C416.771 84.1278 415.419 86.211 413.319 86.6573L402.692 88.9162C400.592 89.3624 398.51 88.0094 398.063 85.9094L395.804 75.2797C395.357 73.1797 396.71 71.0961 398.809 70.6499Z" fill="white"/>
<path fill-rule="evenodd" clip-rule="evenodd" d="M451.939 98.9035L442.83 100.84C441.03 101.222 439.871 103.008 440.254 104.808L442.19 113.919C442.573 115.719 444.358 116.879 446.158 116.496L455.267 114.56C457.067 114.178 458.226 112.392 457.843 110.592L455.907 101.481C455.524 99.6806 453.739 98.5209 451.939 98.9035Z" fill="white"/>
</g>
<g opacity="0.548144">
<path fill-rule="evenodd" clip-rule="evenodd" d="M22.6404 18.4541L13.2879 9.42246C10.8796 7.09684 6.9861 7.14301 4.68657 9.52424L-6.9542 21.5786C-9.25394 23.9601 -9.16494 27.8114 -6.75669 30.137L5.4331 41.9085C7.84136 44.2342 11.6932 44.1885 13.9929 41.807L22.5991 32.8951C27.5546 27.9328 29.1206 28.7873 33.5905 33.1038L42.7624 41.9611C45.1707 44.2867 49.0227 44.2412 51.3225 41.8598L62.963 29.8056C65.2628 27.4242 65.174 23.5727 62.7657 21.247L50.576 9.4755C48.1677 7.14987 44.3156 7.19577 42.0159 9.57723L34.5052 17.3548C29.8935 22.1303 27.8904 23.524 22.6404 18.4541Z" fill="white"/>
<path fill-rule="evenodd" clip-rule="evenodd" d="M29.6625 -10.7206L37.478 -3.17329C39.022 -1.68226 39.0648 0.80133 37.5734 2.34572L30.0244 10.1629C28.533 11.7073 26.0497 11.751 24.5056 10.2599L16.6902 2.71261C15.1462 1.22158 15.1031 -1.26179 16.5945 -2.80618L24.1435 -10.6234C25.6349 -12.1678 28.1185 -12.2116 29.6625 -10.7206Z" fill="white"/>
<path fill-rule="evenodd" clip-rule="evenodd" d="M35.9494 49.1252L29.2505 42.6561C27.9268 41.3779 25.7983 41.4153 24.5198 42.7393L18.0493 49.4397C16.771 50.7634 16.8077 52.8921 18.1313 54.1703L24.8302 60.6394C26.1537 61.9174 28.2823 61.8798 29.5607 60.556L36.0312 53.8556C37.3097 52.5317 37.2728 50.4032 35.9494 49.1252Z" fill="white"/>
</g>
<g opacity="0.582335">
<path fill-rule="evenodd" clip-rule="evenodd" d="M89.8363 18.0977L81.1365 8.43567C78.8964 5.94772 75.0091 5.72219 72.5491 7.93721L60.0958 19.1502C57.6355 21.3654 57.4557 25.2136 59.6958 27.7015L71.0348 40.2947C73.2749 42.7826 77.1206 43.0058 79.5808 40.7905L88.7877 32.5006C94.0773 27.8961 95.5799 28.8578 99.7377 33.4756L108.27 42.9511C110.51 45.439 114.356 45.6624 116.816 43.4471L129.269 32.2344C131.729 30.0191 131.909 26.1708 129.669 23.6829L118.33 11.0897C116.09 8.60172 112.244 8.3788 109.784 10.594L101.749 17.8287C96.8153 22.2709 94.7198 23.5214 89.8363 18.0977Z" fill="white"/>
<path fill-rule="evenodd" clip-rule="evenodd" d="M98.8766 -10.5162L106.147 -2.44209C107.583 -0.846992 107.452 1.63353 105.857 3.07012L97.7809 10.3417C96.1854 11.7783 93.705 11.6486 92.2688 10.0535L84.9988 1.97938C83.5626 0.384278 83.6929 -2.09604 85.2884 -3.53263L93.3643 -10.8042C94.9598 -12.2408 97.4403 -12.1113 98.8766 -10.5162Z" fill="white"/>
<path fill-rule="evenodd" clip-rule="evenodd" d="M100.973 49.6227L94.7415 42.7021C93.5102 41.3346 91.3843 41.2235 90.0165 42.455L83.0944 48.6877C81.7269 49.9191 81.615 52.0452 82.8462 53.4126L89.0775 60.3332C90.3086 61.7004 92.4347 61.8113 93.8023 60.58L100.724 54.3473C102.092 53.1158 102.204 50.9899 100.973 49.6227Z" fill="white"/>
</g>
<g opacity="0.396771">
<path fill-rule="evenodd" clip-rule="evenodd" d="M157.055 17.7779L149.05 7.53251C146.989 4.89435 143.127 4.39821 140.518 6.43623L127.313 16.7532C124.704 18.7914 124.257 22.6176 126.318 25.2558L136.751 38.6093C138.812 41.2474 142.632 41.7383 145.241 39.7L155.004 32.0726C160.602 27.8482 162.034 28.9124 165.859 33.809L173.709 43.8565C175.77 46.4947 179.591 46.9858 182.2 44.9476L195.405 34.6308C198.014 32.5926 198.462 28.7662 196.401 26.128L185.968 12.7745C183.907 10.1364 180.086 9.64572 177.477 11.6839L168.957 18.3405C163.726 22.4278 161.548 23.5291 157.055 17.7779Z" fill="white"/>
<path fill-rule="evenodd" clip-rule="evenodd" d="M168.069 -10.1358L174.758 -1.57421C176.079 0.11719 175.776 2.58257 174.084 3.90436L165.521 10.5949C163.829 11.9167 161.363 11.6143 160.042 9.92288L153.353 1.3613C152.031 -0.330105 152.334 -2.79529 154.026 -4.11709L162.59 -10.8076C164.282 -12.1294 166.747 -11.8272 168.069 -10.1358Z" fill="white"/>
<path fill-rule="evenodd" clip-rule="evenodd" d="M165.964 50.0029L160.231 42.6645C159.098 41.2145 156.985 40.9553 155.535 42.0884L148.195 47.8231C146.744 48.956 146.485 51.0691 147.617 52.5191L153.351 59.8575C154.483 61.3073 156.597 61.5663 158.047 60.4333L165.387 54.6987C166.837 53.5655 167.097 51.4526 165.964 50.0029Z" fill="white"/>
</g>
<g opacity="0.0279347">
<path fill-rule="evenodd" clip-rule="evenodd" d="M224.295 17.4967L217.025 6.71792C215.153 3.94241 211.335 3.17807 208.591 5.02917L194.698 14.3999C191.953 16.2511 191.24 20.0368 193.112 22.8123L202.588 36.861C204.46 39.6365 208.237 40.3927 210.982 38.5414L221.253 31.6135C227.132 27.79 228.486 28.9514 231.96 34.1029L239.09 44.6736C240.962 47.4491 244.74 48.2055 247.484 46.3543L261.377 36.9837C264.121 35.1325 264.835 31.3466 262.963 28.5711L253.487 14.5224C251.615 11.7469 247.838 10.9909 245.093 12.8422L236.13 18.8882C230.626 22.6006 228.377 23.5473 224.295 17.4967Z" fill="white"/>
<path fill-rule="evenodd" clip-rule="evenodd" d="M237.231 -9.581L243.306 -0.573673C244.506 1.20579 244.032 3.64401 242.252 4.84457L233.243 10.9214C231.463 12.122 229.025 11.6484 227.824 9.8689L221.749 0.861573C220.549 -0.917891 221.023 -3.35594 222.803 -4.5565L231.812 -10.6334C233.592 -11.8339 236.03 -11.3605 237.231 -9.581Z" fill="white"/>
<path fill-rule="evenodd" clip-rule="evenodd" d="M230.934 50.2646L225.727 42.5441C224.698 41.0186 222.608 40.6127 221.082 41.6419L213.36 46.8505C211.834 47.8796 211.428 49.9694 212.457 51.4949L217.664 59.2153C218.693 60.7406 220.783 61.1464 222.309 60.1173L230.031 54.9086C231.557 53.8794 231.963 51.7898 230.934 50.2646Z" fill="white"/>
</g>
<g opacity="0.121356">
<path fill-rule="evenodd" clip-rule="evenodd" d="M291.554 17.256L285.053 5.9963C283.379 3.09696 279.624 2.06815 276.757 3.7233L262.244 12.1021C259.377 13.7574 258.401 17.484 260.075 20.3834L268.548 35.0589C270.222 37.9582 273.937 38.976 276.804 37.3207L287.534 31.1262C293.665 27.722 294.935 28.9751 298.042 34.3564L304.417 45.3987C306.091 48.2981 309.806 49.3161 312.673 47.6608L327.185 39.2822C330.052 37.6269 331.029 33.9001 329.355 31.0008L320.882 16.3253C319.208 13.4259 315.493 12.4083 312.625 14.0636L303.262 19.4696C297.513 22.789 295.203 23.5765 291.554 17.256Z" fill="white"/>
<path fill-rule="evenodd" clip-rule="evenodd" d="M306.347 -8.85329L311.779 0.555908C312.852 2.41476 312.209 4.81394 310.35 5.88742L300.938 11.321C299.079 12.3945 296.68 11.7519 295.607 9.89309L290.174 0.483899C289.101 -1.37496 289.744 -3.77398 291.604 -4.84746L301.015 -10.2811C302.874 -11.3545 305.274 -10.7121 306.347 -8.85329Z" fill="white"/>
<path fill-rule="evenodd" clip-rule="evenodd" d="M295.894 50.4074L291.238 42.3425C290.318 40.749 288.261 40.1982 286.667 41.1185L278.601 45.7758C277.007 46.6959 276.456 48.7523 277.376 50.3458L282.032 58.4107C282.952 60.004 285.008 60.5546 286.602 59.6345L294.669 54.9772C296.263 54.0569 296.814 52.0007 295.894 50.4074Z" fill="white"/>
</g>
<g opacity="0.639427">
<path fill-rule="evenodd" clip-rule="evenodd" d="M358.827 17.0557L353.128 5.36993C351.66 2.36089 347.986 1.07262 345.01 2.52376L329.949 9.86978C326.973 11.3211 325.74 14.9705 327.207 17.9796L334.636 33.2104C336.104 36.2194 339.739 37.4939 342.714 36.0426L353.849 30.6116C360.203 27.6434 361.383 28.9821 364.107 34.567L369.696 46.0271C371.164 49.0362 374.799 50.3109 377.775 48.8597L392.836 41.5138C395.811 40.0625 397.045 36.4129 395.578 33.4038L388.149 18.173C386.681 15.164 383.046 13.8897 380.07 15.3409L370.353 20.0806C364.386 22.9909 362.027 23.6154 358.827 17.0557Z" fill="white"/>
<path fill-rule="evenodd" clip-rule="evenodd" d="M375.405 -7.95828L380.168 1.80694C381.109 3.73613 380.3 6.08458 378.37 7.02574L368.603 11.7896C366.673 12.7308 364.325 11.9224 363.384 9.99324L358.621 0.228021C357.68 -1.70117 358.489 -4.04949 360.419 -4.99065L370.186 -9.75451C372.116 -10.6957 374.464 -9.88747 375.405 -7.95828Z" fill="white"/>
<path fill-rule="evenodd" clip-rule="evenodd" d="M360.842 50.4287L356.76 42.0586C355.953 40.4048 353.94 39.7119 352.286 40.5188L343.914 44.602C342.26 45.4087 341.567 47.4216 342.373 49.0755L346.456 57.4455C347.262 59.0991 349.275 59.7918 350.929 58.9851L359.301 54.9018C360.955 54.095 361.649 52.0823 360.842 50.4287Z" fill="white"/>
</g>
<g opacity="0.714784">
<path fill-rule="evenodd" clip-rule="evenodd" d="M426.113 16.8982L421.243 4.84332C419.989 1.73923 416.413 0.197782 413.344 1.43784L397.807 7.71533C394.737 8.95551 393.252 12.51 394.506 15.6141L400.854 31.326C402.108 34.4301 405.646 35.9551 408.715 34.7149L420.202 30.0739C426.747 27.5561 427.83 28.9737 430.158 34.7351L434.935 46.5572C436.189 49.6613 439.726 51.1865 442.796 49.9464L458.333 43.669C461.402 42.4288 462.888 38.8742 461.634 35.7701L455.286 20.0582C454.032 16.9541 450.494 15.4293 447.424 16.6695L437.4 20.7197C431.244 23.2067 428.847 23.6651 426.113 16.8982Z" fill="white"/>
<path fill-rule="evenodd" clip-rule="evenodd" d="M444.394 -6.89852L448.464 3.17515C449.268 5.16528 448.297 7.45156 446.306 8.25583L436.23 12.3267C434.24 13.131 431.953 12.1608 431.149 10.1707L427.079 0.0970214C426.275 -1.89311 427.246 -4.17928 429.237 -4.98354L439.312 -9.05446C441.303 -9.85872 443.59 -8.88865 444.394 -6.89852Z" fill="white"/>
<path fill-rule="evenodd" clip-rule="evenodd" d="M425.798 50.3308L422.309 41.6964C421.62 39.9903 419.66 39.1587 417.954 39.8482L409.317 43.3375C407.611 44.0268 406.779 45.9864 407.468 47.6925L410.957 56.327C411.646 58.0328 413.606 58.8642 415.312 58.1749L423.948 54.6855C425.655 53.9961 426.487 52.0366 425.798 50.3308Z" fill="white"/>
</g>
</g>
</g>
</svg>
