<svg width="456" height="470" viewBox="0 0 456 470" fill="none" xmlns="http://www.w3.org/2000/svg">
<path fill-rule="evenodd" clip-rule="evenodd" d="M0 0H456V470H0V0Z" fill="#005077"/>
<mask id="mask0_101_4554" style="mask-type:alpha" maskUnits="userSpaceOnUse" x="0" y="0" width="456" height="470">
<path fill-rule="evenodd" clip-rule="evenodd" d="M0 0H456V470H0V0Z" fill="white"/>
</mask>
<g mask="url(#mask0_101_4554)">
<g opacity="0.1">
<g opacity="0.985423">
<path fill-rule="evenodd" clip-rule="evenodd" d="M290.572 470.352L292.778 457.841C293.346 454.619 291.179 451.49 287.992 450.928L271.855 448.083C268.667 447.521 265.594 449.697 265.026 452.918L262.15 469.225C261.582 472.447 263.726 475.542 266.914 476.104L278.844 478.208C285.576 479.512 285.74 481.247 284.686 487.227L282.522 499.497C281.954 502.718 284.098 505.814 287.286 506.376L303.422 509.222C306.61 509.784 309.684 507.608 310.252 504.386L313.127 488.079C313.695 484.858 311.551 481.762 308.363 481.2L297.952 479.364C291.559 478.237 289.334 477.375 290.572 470.352Z" fill="white"/>
<path fill-rule="evenodd" clip-rule="evenodd" d="M318.06 460.102L316.217 470.557C315.853 472.623 313.863 474.014 311.796 473.65L301.331 471.804C299.263 471.44 297.87 469.452 298.234 467.386L300.078 456.931C300.442 454.866 302.431 453.474 304.499 453.839L314.963 455.684C317.031 456.049 318.425 458.037 318.06 460.102Z" fill="white"/>
</g>
<g opacity="0.597538">
<path fill-rule="evenodd" clip-rule="evenodd" d="M356.298 470.577L359.372 458.25C360.163 455.076 358.22 451.803 355.079 451.02L339.18 447.056C336.039 446.273 332.822 448.229 332.031 451.403L328.025 467.47C327.233 470.644 329.156 473.882 332.297 474.665L344.051 477.595C350.676 479.366 350.718 481.108 349.249 487L346.235 499.089C345.444 502.263 347.366 505.501 350.507 506.284L366.406 510.248C369.547 511.031 372.765 509.075 373.556 505.901L377.562 489.834C378.353 486.66 376.431 483.422 373.29 482.639L363.031 480.081C356.733 478.511 354.573 477.496 356.298 470.577Z" fill="white"/>
<path fill-rule="evenodd" clip-rule="evenodd" d="M384.436 462.269L381.868 472.57C381.36 474.605 379.279 475.854 377.242 475.347L366.931 472.776C364.894 472.268 363.643 470.188 364.15 468.153L366.718 457.852C367.226 455.817 369.307 454.567 371.344 455.075L381.655 457.646C383.692 458.154 384.944 460.234 384.436 462.269Z" fill="white"/>
</g>
<g opacity="0.949687">
<path fill-rule="evenodd" clip-rule="evenodd" d="M422.004 470.841L425.93 458.759C426.941 455.647 425.231 452.247 422.153 451.247L406.569 446.183C403.49 445.183 400.144 446.91 399.133 450.022L394.016 465.769C393.005 468.881 394.697 472.244 397.776 473.245L409.297 476.988C415.783 479.216 415.703 480.958 413.827 486.732L409.977 498.582C408.966 501.693 410.658 505.057 413.737 506.057L429.32 511.121C432.399 512.121 435.745 510.394 436.756 507.283L441.873 491.535C442.884 488.424 441.192 485.06 438.113 484.059L428.058 480.792C421.884 478.786 419.801 477.623 422.004 470.841Z" fill="white"/>
<path fill-rule="evenodd" clip-rule="evenodd" d="M450.65 464.516L447.37 474.613C446.722 476.608 444.558 477.709 442.561 477.06L432.455 473.777C430.458 473.128 429.355 470.965 430.003 468.97L433.284 458.874C433.932 456.879 436.096 455.778 438.092 456.427L448.198 459.71C450.195 460.359 451.298 462.522 450.65 464.516Z" fill="white"/>
</g>
<g opacity="0.0502465">
<path fill-rule="evenodd" clip-rule="evenodd" d="M35.7737 412.436L47.9858 408.934C51.1304 408.032 52.9931 404.713 52.1009 401.602L47.5843 385.851C46.692 382.739 43.389 380.931 40.2444 381.832L24.3276 386.396C21.183 387.298 19.3403 390.582 20.2326 393.694L23.5717 405.338C25.3511 411.961 23.863 412.869 18.0265 414.543L6.05018 417.977C2.90561 418.878 1.0626 422.162 1.95489 425.274L6.47136 441.025C7.36364 444.136 10.6668 445.945 13.8114 445.043L29.7282 440.479C32.8728 439.577 34.7154 436.293 33.8231 433.182L30.909 423.019C29.1197 416.779 28.9186 414.401 35.7737 412.436Z" fill="white"/>
<path fill-rule="evenodd" clip-rule="evenodd" d="M57.0346 432.649L46.8296 435.575C44.8135 436.153 42.6906 434.975 42.1119 432.957L39.183 422.742C38.6043 420.724 39.7803 418.6 41.7964 418.022L52.0015 415.096C54.0176 414.518 56.1404 415.696 56.719 417.714L59.648 427.928C60.2267 429.946 59.0507 432.071 57.0346 432.649Z" fill="white"/>
<path fill-rule="evenodd" clip-rule="evenodd" d="M3.31366 408.704L12.0607 406.196C13.7891 405.7 14.7971 403.88 14.301 402.15L11.7905 393.395C11.2945 391.665 9.47492 390.655 7.74658 391.151L-1.00049 393.659C-2.72855 394.154 -3.73644 395.975 -3.24046 397.705L-0.729941 406.46C-0.233884 408.19 1.58561 409.2 3.31366 408.704Z" fill="white"/>
</g>
<g opacity="0.135909">
<path fill-rule="evenodd" clip-rule="evenodd" d="M231.25 414.276L243.923 413.39C247.187 413.162 249.699 410.302 249.473 407.073L248.33 390.727C248.104 387.498 245.249 385.043 241.986 385.271L225.468 386.426C222.205 386.654 219.719 389.483 219.945 392.712L220.79 404.797C221.154 411.645 219.51 412.223 213.453 412.647L201.024 413.516C197.761 413.744 195.275 416.573 195.501 419.802L196.644 436.148C196.87 439.377 199.725 441.833 202.988 441.605L219.506 440.45C222.769 440.221 225.255 437.392 225.029 434.163L224.291 423.617C223.838 417.141 224.136 414.773 231.25 414.276Z" fill="white"/>
<path fill-rule="evenodd" clip-rule="evenodd" d="M247.848 438.468L237.257 439.209C235.165 439.355 233.333 437.761 233.187 435.667L232.446 425.066C232.299 422.972 233.891 421.139 235.983 420.993L246.574 420.252C248.666 420.106 250.498 421.7 250.644 423.794L251.385 434.394C251.532 436.488 249.94 438.322 247.848 438.468Z" fill="white"/>
<path fill-rule="evenodd" clip-rule="evenodd" d="M200.276 403.877L209.353 403.243C211.147 403.117 212.512 401.546 212.386 399.751L211.751 390.665C211.625 388.87 210.055 387.504 208.262 387.629L199.184 388.264C197.391 388.389 196.027 389.961 196.152 391.756L196.787 400.842C196.913 402.637 198.483 404.003 200.276 403.877Z" fill="white"/>
</g>
<g opacity="0.293484">
<path fill-rule="evenodd" clip-rule="evenodd" d="M296.226 414.935H308.994C312.281 414.935 315 412.281 315 409.073V392.833C315 389.625 312.31 387 309.022 387H292.382C289.094 387 286.405 389.625 286.405 392.833V404.84C286.289 411.635 284.6 412.094 278.498 412.094H265.978C262.69 412.094 260 414.718 260 417.927V434.166C260 437.375 262.69 440 265.978 440H282.618C285.906 440 288.595 437.375 288.595 434.166V423.688C288.595 417.255 289.06 414.935 296.226 414.935Z" fill="white"/>
<path fill-rule="evenodd" clip-rule="evenodd" d="M311.169 440H300.5C298.392 440 296.668 438.297 296.668 436.217V425.685C296.668 423.605 298.392 421.902 300.5 421.902H311.169C313.277 421.902 315.001 423.605 315.001 425.685V436.217C315.001 438.297 313.277 440 311.169 440Z" fill="white"/>
<path fill-rule="evenodd" clip-rule="evenodd" d="M265.902 402.512H275.047C276.853 402.512 278.331 401.053 278.331 399.27V390.243C278.331 388.459 276.853 387 275.047 387H265.902C264.095 387 262.617 388.459 262.617 390.243V399.27C262.617 401.053 264.095 402.512 265.902 402.512Z" fill="white"/>
</g>
<g opacity="0.309301">
<path fill-rule="evenodd" clip-rule="evenodd" d="M361.353 415.487L374.026 416.373C377.289 416.602 380.175 414.12 380.401 410.891L381.544 394.545C381.77 391.315 379.284 388.487 376.021 388.259L359.503 387.103C356.239 386.875 353.385 389.331 353.159 392.56L352.314 404.645C351.721 411.476 350.012 411.821 343.955 411.397L331.527 410.528C328.263 410.3 325.408 412.755 325.182 415.984L324.039 432.33C323.814 435.559 326.299 438.388 329.562 438.617L346.08 439.772C349.344 440 352.198 437.544 352.424 434.315L353.162 423.768C353.614 417.293 354.239 414.99 361.353 415.487Z" fill="white"/>
<path fill-rule="evenodd" clip-rule="evenodd" d="M374.422 441.753L363.831 441.013C361.739 440.866 360.147 439.033 360.294 436.939L361.035 426.338C361.181 424.244 363.013 422.651 365.105 422.797L375.696 423.537C377.788 423.684 379.38 425.517 379.233 427.611L378.492 438.211C378.346 440.305 376.514 441.899 374.422 441.753Z" fill="white"/>
<path fill-rule="evenodd" clip-rule="evenodd" d="M332.128 400.879L341.205 401.514C342.999 401.639 344.568 400.273 344.694 398.478L345.329 389.392C345.455 387.597 344.09 386.026 342.297 385.9L333.219 385.265C331.426 385.14 329.856 386.506 329.731 388.301L329.095 397.387C328.97 399.182 330.334 400.753 332.128 400.879Z" fill="white"/>
</g>
<g opacity="0.692281">
<path fill-rule="evenodd" clip-rule="evenodd" d="M426.341 416.079L438.922 417.847C442.161 418.303 445.213 416.028 445.664 412.823L447.944 396.596C448.395 393.391 446.113 390.395 442.873 389.94L426.476 387.636C423.236 387.18 420.217 389.431 419.767 392.636L418.081 404.633C417.013 411.406 415.284 411.631 409.272 410.786L396.934 409.052C393.694 408.596 390.675 410.847 390.225 414.052L387.944 430.278C387.494 433.484 389.776 436.479 393.015 436.935L409.412 439.239C412.652 439.694 415.671 437.444 416.121 434.238L417.593 423.769C418.496 417.341 419.279 415.087 426.341 416.079Z" fill="white"/>
<path fill-rule="evenodd" clip-rule="evenodd" d="M437.543 443.193L427.03 441.715C424.953 441.423 423.493 439.483 423.785 437.405L425.264 426.882C425.556 424.803 427.494 423.341 429.571 423.633L440.084 425.11C442.161 425.402 443.621 427.342 443.329 429.421L441.85 439.943C441.558 442.022 439.62 443.485 437.543 443.193Z" fill="white"/>
<path fill-rule="evenodd" clip-rule="evenodd" d="M398.205 399.468L407.216 400.734C408.997 400.985 410.658 399.732 410.909 397.949L412.176 388.93C412.427 387.148 411.175 385.485 409.395 385.235L400.384 383.969C398.603 383.719 396.942 384.972 396.692 386.754L395.424 395.773C395.174 397.555 396.425 399.218 398.205 399.468Z" fill="white"/>
</g>
<g opacity="0.271926">
<path fill-rule="evenodd" clip-rule="evenodd" d="M287.721 357.026L289.927 369.537C290.495 372.758 293.601 374.958 296.789 374.396L312.926 371.55C316.114 370.988 318.257 367.892 317.689 364.671L314.814 348.364C314.246 345.142 311.173 342.967 307.985 343.529L296.054 345.632C289.282 346.71 288.535 345.135 287.48 339.155L285.317 326.886C284.749 323.664 281.676 321.488 278.488 322.05L262.351 324.895C259.163 325.458 257.019 328.554 257.588 331.775L260.463 348.082C261.031 351.303 264.104 353.479 267.292 352.917L277.704 351.081C284.097 349.954 286.482 350.003 287.721 357.026Z" fill="white"/>
<path fill-rule="evenodd" clip-rule="evenodd" d="M265.396 376.059L263.553 365.604C263.189 363.538 264.582 361.55 266.65 361.186L277.114 359.341C279.182 358.976 281.171 360.368 281.536 362.433L283.379 372.888C283.743 374.954 282.35 376.942 280.282 377.306L269.818 379.151C267.75 379.516 265.76 378.124 265.396 376.059Z" fill="white"/>
<path fill-rule="evenodd" clip-rule="evenodd" d="M294.825 325.135L296.405 334.096C296.718 335.867 298.423 337.06 300.195 336.747L309.165 335.165C310.937 334.853 312.131 333.149 311.819 331.378L310.239 322.417C309.927 320.647 308.222 319.454 306.45 319.766L297.48 321.348C295.708 321.66 294.513 323.364 294.825 325.135Z" fill="white"/>
</g>
<g opacity="0.828313">
<path fill-rule="evenodd" clip-rule="evenodd" d="M352.26 357.01L353.588 369.645C353.93 372.898 356.875 375.309 360.094 374.97L376.39 373.258C379.61 372.919 381.964 369.98 381.622 366.727L379.891 350.259C379.549 347.006 376.635 344.621 373.416 344.96L361.368 346.226C354.537 346.828 353.901 345.205 353.267 339.167L351.965 326.776C351.623 323.523 348.709 321.137 345.489 321.476L329.194 323.188C325.974 323.527 323.62 326.466 323.962 329.719L325.692 346.187C326.034 349.44 328.948 351.825 332.168 351.487L342.682 350.381C349.138 349.703 351.514 349.918 352.26 357.01Z" fill="white"/>
<path fill-rule="evenodd" clip-rule="evenodd" d="M328.661 374.44L327.551 363.882C327.332 361.796 328.861 359.91 330.949 359.69L341.517 358.58C343.604 358.36 345.492 359.887 345.711 361.973L346.821 372.531C347.04 374.617 345.511 376.503 343.423 376.722L332.855 377.833C330.768 378.053 328.88 376.526 328.661 374.44Z" fill="white"/>
<path fill-rule="evenodd" clip-rule="evenodd" d="M361.572 325.692L362.523 334.742C362.711 336.53 364.329 337.839 366.119 337.651L375.177 336.699C376.966 336.511 378.277 334.894 378.089 333.106L377.138 324.056C376.95 322.269 375.332 320.96 373.542 321.148L364.484 322.1C362.694 322.288 361.384 323.905 361.572 325.692Z" fill="white"/>
</g>
<g opacity="0.0506713">
<path fill-rule="evenodd" clip-rule="evenodd" d="M416.799 356.951L417.242 369.648C417.356 372.917 420.126 375.528 423.361 375.415L439.737 374.843C442.972 374.73 445.526 371.962 445.412 368.693L444.834 352.145C444.72 348.875 441.979 346.293 438.744 346.406L426.637 346.829C419.781 346.953 419.26 345.29 419.048 339.222L418.613 326.77C418.499 323.501 415.759 320.918 412.524 321.031L396.148 321.603C392.913 321.716 390.359 324.484 390.473 327.753L391.051 344.301C391.165 347.57 393.906 350.153 397.141 350.04L407.707 349.671C414.194 349.444 416.55 349.824 416.799 356.951Z" fill="white"/>
<path fill-rule="evenodd" clip-rule="evenodd" d="M392.043 372.693L391.672 362.083C391.599 359.987 393.256 358.212 395.354 358.139L405.974 357.768C408.072 357.695 409.848 359.35 409.921 361.446L410.292 372.055C410.365 374.152 408.708 375.926 406.61 376L395.991 376.37C393.893 376.444 392.116 374.789 392.043 372.693Z" fill="white"/>
<path fill-rule="evenodd" clip-rule="evenodd" d="M428.27 326.36L428.588 335.454C428.651 337.251 430.173 338.669 431.972 338.606L441.074 338.288C442.873 338.226 444.293 336.704 444.23 334.907L443.912 325.813C443.85 324.017 442.327 322.598 440.529 322.661L431.426 322.979C429.627 323.042 428.208 324.563 428.27 326.36Z" fill="white"/>
</g>
<g opacity="0.720749">
<path fill-rule="evenodd" clip-rule="evenodd" d="M213.965 285.218L202.359 290.385C199.371 291.715 197.988 295.262 199.305 298.219L205.969 313.188C207.286 316.145 210.809 317.476 213.797 316.145L228.924 309.41C231.912 308.08 233.28 304.572 231.963 301.614L227.036 290.548C224.352 284.237 225.7 283.131 231.246 280.661L242.628 275.594C245.617 274.263 246.985 270.755 245.668 267.798L239.003 252.829C237.687 249.871 234.164 248.54 231.176 249.871L216.049 256.606C213.06 257.936 211.693 261.445 213.009 264.402L217.31 274.06C219.95 279.991 220.48 282.317 213.965 285.218Z" fill="white"/>
<path fill-rule="evenodd" clip-rule="evenodd" d="M190.095 268.161L199.794 263.842C201.71 262.989 203.976 263.861 204.83 265.779L209.152 275.486C210.006 277.404 209.137 279.671 207.221 280.524L197.522 284.842C195.606 285.695 193.34 284.824 192.486 282.906L188.164 273.199C187.31 271.281 188.179 269.014 190.095 268.161Z" fill="white"/>
<path fill-rule="evenodd" clip-rule="evenodd" d="M246.627 284.395L238.315 288.096C236.672 288.828 235.927 290.771 236.659 292.415L240.364 300.735C241.096 302.379 243.038 303.126 244.681 302.395L252.994 298.694C254.636 297.963 255.38 296.019 254.649 294.375L250.944 286.055C250.212 284.411 248.27 283.664 246.627 284.395Z" fill="white"/>
</g>
<g opacity="0.397144">
<path fill-rule="evenodd" clip-rule="evenodd" d="M278.983 284.618L267.045 288.963C263.971 290.082 262.345 293.523 263.452 296.564L269.056 311.962C270.163 315.004 273.584 316.577 276.658 315.458L292.218 309.795C295.292 308.676 296.901 305.272 295.794 302.23L291.651 290.847C289.414 284.364 290.835 283.355 296.54 281.278L308.248 277.017C311.322 275.898 312.932 272.494 311.824 269.452L306.22 254.054C305.113 251.012 301.692 249.439 298.618 250.558L283.058 256.221C279.984 257.34 278.375 260.744 279.482 263.786L283.098 273.721C285.318 279.821 285.685 282.179 278.983 284.618Z" fill="white"/>
<path fill-rule="evenodd" clip-rule="evenodd" d="M256.363 265.938L266.339 262.307C268.309 261.589 270.509 262.617 271.227 264.589L274.862 274.575C275.58 276.547 274.555 278.748 272.584 279.466L262.608 283.097C260.637 283.814 258.437 282.787 257.719 280.814L254.085 270.829C253.367 268.856 254.392 266.655 256.363 265.938Z" fill="white"/>
<path fill-rule="evenodd" clip-rule="evenodd" d="M311.624 286.076L303.073 289.189C301.384 289.804 300.505 291.69 301.121 293.381L304.236 301.94C304.851 303.631 306.737 304.511 308.426 303.896L316.977 300.784C318.666 300.169 319.545 298.283 318.929 296.592L315.814 288.033C315.199 286.342 313.313 285.462 311.624 286.076Z" fill="white"/>
</g>
<g opacity="0.0418853">
<path fill-rule="evenodd" clip-rule="evenodd" d="M344.047 284.01L331.834 287.512C328.69 288.414 326.827 291.733 327.719 294.844L332.236 310.595C333.128 313.707 336.431 315.515 339.576 314.613L355.493 310.049C358.637 309.148 360.48 305.864 359.588 302.752L356.249 291.107C354.469 284.485 355.957 283.577 361.794 281.903L373.77 278.469C376.915 277.567 378.758 274.284 377.865 271.172L373.349 255.421C372.457 252.309 369.154 250.501 366.009 251.403L350.092 255.967C346.948 256.868 345.105 260.152 345.997 263.264L348.911 273.427C350.701 279.667 350.902 282.044 344.047 284.01Z" fill="white"/>
<path fill-rule="evenodd" clip-rule="evenodd" d="M322.786 263.797L332.991 260.871C335.007 260.293 337.13 261.471 337.708 263.489L340.637 273.704C341.216 275.722 340.04 277.846 338.024 278.424L327.819 281.35C325.803 281.928 323.68 280.75 323.101 278.732L320.172 268.518C319.594 266.499 320.77 264.375 322.786 263.797Z" fill="white"/>
<path fill-rule="evenodd" clip-rule="evenodd" d="M376.507 287.742L367.76 290.25C366.031 290.745 365.023 292.566 365.519 294.296L368.03 303.051C368.526 304.781 370.345 305.791 372.074 305.295L380.821 302.787C382.549 302.291 383.557 300.471 383.061 298.741L380.55 289.986C380.054 288.256 378.235 287.246 376.507 287.742Z" fill="white"/>
</g>
<g opacity="0.12321">
<path fill-rule="evenodd" clip-rule="evenodd" d="M409.151 283.398L396.724 286.039C393.524 286.719 391.435 289.9 392.108 293.066L395.515 309.094C396.188 312.261 399.356 314.295 402.556 313.615L418.753 310.172C421.953 309.492 424.02 306.345 423.347 303.178L420.828 291.329C419.515 284.598 421.063 283.796 427.002 282.534L439.189 279.944C442.388 279.263 444.456 276.116 443.783 272.95L440.376 256.922C439.703 253.756 436.534 251.722 433.334 252.402L417.138 255.844C413.938 256.525 411.871 259.672 412.544 262.838L414.742 273.18C416.092 279.529 416.126 281.915 409.151 283.398Z" fill="white"/>
<path fill-rule="evenodd" clip-rule="evenodd" d="M389.351 261.751L399.735 259.544C401.786 259.108 403.822 260.431 404.258 262.485L406.468 272.879C406.904 274.932 405.583 276.969 403.531 277.405L393.147 279.612C391.096 280.048 389.06 278.725 388.624 276.672L386.414 266.278C385.978 264.224 387.299 262.187 389.351 261.751Z" fill="white"/>
<path fill-rule="evenodd" clip-rule="evenodd" d="M441.272 289.385L432.371 291.277C430.612 291.65 429.48 293.396 429.854 295.156L431.748 304.065C432.122 305.825 433.866 306.96 435.625 306.586L444.526 304.694C446.284 304.32 447.417 302.574 447.043 300.814L445.149 291.905C444.775 290.145 443.03 289.011 441.272 289.385Z" fill="white"/>
</g>
<g opacity="0.2">
<path fill-rule="evenodd" clip-rule="evenodd" d="M87.4443 210.372L78.9435 200.93C76.7546 198.499 72.9548 198.28 70.5494 200.446L58.3723 211.41C55.9666 213.577 55.7895 217.338 57.9784 219.769L69.0581 232.074C71.247 234.505 75.0061 234.722 77.4118 232.556L86.4144 224.45C91.5866 219.947 93.0551 220.887 97.1179 225.399L105.455 234.658C107.643 237.089 111.403 237.306 113.808 235.14L125.985 224.176C128.391 222.01 128.568 218.248 126.379 215.817L115.3 203.512C113.111 201.081 109.351 200.864 106.946 203.03L99.0891 210.105C94.2649 214.448 92.2162 215.671 87.4443 210.372Z" fill="white"/>
<path fill-rule="evenodd" clip-rule="evenodd" d="M96.2901 182.4L103.394 190.289C104.797 191.848 104.669 194.272 103.109 195.677L95.2119 202.787C93.6517 204.192 91.2272 204.066 89.8238 202.508L82.7201 194.618C81.3167 193.06 81.4449 190.635 83.005 189.23L90.9018 182.12C92.4619 180.715 94.8867 180.841 96.2901 182.4Z" fill="white"/>
<path fill-rule="evenodd" clip-rule="evenodd" d="M98.3208 241.181L92.232 234.419C91.0289 233.083 88.9509 232.975 87.6135 234.179L80.8448 240.274C79.5077 241.478 79.3976 243.556 80.6006 244.892L86.6895 251.654C87.8923 252.99 89.9706 253.098 91.3078 251.894L98.0764 245.8C99.4138 244.595 99.5237 242.517 98.3208 241.181Z" fill="white"/>
</g>
<g opacity="0.413883">
<path fill-rule="evenodd" clip-rule="evenodd" d="M153.128 210.059L145.306 200.048C143.292 197.47 139.517 196.987 136.966 198.98L124.054 209.068C121.503 211.061 121.064 214.8 123.078 217.378L133.272 230.426C135.286 233.004 139.021 233.483 141.572 231.49L151.118 224.031C156.592 219.901 157.991 220.94 161.729 225.725L169.4 235.543C171.414 238.121 175.149 238.599 177.7 236.606L190.612 226.518C193.163 224.525 193.602 220.785 191.588 218.207L181.394 205.159C179.38 202.582 175.645 202.103 173.094 204.096L164.763 210.605C159.647 214.602 157.518 215.679 153.128 210.059Z" fill="white"/>
<path fill-rule="evenodd" clip-rule="evenodd" d="M163.905 182.773L170.441 191.139C171.733 192.791 171.435 195.201 169.781 196.494L161.408 203.036C159.753 204.328 157.343 204.033 156.052 202.381L149.516 194.015C148.225 192.362 148.522 189.953 150.176 188.66L158.55 182.118C160.204 180.826 162.614 181.12 163.905 182.773Z" fill="white"/>
<path fill-rule="evenodd" clip-rule="evenodd" d="M161.828 241.552L156.225 234.382C155.118 232.965 153.053 232.712 151.635 233.82L144.458 239.428C143.04 240.536 142.785 242.601 143.892 244.018L149.494 251.188C150.601 252.605 152.666 252.858 154.084 251.75L161.262 246.142C162.68 245.034 162.934 242.969 161.828 241.552Z" fill="white"/>
</g>
<g opacity="0.418195">
<path fill-rule="evenodd" clip-rule="evenodd" d="M218.829 209.785L211.725 199.252C209.895 196.54 206.163 195.794 203.48 197.604L189.895 206.767C187.211 208.577 186.512 212.278 188.342 214.99L197.601 228.717C199.43 231.429 203.123 232.167 205.806 230.357L215.85 223.583C221.598 219.844 222.921 220.978 226.317 226.012L233.284 236.341C235.113 239.053 238.805 239.791 241.489 237.981L255.073 228.818C257.757 227.008 258.456 223.308 256.627 220.596L247.368 206.868C245.538 204.156 241.846 203.419 239.162 205.229L230.397 211.141C225.016 214.771 222.817 215.697 218.829 209.785Z" fill="white"/>
<path fill-rule="evenodd" clip-rule="evenodd" d="M231.482 183.316L237.418 192.118C238.591 193.856 238.127 196.239 236.386 197.413L227.577 203.355C225.836 204.529 223.453 204.067 222.28 202.328L216.344 193.527C215.171 191.788 215.635 189.405 217.376 188.231L226.185 182.289C227.925 181.115 230.309 181.577 231.482 183.316Z" fill="white"/>
<path fill-rule="evenodd" clip-rule="evenodd" d="M225.309 241.808L220.221 234.264C219.215 232.773 217.172 232.377 215.68 233.384L208.129 238.477C206.638 239.483 206.239 241.526 207.245 243.016L212.333 250.56C213.339 252.051 215.382 252.446 216.873 251.44L224.424 246.347C225.916 245.341 226.314 243.298 225.309 241.808Z" fill="white"/>
</g>
<g opacity="0.566988">
<path fill-rule="evenodd" clip-rule="evenodd" d="M284.551 209.549L278.198 198.547C276.563 195.714 272.892 194.709 270.088 196.328L255.898 204.521C253.094 206.139 252.139 209.782 253.775 212.615L262.054 226.955C263.689 229.788 267.321 230.781 270.125 229.163L280.616 223.105C286.611 219.777 287.852 221.001 290.888 226.259L297.118 237.049C298.753 239.882 302.385 240.876 305.189 239.257L319.379 231.065C322.183 229.446 323.138 225.803 321.503 222.97L313.223 208.631C311.588 205.798 307.956 204.804 305.152 206.423L295.996 211.709C290.374 214.955 288.116 215.725 284.551 209.549Z" fill="white"/>
<path fill-rule="evenodd" clip-rule="evenodd" d="M299.02 184.028L304.328 193.222C305.376 195.038 304.747 197.383 302.929 198.433L293.726 203.746C291.908 204.795 289.563 204.168 288.514 202.352L283.206 193.158C282.157 191.341 282.787 188.997 284.605 187.947L293.807 182.634C295.625 181.584 297.971 182.211 299.02 184.028Z" fill="white"/>
<path fill-rule="evenodd" clip-rule="evenodd" d="M288.784 241.946L284.234 234.066C283.335 232.509 281.325 231.971 279.766 232.871L271.878 237.425C270.32 238.325 269.78 240.335 270.679 241.892L275.229 249.772C276.128 251.329 278.138 251.866 279.697 250.967L287.585 246.413C289.143 245.513 289.683 243.503 288.784 241.946Z" fill="white"/>
</g>
<g opacity="0.692395">
<path fill-rule="evenodd" clip-rule="evenodd" d="M350.287 209.354L344.718 197.935C343.284 194.995 339.692 193.737 336.782 195.156L322.055 202.339C319.145 203.758 317.938 207.325 319.372 210.265L326.631 225.148C328.065 228.088 331.619 229.333 334.528 227.914L345.417 222.603C351.629 219.701 352.782 221.008 355.444 226.466L360.905 237.664C362.339 240.604 365.893 241.849 368.803 240.43L383.53 233.247C386.44 231.828 387.647 228.261 386.213 225.32L378.954 210.438C377.52 207.498 373.966 206.253 371.057 207.672L361.554 212.307C355.72 215.153 353.413 215.764 350.287 209.354Z" fill="white"/>
<path fill-rule="evenodd" clip-rule="evenodd" d="M366.499 184.904L371.153 194.446C372.072 196.331 371.28 198.627 369.393 199.547L359.843 204.205C357.956 205.125 355.66 204.336 354.74 202.451L350.087 192.909C349.167 191.024 349.959 188.729 351.846 187.809L361.396 183.15C363.283 182.23 365.579 183.019 366.499 184.904Z" fill="white"/>
<path fill-rule="evenodd" clip-rule="evenodd" d="M352.247 241.968L348.258 233.789C347.47 232.173 345.502 231.496 343.884 232.285L335.698 236.278C334.081 237.067 333.402 239.034 334.19 240.65L338.179 248.829C338.967 250.445 340.936 251.121 342.553 250.332L350.739 246.34C352.357 245.551 353.035 243.583 352.247 241.968Z" fill="white"/>
</g>
<g opacity="0.532348">
<path fill-rule="evenodd" clip-rule="evenodd" d="M416.032 209.199L411.273 197.42C410.047 194.387 406.551 192.882 403.55 194.094L388.358 200.232C385.356 201.445 383.903 204.919 385.129 207.952L391.332 223.305C392.557 226.338 396.015 227.827 399.017 226.615L410.249 222.076C416.649 219.614 417.708 221 419.982 226.629L424.649 238.181C425.875 241.214 429.333 242.704 432.335 241.491L447.527 235.353C450.528 234.14 451.982 230.666 450.756 227.633L444.553 212.28C443.328 209.247 439.869 207.758 436.868 208.971L427.066 212.931C421.047 215.363 418.703 215.812 416.032 209.199Z" fill="white"/>
<path fill-rule="evenodd" clip-rule="evenodd" d="M433.911 185.94L437.888 195.784C438.674 197.728 437.724 199.963 435.777 200.749L425.925 204.73C423.978 205.516 421.743 204.569 420.957 202.624L416.98 192.781C416.195 190.836 417.144 188.602 419.091 187.815L428.943 183.835C430.89 183.048 433.125 183.996 433.911 185.94Z" fill="white"/>
<path fill-rule="evenodd" clip-rule="evenodd" d="M415.713 241.87L412.304 233.433C411.631 231.766 409.715 230.954 408.046 231.628L399.602 235.04C397.933 235.714 397.119 237.63 397.793 239.297L401.201 247.734C401.875 249.4 403.791 250.212 405.459 249.538L413.904 246.126C415.573 245.452 416.387 243.537 415.713 241.87Z" fill="white"/>
</g>
<g opacity="0.3">
<path fill-rule="evenodd" clip-rule="evenodd" d="M33.0812 146.189L40.1853 135.656C42.0146 132.944 41.308 129.205 38.6245 127.395L25.04 118.232C22.3563 116.421 18.6638 117.16 16.8345 119.872L7.57523 133.599C5.74594 136.311 6.44501 140.011 9.12875 141.821L19.1719 148.595C24.7919 152.525 24.2356 154.177 20.8403 159.21L13.8734 169.539C12.0441 172.251 12.743 175.952 15.4267 177.762L29.0109 186.924C31.6947 188.735 35.3874 187.997 37.2167 185.285L46.476 171.557C48.3053 168.845 47.606 165.145 44.9222 163.335L36.1574 157.423C30.7757 153.793 29.0934 152.101 33.0812 146.189Z" fill="white"/>
<path fill-rule="evenodd" clip-rule="evenodd" d="M62.3619 148.005L56.4253 156.806C55.2525 158.545 52.8688 159.007 51.1284 157.833L42.3189 151.891C40.5785 150.717 40.1141 148.334 41.2869 146.596L47.2235 137.794C48.3963 136.055 50.7797 135.593 52.5202 136.767L61.3296 142.709C63.0701 143.883 63.5347 146.266 62.3619 148.005Z" fill="white"/>
<path fill-rule="evenodd" clip-rule="evenodd" d="M5.81595 164.194L10.9044 156.65C11.9098 155.16 11.5118 153.117 10.0198 152.111L2.46887 147.018C0.977123 146.012 -1.06594 146.407 -2.07137 147.898L-7.15978 155.442C-8.16504 156.932 -7.76679 158.975 -6.27505 159.981L1.27588 165.074C2.76787 166.081 4.81069 165.685 5.81595 164.194Z" fill="white"/>
</g>
<g opacity="0.234001">
<path fill-rule="evenodd" clip-rule="evenodd" d="M98.6661 146.627L106.488 136.616C108.502 134.038 108.058 130.258 105.507 128.265L92.5947 118.177C90.0437 116.184 86.3087 116.663 84.2947 119.24L74.1004 132.288C72.0864 134.866 72.5257 138.606 75.0766 140.599L84.6228 148.057C89.955 152.369 89.2848 153.978 85.5466 158.763L77.8762 168.581C75.8621 171.158 76.3012 174.898 78.8522 176.891L91.7641 186.979C94.3151 188.972 98.0503 188.494 100.064 185.916L110.259 172.868C112.273 170.29 111.833 166.55 109.282 164.557L100.951 158.048C95.8357 154.052 94.2755 152.246 98.6661 146.627Z" fill="white"/>
<path fill-rule="evenodd" clip-rule="evenodd" d="M127.747 150.481L121.211 158.847C119.92 160.5 117.51 160.794 115.855 159.502L107.482 152.96C105.828 151.667 105.53 149.258 106.822 147.605L113.358 139.239C114.649 137.587 117.059 137.292 118.713 138.584L127.087 145.126C128.741 146.419 129.038 148.829 127.747 150.481Z" fill="white"/>
<path fill-rule="evenodd" clip-rule="evenodd" d="M70.2114 162.687L75.8137 155.516C76.9207 154.099 76.6661 152.034 75.2479 150.926L68.0707 145.319C66.6528 144.211 64.5871 144.463 63.4801 145.88L57.8778 153.051C56.7711 154.467 57.0259 156.533 58.4438 157.64L65.621 163.248C67.0392 164.356 69.1047 164.103 70.2114 162.687Z" fill="white"/>
</g>
<g opacity="0.3768">
<path fill-rule="evenodd" clip-rule="evenodd" d="M164.22 147.093L172.721 137.652C174.91 135.221 174.731 131.419 172.325 129.254L160.148 118.289C157.743 116.123 153.983 116.34 151.794 118.771L140.715 131.076C138.526 133.508 138.703 137.269 141.109 139.435L150.112 147.541C155.13 152.214 154.349 153.773 150.286 158.285L141.95 167.544C139.761 169.975 139.938 173.736 142.344 175.902L154.52 186.866C156.926 189.032 160.686 188.816 162.875 186.384L173.954 174.079C176.143 171.648 175.966 167.887 173.56 165.721L165.703 158.647C160.879 154.303 159.449 152.393 164.22 147.093Z" fill="white"/>
<path fill-rule="evenodd" clip-rule="evenodd" d="M192.964 152.967L185.86 160.857C184.457 162.415 182.032 162.541 180.472 161.136L172.575 154.026C171.015 152.621 170.887 150.197 172.29 148.638L179.394 140.749C180.797 139.19 183.222 139.064 184.782 140.469L192.679 147.579C194.239 148.984 194.367 151.409 192.964 152.967Z" fill="white"/>
<path fill-rule="evenodd" clip-rule="evenodd" d="M134.714 161.13L140.803 154.367C142.006 153.031 141.896 150.953 140.559 149.749L133.79 143.655C132.453 142.451 130.375 142.558 129.172 143.894L123.083 150.657C121.88 151.993 121.99 154.071 123.327 155.275L130.096 161.369C131.433 162.574 133.511 162.466 134.714 161.13Z" fill="white"/>
</g>
<g opacity="0.0374312">
<path fill-rule="evenodd" clip-rule="evenodd" d="M295.221 148.105L304.953 139.939C307.459 137.836 307.81 134.047 305.73 131.567L295.197 119.015C293.116 116.535 289.363 116.227 286.857 118.329L274.173 128.973C271.667 131.076 271.319 134.825 273.4 137.305L281.187 146.585C285.506 151.911 284.516 153.346 279.865 157.248L270.321 165.257C267.815 167.36 267.467 171.109 269.547 173.589L280.08 186.141C282.161 188.621 285.914 188.929 288.42 186.827L301.104 176.183C303.61 174.08 303.958 170.331 301.877 167.851L295.081 159.752C290.908 154.779 289.758 152.689 295.221 148.105Z" fill="white"/>
<path fill-rule="evenodd" clip-rule="evenodd" d="M322.866 157.922L314.734 164.746C313.127 166.094 310.708 165.881 309.359 164.273L302.529 156.133C301.179 154.525 301.39 152.106 302.996 150.758L311.129 143.934C312.735 142.586 315.154 142.799 316.503 144.407L323.334 152.547C324.683 154.155 324.473 156.574 322.866 157.922Z" fill="white"/>
<path fill-rule="evenodd" clip-rule="evenodd" d="M264.051 157.899L271.021 152.05C272.399 150.894 272.579 148.821 271.422 147.442L265.568 140.465C264.411 139.087 262.338 138.904 260.961 140.06L253.99 145.909C252.613 147.064 252.433 149.138 253.589 150.516L259.444 157.493C260.601 158.872 262.674 159.054 264.051 157.899Z" fill="white"/>
</g>
<g opacity="0.266013">
<path fill-rule="evenodd" clip-rule="evenodd" d="M360.669 148.645L370.947 141.178C373.593 139.255 374.208 135.499 372.306 132.88L362.674 119.624C360.772 117.005 357.049 116.436 354.403 118.358L341.007 128.091C338.36 130.014 337.752 133.73 339.655 136.349L346.775 146.149C350.712 151.764 349.624 153.126 344.712 156.695L334.633 164.018C331.986 165.941 331.377 169.657 333.28 172.276L342.911 185.532C344.814 188.151 348.537 188.721 351.183 186.798L364.579 177.065C367.226 175.142 367.834 171.426 365.931 168.807L359.717 160.254C355.901 155.002 354.899 152.837 360.669 148.645Z" fill="white"/>
<path fill-rule="evenodd" clip-rule="evenodd" d="M387.56 160.367L378.972 166.607C377.275 167.84 374.877 167.458 373.643 165.76L367.397 157.163C366.163 155.465 366.542 153.067 368.239 151.834L376.827 145.594C378.524 144.361 380.922 144.742 382.156 146.44L388.402 155.037C389.636 156.736 389.257 159.134 387.56 160.367Z" fill="white"/>
<path fill-rule="evenodd" clip-rule="evenodd" d="M328.89 156.24L336.252 150.891C337.707 149.835 338.031 147.779 336.973 146.323L331.62 138.955C330.562 137.499 328.507 137.172 327.052 138.229L319.691 143.578C318.236 144.634 317.912 146.69 318.969 148.146L324.323 155.514C325.381 156.97 327.436 157.297 328.89 156.24Z" fill="white"/>
</g>
<g opacity="0.641975">
<path fill-rule="evenodd" clip-rule="evenodd" d="M426.074 149.204L436.848 142.472C439.622 140.738 440.498 137.034 438.783 134.289L430.099 120.393C428.384 117.648 424.71 116.82 421.936 118.554L407.894 127.328C405.12 129.062 404.254 132.726 405.969 135.472L412.389 145.745C415.925 151.621 414.744 152.904 409.595 156.121L399.029 162.723C396.255 164.457 395.389 168.121 397.104 170.867L405.787 184.762C407.503 187.508 411.176 188.335 413.95 186.602L427.993 177.827C430.767 176.094 431.633 172.429 429.918 169.684L424.315 160.718C420.875 155.213 420.026 152.983 426.074 149.204Z" fill="white"/>
<path fill-rule="evenodd" clip-rule="evenodd" d="M452.085 162.773L443.081 168.399C441.303 169.51 438.937 168.963 437.825 167.182L432.194 158.171C431.081 156.39 431.626 154.025 433.405 152.913L442.408 147.287C444.187 146.176 446.552 146.723 447.665 148.504L453.296 157.515C454.408 159.295 453.863 161.662 452.085 162.773Z" fill="white"/>
<path fill-rule="evenodd" clip-rule="evenodd" d="M393.846 154.564L401.563 149.742C403.088 148.789 403.555 146.761 402.601 145.235L397.775 137.511C396.821 135.985 394.794 135.516 393.269 136.469L385.552 141.291C384.027 142.243 383.56 144.271 384.514 145.797L389.34 153.521C390.294 155.048 392.321 155.517 393.846 154.564Z" fill="white"/>
</g>
<g opacity="0.879642">
<path fill-rule="evenodd" clip-rule="evenodd" d="M34.3699 92.2178L45.9759 97.3851C48.9643 98.7157 52.5247 97.3703 53.8413 94.4133L60.506 79.4441C61.8227 76.4868 60.4546 72.9786 57.4661 71.648L42.3394 64.9131C39.3509 63.5826 35.8286 64.9135 34.512 67.8708L29.5847 78.9377C26.6909 85.1547 24.9673 84.8937 19.4205 82.4241L8.03868 77.3566C5.0502 76.026 1.52766 77.3568 0.210981 80.3141L-6.45362 95.2831C-7.7703 98.2404 -6.40236 101.749 -3.41387 103.079L11.7129 109.814C14.7013 111.145 18.2237 109.814 19.5404 106.856L23.8405 97.1981C26.4809 91.2678 27.8551 89.3172 34.3699 92.2178Z" fill="white"/>
<path fill-rule="evenodd" clip-rule="evenodd" d="M37.6664 121.369L27.9679 117.051C26.0519 116.198 25.1831 113.931 26.037 112.013L30.359 102.305C31.2129 100.388 33.479 99.5164 35.395 100.369L45.0935 104.688C47.0095 105.541 47.8785 107.808 47.0246 109.725L42.7026 119.433C41.8487 121.351 39.5824 122.222 37.6664 121.369Z" fill="white"/>
<path fill-rule="evenodd" clip-rule="evenodd" d="M11.9038 68.4949L20.2167 72.196C21.8592 72.9273 23.8015 72.1807 24.5335 70.5366L28.2381 62.216C28.97 60.5722 28.2253 58.6289 26.5827 57.8976L18.2699 54.1965C16.6276 53.4653 14.6852 54.2122 13.9533 55.856L10.2487 64.1766C9.51672 65.8207 10.2615 67.7637 11.9038 68.4949Z" fill="white"/>
</g>
<g opacity="0.757494">
<path fill-rule="evenodd" clip-rule="evenodd" d="M99.1661 92.7179L110.383 98.6822C113.272 100.218 116.917 99.1243 118.437 96.2663L126.129 81.7985C127.649 78.9402 126.529 75.3451 123.641 73.8093L109.021 66.0357C106.132 64.4999 102.526 65.5819 101.006 68.4402L95.3188 79.1364C91.9985 85.1363 90.2972 84.7557 84.9362 81.9052L73.9356 76.0561C71.0472 74.5203 67.4404 75.6022 65.9207 78.4604L58.2281 92.928C56.7084 95.7863 57.8282 99.3816 60.7166 100.917L75.3367 108.691C78.2251 110.227 81.8318 109.145 83.3515 106.286L88.3149 96.9516C91.3625 91.2199 92.8694 89.3699 99.1661 92.7179Z" fill="white"/>
<path fill-rule="evenodd" clip-rule="evenodd" d="M100.42 122.028L91.0466 117.044C89.1947 116.059 88.4862 113.737 89.4717 111.884L94.4604 102.501C95.446 100.648 97.7674 99.9367 99.6192 100.921L108.993 105.905C110.845 106.89 111.553 109.212 110.568 111.066L105.579 120.448C104.594 122.302 102.272 123.013 100.42 122.028Z" fill="white"/>
<path fill-rule="evenodd" clip-rule="evenodd" d="M78.4093 67.4856L86.4437 71.7576C88.0312 72.6017 90.0209 71.9924 90.8658 70.4034L95.1418 62.3614C95.9865 60.7727 95.3792 58.7822 93.7917 57.9381L85.7572 53.6661C84.17 52.8221 82.1802 53.4317 81.3354 55.0204L77.0594 63.0624C76.2145 64.6514 76.822 66.6416 78.4093 67.4856Z" fill="white"/>
</g>
<g opacity="0.203978">
<path fill-rule="evenodd" clip-rule="evenodd" d="M163.929 93.1926L174.703 99.9249C177.477 101.658 181.19 100.822 182.905 98.0766L191.588 84.1807C193.304 81.4354 192.437 77.7709 189.663 76.0374L175.621 67.2628C172.847 65.5293 169.174 66.3571 167.458 69.1023L161.038 79.3758C157.308 85.1295 155.637 84.6312 150.488 81.4136L139.922 74.8114C137.148 73.0779 133.475 73.9055 131.759 76.6508L123.076 90.5465C121.361 93.2918 122.227 96.9565 125.001 98.6901L139.043 107.465C141.818 109.198 145.491 108.37 147.206 105.625L152.809 96.6591C156.249 91.1539 157.881 89.4136 163.929 93.1926Z" fill="white"/>
<path fill-rule="evenodd" clip-rule="evenodd" d="M163.135 122.519L154.132 116.893C152.354 115.782 151.809 113.416 152.921 111.635L158.552 102.624C159.665 100.844 162.03 100.296 163.809 101.408L172.812 107.034C174.59 108.145 175.135 110.511 174.023 112.291L168.392 121.303C167.28 123.083 164.914 123.63 163.135 122.519Z" fill="white"/>
<path fill-rule="evenodd" clip-rule="evenodd" d="M144.983 66.5738L152.7 71.3958C154.224 72.3486 156.252 71.8796 157.205 70.3534L162.032 62.6293C162.985 61.1033 162.518 59.0753 160.994 58.1225L153.277 53.3005C151.752 52.3479 149.725 52.8172 148.771 54.3431L143.945 62.0672C142.991 63.5934 143.458 65.6212 144.983 66.5738Z" fill="white"/>
</g>
<g opacity="0.36733">
<path fill-rule="evenodd" clip-rule="evenodd" d="M228.661 93.6387L238.939 101.106C241.586 103.029 245.348 102.453 247.251 99.8346L256.882 86.5781C258.785 83.9592 258.176 80.2432 255.529 78.3204L242.134 68.5877C239.487 66.6648 235.765 67.2344 233.862 69.8533L226.742 79.6539C222.619 85.1334 220.987 84.5197 216.075 80.9508L205.995 73.6277C203.349 71.7048 199.626 72.2742 197.724 74.8931L188.092 88.1493C186.19 90.7682 186.798 94.4845 189.445 96.4073L202.841 106.14C205.487 108.063 209.21 107.493 211.112 104.874L217.326 96.321C221.142 91.0692 222.892 89.447 228.661 93.6387Z" fill="white"/>
<path fill-rule="evenodd" clip-rule="evenodd" d="M225.822 122.838L217.233 116.598C215.537 115.366 215.158 112.967 216.392 111.269L222.638 102.672C223.872 100.974 226.27 100.593 227.966 101.826L236.555 108.066C238.252 109.298 238.631 111.697 237.397 113.395L231.151 121.992C229.917 123.69 227.519 124.071 225.822 122.838Z" fill="white"/>
<path fill-rule="evenodd" clip-rule="evenodd" d="M211.617 65.7634L218.979 71.112C220.433 72.1688 222.488 71.8424 223.546 70.3864L228.9 63.0178C229.957 61.5621 229.633 59.5065 228.178 58.4496L220.817 53.101C219.362 52.0444 217.307 52.3711 216.249 53.8268L210.896 61.1954C209.838 62.6514 210.162 64.7067 211.617 65.7634Z" fill="white"/>
</g>
<g opacity="0.117312">
<path fill-rule="evenodd" clip-rule="evenodd" d="M293.359 94.0539L303.091 102.22C305.597 104.323 309.39 104.011 311.471 101.531L322.003 88.9791C324.084 86.4993 323.736 82.7499 321.23 80.6471L308.546 70.0037C306.04 67.9009 302.287 68.2094 300.206 70.6892L292.419 79.9693C287.924 85.1478 286.339 84.4218 281.688 80.5189L272.144 72.5105C269.638 70.4077 265.885 70.7161 263.804 73.1959L253.272 85.7479C251.191 88.2277 251.539 91.9774 254.045 94.0801L266.729 104.724C269.235 106.826 272.988 106.518 275.069 104.038L281.864 95.939C286.037 90.9662 287.896 89.4699 293.359 94.0539Z" fill="white"/>
<path fill-rule="evenodd" clip-rule="evenodd" d="M288.491 122.985L280.359 116.161C278.752 114.812 278.542 112.394 279.891 110.785L286.721 102.645C288.071 101.037 290.489 100.824 292.096 102.172L300.229 108.997C301.835 110.345 302.046 112.763 300.696 114.372L293.866 122.512C292.516 124.12 290.098 124.333 288.491 122.985Z" fill="white"/>
<path fill-rule="evenodd" clip-rule="evenodd" d="M278.301 65.0574L285.271 70.9065C286.649 72.0623 288.721 71.8799 289.878 70.5013L295.733 63.5241C296.889 62.1457 296.709 60.0725 295.332 58.9167L288.361 53.0676C286.984 51.9121 284.911 52.0947 283.754 53.4731L277.9 60.4502C276.743 61.8289 276.924 63.9019 278.301 65.0574Z" fill="white"/>
</g>
<g opacity="0.0725138">
<path fill-rule="evenodd" clip-rule="evenodd" d="M358.03 94.437L367.169 103.262C369.522 105.535 373.328 105.488 375.576 103.16L386.959 91.3726C389.207 89.044 389.122 85.2794 386.769 83.007L374.858 71.5047C372.504 69.2322 368.739 69.2782 366.491 71.6068L358.075 80.3211C353.23 85.1734 351.699 84.3386 347.332 80.1208L338.37 71.4661C336.016 69.1937 332.251 69.2395 330.002 71.5681L318.62 83.3549C316.371 85.6835 316.457 89.4483 318.81 91.7207L330.721 103.223C333.074 105.495 336.839 105.449 339.088 103.121L346.432 95.5156C350.942 90.846 352.9 89.4831 358.03 94.437Z" fill="white"/>
<path fill-rule="evenodd" clip-rule="evenodd" d="M351.157 122.958L343.52 115.583C342.012 114.126 341.971 111.698 343.429 110.188L350.811 102.544C352.269 101.034 354.696 100.991 356.205 102.448L363.842 109.822C365.35 111.279 365.392 113.707 363.933 115.217L356.552 122.861C355.093 124.371 352.666 124.415 351.157 122.958Z" fill="white"/>
<path fill-rule="evenodd" clip-rule="evenodd" d="M345.031 64.4609L351.576 70.7819C352.87 72.0309 354.95 71.9937 356.201 70.6991L362.528 64.1473C363.777 62.8529 363.742 60.7721 362.449 59.5232L355.903 53.2021C354.61 51.9533 352.529 51.9908 351.279 53.2851L344.952 59.8369C343.702 61.1315 343.738 63.2121 345.031 64.4609Z" fill="white"/>
</g>
<g opacity="0.250402">
<path fill-rule="evenodd" clip-rule="evenodd" d="M422.677 94.7852L431.178 104.226C433.367 106.657 437.166 106.876 439.572 104.711L451.749 93.7463C454.154 91.5802 454.332 87.8188 452.143 85.3878L441.063 73.0826C438.874 70.6515 435.115 70.4347 432.709 72.6008L423.707 80.7068C418.534 85.2093 417.066 84.2698 413.003 79.7576L404.667 70.4988C402.478 68.0678 398.718 67.8508 396.313 70.0169L384.136 80.981C381.73 83.147 381.553 86.9086 383.742 89.3397L394.821 101.645C397.01 104.076 400.77 104.292 403.175 102.126L411.032 95.0522C415.856 90.7085 417.905 89.4855 422.677 94.7852Z" fill="white"/>
<path fill-rule="evenodd" clip-rule="evenodd" d="M413.831 122.757L406.727 114.867C405.324 113.309 405.452 110.884 407.012 109.48L414.909 102.369C416.469 100.965 418.894 101.09 420.297 102.649L427.401 110.539C428.804 112.097 428.676 114.522 427.116 115.926L419.219 123.037C417.659 124.441 415.234 124.316 413.831 122.757Z" fill="white"/>
<path fill-rule="evenodd" clip-rule="evenodd" d="M411.8 63.9753L417.889 70.7376C419.092 72.0738 421.17 72.1817 422.508 70.9775L429.276 64.883C430.613 63.679 430.724 61.6008 429.52 60.2646L423.432 53.5023C422.229 52.1664 420.15 52.0587 418.813 53.2627L412.045 59.3572C410.707 60.5614 410.597 62.6393 411.8 63.9753Z" fill="white"/>
</g>
<g opacity="0.477906">
<path fill-rule="evenodd" clip-rule="evenodd" d="M23.5219 30.2239L20.4484 42.5508C19.657 45.725 21.6002 48.9976 24.7409 49.7807L40.64 53.7448C43.781 54.5279 46.9984 52.5714 47.7898 49.3973L51.7956 33.3309C52.587 30.1568 50.6647 26.9191 47.5236 26.136L35.7692 23.2053C29.1442 21.4351 29.102 19.6923 30.5709 13.8009L33.585 1.71208C34.3764 -1.46205 32.4541 -4.69998 29.3131 -5.48313L13.4143 -9.44715C10.2732 -10.2303 7.05557 -8.27389 6.26417 -5.09976L2.25836 10.9667C1.46696 14.1408 3.38959 17.3785 6.53061 18.1617L16.7888 20.7193C23.0875 22.2898 25.2471 23.3044 23.5219 30.2239Z" fill="white"/>
<path fill-rule="evenodd" clip-rule="evenodd" d="M-4.61583 38.5317L-2.0475 28.2307C-1.54011 26.1957 0.5418 24.9463 2.57877 25.4542L12.8893 28.0249C14.9262 28.5328 16.1776 30.6132 15.6702 32.6482L13.1019 42.9492C12.5945 44.9843 10.5129 46.2337 8.47594 45.7258L-1.83456 43.1551C-3.87153 42.6472 -5.12322 40.5667 -4.61583 38.5317Z" fill="white"/>
<path fill-rule="evenodd" clip-rule="evenodd" d="M42.9827 3.97942L40.7814 12.8087C40.3464 14.5533 41.4189 16.3364 43.1651 16.7718L52.0027 18.9752C53.7486 19.4106 55.533 18.3397 55.968 16.5952L58.1694 7.76587C58.6043 6.02158 57.5314 4.23836 55.7855 3.80305L46.948 1.59961C45.2018 1.16423 43.4176 2.23512 42.9827 3.97942Z" fill="white"/>
</g>
<g opacity="0.328244">
<path fill-rule="evenodd" clip-rule="evenodd" d="M88.1206 29.9597L84.1948 42.0422C83.1839 45.1534 84.894 48.5536 87.9724 49.5539L103.556 54.6174C106.635 55.6177 109.981 53.8904 110.992 50.7792L116.109 35.0314C117.12 31.9202 115.428 28.5563 112.349 27.556L100.828 23.8125C94.3424 21.5845 94.4218 19.843 96.298 14.0684L100.148 2.21928C101.159 -0.891919 99.4672 -4.25606 96.3885 -5.2564L80.8049 -10.3198C77.7262 -11.3202 74.3799 -9.59296 73.369 -6.48177L68.2522 9.26608C67.2413 12.3773 68.9334 15.7412 72.0122 16.7416L82.067 20.0086C88.2408 22.0146 90.3243 23.1773 88.1206 29.9597Z" fill="white"/>
<path fill-rule="evenodd" clip-rule="evenodd" d="M59.4746 36.2844L62.7552 26.1876C63.4034 24.1929 65.5673 23.0919 67.5639 23.7406L77.67 27.0243C79.6666 27.673 80.7698 29.8356 80.1217 31.8303L76.8411 41.9271C76.1929 43.9217 74.0292 45.0229 72.0327 44.3742L61.9266 41.0905C59.93 40.4418 58.8265 38.279 59.4746 36.2844Z" fill="white"/>
<path fill-rule="evenodd" clip-rule="evenodd" d="M109.365 5.13675L106.553 13.791C105.997 15.501 106.943 17.3546 108.655 17.9107L117.317 20.7253C119.028 21.2813 120.883 20.3376 121.439 18.6276L124.251 9.97335C124.806 8.26364 123.86 6.40993 122.149 5.85389L113.487 3.03935C111.775 2.48322 109.921 3.42704 109.365 5.13675Z" fill="white"/>
</g>
<g opacity="0.118787">
<path fill-rule="evenodd" clip-rule="evenodd" d="M152.738 29.6579L147.979 41.4371C146.754 44.4702 148.223 47.9814 151.224 49.1939L166.417 55.3322C169.418 56.5449 172.876 55.0552 174.102 52.0221L180.305 36.6695C181.53 33.6364 180.077 30.1628 177.076 28.9501L165.843 24.412C159.529 21.737 159.73 20.0054 162.004 14.3757L166.672 2.824C167.897 -0.2091 166.444 -3.68305 163.443 -4.89572L148.25 -11.0338C145.249 -12.2465 141.79 -10.757 140.565 -7.72386L134.362 7.6287C133.137 10.6618 134.59 14.1356 137.591 15.3482L147.394 19.3087C153.413 21.7405 155.41 23.0457 152.738 29.6579Z" fill="white"/>
<path fill-rule="evenodd" clip-rule="evenodd" d="M123.72 33.9687L127.697 24.1254C128.482 22.1808 130.718 21.2334 132.664 22.0198L142.517 26.0004C144.463 26.7868 145.413 29.0212 144.627 30.9658L140.65 40.8091C139.864 42.7537 137.629 43.7012 135.683 42.9148L125.83 38.9342C123.884 38.1478 122.934 35.9133 123.72 33.9687Z" fill="white"/>
<path fill-rule="evenodd" clip-rule="evenodd" d="M175.662 6.37709L172.254 14.8141C171.58 16.4811 172.394 18.3962 174.063 19.0704L182.507 22.4823C184.176 23.1564 186.092 22.3443 186.765 20.6772L190.174 12.2403C190.848 10.5735 190.033 8.65829 188.365 7.98424L179.92 4.5723C178.252 3.89813 176.336 4.71029 175.662 6.37709Z" fill="white"/>
</g>
<g opacity="0.478208">
<path fill-rule="evenodd" clip-rule="evenodd" d="M217.378 29.3189L211.809 40.7374C210.375 43.6777 211.595 47.2828 214.504 48.7017L229.232 55.8848C232.141 57.3039 235.695 56.0591 237.129 53.1189L244.388 38.2364C245.822 35.2962 244.615 31.7296 241.705 30.3105L230.817 25C224.705 21.8911 225.026 20.1776 227.688 14.7204L233.149 3.52234C234.583 0.582116 233.376 -2.98472 230.467 -4.40381L215.739 -11.5868C212.83 -13.0058 209.276 -11.7612 207.842 -8.82095L200.583 6.06153C199.149 9.00175 200.357 12.5685 203.266 13.9875L212.768 18.6221C218.603 21.4678 220.504 22.9092 217.378 29.3189Z" fill="white"/>
<path fill-rule="evenodd" clip-rule="evenodd" d="M188.128 31.5952L192.782 22.0533C193.701 20.1682 195.997 19.379 197.884 20.2993L207.435 24.9575C209.322 25.8778 210.113 28.1729 209.194 30.058L204.54 39.5999C203.62 41.485 201.324 42.2743 199.438 41.354L189.887 36.6958C188 35.7755 187.208 33.4803 188.128 31.5952Z" fill="white"/>
<path fill-rule="evenodd" clip-rule="evenodd" d="M241.872 7.69397L237.883 15.8726C237.095 17.4886 237.773 19.4558 239.391 20.2447L247.577 24.2374C249.194 25.0262 251.162 24.3498 251.95 22.7338L255.939 14.5552C256.728 12.9394 256.049 10.9721 254.432 10.1833L246.245 6.19059C244.628 5.40166 242.66 6.07821 241.872 7.69397Z" fill="white"/>
</g>
<g opacity="0.307678">
<path fill-rule="evenodd" clip-rule="evenodd" d="M282.043 28.9453L275.691 39.9476C274.055 42.7806 275.021 46.4621 277.824 48.0805L292.014 56.2734C294.818 57.892 298.45 56.8982 300.086 54.0651L308.365 39.7252C310 36.8922 309.045 33.2501 306.241 31.6315L295.75 25.5744C289.87 22.0467 290.31 20.3598 293.345 15.1015L299.575 4.31175C301.211 1.47872 300.255 -2.16363 297.452 -3.78222L283.261 -11.975C280.458 -13.5936 276.826 -12.5999 275.19 -9.76683L266.911 4.57305C265.275 7.40608 266.231 11.0483 269.034 12.6669L278.19 17.953C283.812 21.1988 285.608 22.7694 282.043 28.9453Z" fill="white"/>
<path fill-rule="evenodd" clip-rule="evenodd" d="M252.707 29.1761L258.015 19.982C259.064 18.1657 261.41 17.5386 263.228 18.5883L272.43 23.9013C274.248 24.951 274.878 27.2958 273.829 29.1121L268.521 38.3061C267.472 40.1225 265.127 40.7497 263.309 39.7001L254.106 34.387C252.288 33.3373 251.658 30.9924 252.707 29.1761Z" fill="white"/>
<path fill-rule="evenodd" clip-rule="evenodd" d="M307.983 9.08198L303.433 16.9624C302.534 18.5196 303.074 20.5293 304.632 21.4291L312.52 25.9831C314.078 26.8828 316.089 26.3453 316.988 24.7882L321.538 16.9078C322.436 15.3509 321.897 13.3411 320.338 12.4414L312.451 7.88734C310.892 6.9875 308.882 7.52513 307.983 9.08198Z" fill="white"/>
</g>
<g opacity="0.300184">
<path fill-rule="evenodd" clip-rule="evenodd" d="M346.735 28.5382L339.631 39.0706C337.802 41.7826 338.508 45.5225 341.192 47.3325L354.776 56.4954C357.46 58.3056 361.153 57.5675 362.982 54.8555L372.241 41.128C374.07 38.416 373.371 34.7161 370.688 32.9059L360.644 26.1317C355.024 22.2024 355.581 20.5503 358.976 15.5166L365.943 5.18765C367.772 2.47562 367.073 -1.2245 364.39 -3.0347L350.805 -12.1974C348.122 -14.0076 344.429 -13.2697 342.6 -10.5576L333.34 3.16979C331.511 5.88182 332.21 9.58185 334.894 11.3921L343.659 17.304C349.041 20.934 350.723 22.626 346.735 28.5382Z" fill="white"/>
<path fill-rule="evenodd" clip-rule="evenodd" d="M317.455 26.7219L323.391 17.9206C324.564 16.1818 326.948 15.7199 328.688 16.8938L337.497 22.8359C339.238 24.0098 339.702 26.3928 338.529 28.1315L332.593 36.9329C331.42 38.6716 329.037 39.1338 327.296 37.9598L318.487 32.0178C316.746 30.8438 316.282 28.4607 317.455 26.7219Z" fill="white"/>
<path fill-rule="evenodd" clip-rule="evenodd" d="M374 10.5329L368.912 18.0768C367.907 19.5674 368.305 21.6098 369.797 22.6162L377.348 27.7093C378.839 28.7155 380.882 28.3196 381.888 26.829L386.976 19.2851C387.981 17.7948 387.583 15.7521 386.091 14.7459L378.541 9.65278C377.049 8.64642 375.006 9.04251 374 10.5329Z" fill="white"/>
</g>
<g opacity="0.728945">
<path fill-rule="evenodd" clip-rule="evenodd" d="M411.459 28.1003L403.637 38.1114C401.623 40.6892 402.067 44.4692 404.618 46.4621L417.53 56.5502C420.081 58.5432 423.816 58.0645 425.83 55.4867L436.025 42.4386C438.039 39.8608 437.599 36.1211 435.048 34.1281L425.502 26.6699C420.17 22.3581 420.84 20.7488 424.578 15.9642L432.249 6.14641C434.263 3.56859 433.824 -0.171263 431.273 -2.16427L418.361 -12.2522C415.81 -14.2452 412.075 -13.7667 410.061 -11.1889L399.866 1.85922C397.852 4.43704 398.292 8.17684 400.843 10.1699L409.174 16.6788C414.289 20.6754 415.849 22.4806 411.459 28.1003Z" fill="white"/>
<path fill-rule="evenodd" clip-rule="evenodd" d="M382.378 24.2456L388.914 15.8799C390.205 14.2271 392.615 13.9326 394.27 15.2251L402.643 21.7672C404.297 23.0597 404.595 25.4692 403.303 27.1219L396.767 35.4877C395.476 37.1404 393.066 37.4352 391.412 36.1427L383.038 29.6006C381.384 28.3081 381.087 25.8984 382.378 24.2456Z" fill="white"/>
<path fill-rule="evenodd" clip-rule="evenodd" d="M439.914 12.0404L434.311 19.2109C433.204 20.6278 433.459 22.693 434.877 23.801L442.054 29.4085C443.472 30.5163 445.538 30.2638 446.645 28.847L452.247 21.6764C453.354 20.2598 453.099 18.1944 451.681 17.0866L444.504 11.4791C443.086 10.3711 441.02 10.6238 439.914 12.0404Z" fill="white"/>
</g>
</g>
</g>
</svg>
