<svg width="94" height="93" viewBox="0 0 94 93" fill="none" xmlns="http://www.w3.org/2000/svg">
<path fill-rule="evenodd" clip-rule="evenodd" d="M47 92C72.4051 92 93 71.629 93 46.5C93 21.371 72.4051 1 47 1C21.5949 1 1 21.371 1 46.5C1 71.629 21.5949 92 47 92Z" stroke="white" stroke-width="2"/>
<path fill-rule="evenodd" clip-rule="evenodd" d="M46.5 54C50.0899 54 53 51.0899 53 47.5C53 43.9101 50.0899 41 46.5 41C42.9101 41 40 43.9101 40 47.5C40 51.0899 42.9101 54 46.5 54Z" stroke="white" stroke-width="2"/>
<path d="M51.364 41.662L62 29" stroke="white" stroke-width="2" stroke-linecap="square"/>
<path d="M80.2622 56.243C86.3519 38.6253 76.9514 19.4257 59.2656 13.3594" stroke="white" stroke-width="2"/>
<path d="M16.2163 34.2751C22.306 16.6574 41.5798 7.29311 59.2656 13.3594" stroke="white" stroke-width="2"/>
</svg>
