<svg width="28" height="27" viewBox="0 0 28 27" fill="none" xmlns="http://www.w3.org/2000/svg">
<path fill-rule="evenodd" clip-rule="evenodd" d="M18.4425 12.7692H24.9422C26.6159 12.7692 28 14.1209 28 15.7552V24.0283C28 25.6628 26.6305 27 24.9569 27H16.4854C14.8117 27 13.4424 25.6628 13.4424 24.0283V17.9119C13.3836 14.4501 12.5237 14.2165 9.41732 14.2165H3.04311C1.36946 14.2165 0 12.8793 0 11.2448V2.97181C0 1.33737 1.36946 0 3.04311 0H11.5146C13.1883 0 14.5576 1.33737 14.5576 2.97181V8.30972C14.5576 11.5873 14.794 12.7692 18.4425 12.7692Z" fill="#3A3080"/>
<path fill-rule="evenodd" clip-rule="evenodd" d="M25.9097 0H20.0903C18.9406 0 18 0.940751 18 2.09043V7.90974C18 9.05941 18.9406 10 20.0903 10H25.9097C27.0594 10 28 9.05941 28 7.90974V2.09043C28 0.940751 27.0594 0 25.9097 0Z" fill="#748288"/>
<path fill-rule="evenodd" clip-rule="evenodd" d="M3.67217 19H8.32767C9.24756 19 10 19.7524 10 20.6723V25.3277C10 26.2474 9.24756 27 8.32767 27H3.67217C2.75244 27 2 26.2474 2 25.3277V20.6723C2 19.7524 2.75244 19 3.67217 19Z" fill="#748288"/>
</svg>
